<?xml version="1.0" encoding="utf-8"?>
<!-- Generator: Adobe Illustrator 16.0.0, SVG Export Plug-In . SVG Version: 6.00 Build 0)  -->
<svg version="1.2" baseProfile="tiny" id="Layer_1" xmlns="http://www.w3.org/2000/svg" xmlns:xlink="http://www.w3.org/1999/xlink"
	 x="0px" y="0px" width="216px" height="41px" viewBox="0 0 216 41" xml:space="preserve">
<g>
	<path fill="#F1F1F1" d="M194.449,41H20.551C9.219,41,0,31.805,0,20.5S9.219,0,20.551,0h173.898C205.781,0,215,9.195,215,20.5
		S205.781,41,194.449,41z M20.551,1C9.771,1,1,9.748,1,20.5S9.771,40,20.551,40h173.898C205.229,40,214,31.252,214,20.5
		S205.229,1,194.449,1H20.551z"/>
</g>
<g>
	<path fill="#F1F1F1" d="M26.74,27.318h-3.445l-0.622-1.996H18.55l-0.659,1.996h-3.446l4.877-13.408h2.542L26.74,27.318z
		 M21.807,22.572l-1.13-3.578l-1.205,3.578H21.807z"/>
	<path fill="#F1F1F1" d="M38.434,27.318h-2.881l-4.293-6.742v6.742h-3.296V13.91h2.882l4.293,6.742V13.91h3.295V27.318z"/>
	<path fill="#F1F1F1" d="M44.158,27.318h-3.296V13.91h3.296V27.318z"/>
	<path fill="#F1F1F1" d="M59.091,27.318h-3.296v-6.422l-1.901,3.313h-2.109l-1.901-3.313v6.422h-3.296V13.91h3.239l3.013,5.914
		l3.013-5.914h3.239L59.091,27.318L59.091,27.318z"/>
	<path fill="#F1F1F1" d="M72.46,27.318h-3.445l-0.622-1.996H64.27l-0.659,1.996h-3.446l4.877-13.408h2.542L72.46,27.318z
		 M67.526,22.572l-1.13-3.578l-1.205,3.578H67.526z"/>
	<path fill="#F1F1F1" d="M81.047,16.848h-3.296v10.471h-3.295V16.848H71.16V13.91h9.887V16.848z"/>
	<path fill="#F1F1F1" d="M91.968,27.318h-9.114V13.91h9.114v2.938H86.15v2.242h4.971v2.938H86.15v2.354h5.818V27.318z"/>
	<path fill="#F1F1F1" d="M109.234,20.613v0.584c0,1.08-0.068,1.922-0.207,2.523c-0.188,0.879-0.57,1.612-1.147,2.202
		c-0.979,1.007-2.229,1.509-3.748,1.509c-1.506,0-2.755-0.502-3.747-1.509c-0.628-0.639-1.029-1.469-1.205-2.483
		c-0.101-0.541-0.15-1.482-0.15-2.826c0-1.342,0.05-2.283,0.15-2.824c0.176-1.016,0.577-1.846,1.205-2.484
		c0.979-1.004,2.229-1.508,3.747-1.508c1.507,0,2.756,0.504,3.748,1.508c0.627,0.639,1.028,1.469,1.205,2.484
		C109.186,18.342,109.234,19.283,109.234,20.613z M105.939,19.561c0-1.885-0.603-2.826-1.808-2.826c-0.74,0-1.255,0.334-1.544,0.998
		c-0.176,0.453-0.264,1.111-0.264,1.979c0,0.125-0.006,0.363-0.019,0.715c-0.013,0.353-0.019,0.63-0.019,0.828
		c0,2.16,0.614,3.24,1.845,3.24c0.741,0,1.256-0.347,1.545-1.037c0.175-0.438,0.263-1.099,0.263-1.978L105.939,19.561
		L105.939,19.561z"/>
	<path fill="#F1F1F1" d="M121.795,27.318h-2.881l-4.293-6.742v6.742h-3.296V13.91h2.882l4.293,6.742V13.91h3.295V27.318z"/>
	<path fill="#F1F1F1" d="M139.684,13.91l-4.443,13.408h-2.448l-4.425-13.408h3.408l2.26,7.494l2.222-7.494H139.684z"/>
	<path fill="#F1F1F1" d="M144.241,27.318h-3.296V13.91h3.296V27.318z"/>
	<path fill="#F1F1F1" d="M155.689,23.213c0,1.355-0.541,2.424-1.621,3.201c-0.953,0.678-2.141,1.018-3.559,1.018
		c-2.246,0-3.941-0.59-5.084-1.771l2.108-2.106c0.641,0.627,1.639,0.94,2.993,0.94c1.281,0,1.922-0.402,1.922-1.205
		c0-0.654-0.553-1.067-1.657-1.244c-1.657-0.289-2.681-0.532-3.069-0.733c-1.104-0.576-1.656-1.67-1.656-3.275
		c0-1.344,0.49-2.404,1.469-3.184c0.904-0.703,2.046-1.056,3.428-1.056c1.945,0,3.452,0.535,4.52,1.603l-2.071,2.069
		c-0.526-0.526-1.3-0.79-2.315-0.79c-1.229,0-1.846,0.415-1.846,1.243c0,0.563,0.559,0.931,1.676,1.093
		c1.569,0.237,2.6,0.489,3.088,0.754C155.13,20.395,155.689,21.543,155.689,23.213z"/>
	<path fill="#F1F1F1" d="M160.962,27.318h-3.296V13.91h3.296V27.318z"/>
	<path fill="#F1F1F1" d="M173.409,23.363c0,1.229-0.388,2.197-1.158,2.9c-0.772,0.702-1.778,1.055-3.022,1.055h-5.838V13.91h5.557
		c1.279,0,2.297,0.32,3.05,0.961c0.815,0.689,1.226,1.664,1.226,2.918c0,1.105-0.49,1.99-1.47,2.656
		C172.855,21.109,173.409,22.082,173.409,23.363z M169.925,17.959c0-0.729-0.396-1.092-1.187-1.092h-2.053v2.184h2.053
		C169.529,19.051,169.925,18.688,169.925,17.959z M170.113,23.176c0-0.779-0.401-1.168-1.205-1.168h-2.223v2.354h2.223
		C169.712,24.361,170.113,23.967,170.113,23.176z"/>
	<path fill="#F1F1F1" d="M184.557,27.318h-8.927V13.91h3.296v10.471h5.631V27.318L184.557,27.318z"/>
	<path fill="#F1F1F1" d="M195.082,27.318h-9.114V13.91h9.114v2.938h-5.818v2.242h4.971v2.938h-4.971v2.354h5.818V27.318z"/>
</g>
</svg>
