<?xml version="1.0" encoding="utf-8"?>
<!-- Generator: Adobe Illustrator 16.0.0, SVG Export Plug-In . SVG Version: 6.00 Build 0)  -->
<svg version="1.2" baseProfile="tiny" id="Layer_1" xmlns="http://www.w3.org/2000/svg" xmlns:xlink="http://www.w3.org/1999/xlink"
	 x="0px" y="0px" width="216px" height="41px" viewBox="0 0 216 41" xml:space="preserve">
<g>
	<path fill="#F1F1F1" d="M169.925,17.959c0-0.729-0.396-1.092-1.187-1.092h-2.053v2.184h2.053
		C169.529,19.051,169.925,18.688,169.925,17.959z"/>
	<path fill="#F1F1F1" d="M104.132,16.734c-0.74,0-1.255,0.334-1.544,0.998c-0.176,0.453-0.264,1.11-0.264,1.979
		c0,0.125-0.006,0.363-0.019,0.715c-0.013,0.352-0.019,0.629-0.019,0.828c0,2.16,0.614,3.24,1.845,3.24
		c0.741,0,1.256-0.346,1.545-1.037c0.175-0.439,0.263-1.098,0.263-1.977v-1.92C105.939,17.676,105.337,16.734,104.132,16.734z"/>
	<polygon fill="#F1F1F1" points="19.472,22.572 21.807,22.572 20.677,18.994 	"/>
	<polygon fill="#F1F1F1" points="65.191,22.572 67.526,22.572 66.396,18.994 	"/>
	<path fill="#F1F1F1" d="M168.908,22.008h-2.223v2.354h2.223c0.804,0,1.205-0.395,1.205-1.186
		C170.113,22.396,169.712,22.008,168.908,22.008z"/>
	<path fill="#F1F1F1" d="M194.449,0H20.551C9.219,0,0,9.195,0,20.5S9.219,41,20.551,41h173.898C205.781,41,215,31.805,215,20.5
		S205.781,0,194.449,0z M23.295,27.318l-0.622-1.996H18.55l-0.659,1.996h-3.446l4.877-13.408h2.542l4.877,13.408H23.295z
		 M38.434,27.318h-2.881l-4.293-6.742v6.742h-3.296V13.91h2.882l4.293,6.742V13.91h3.295V27.318z M44.158,27.318h-3.296V13.91h3.296
		V27.318z M59.091,27.318h-3.296v-6.422l-1.901,3.313h-2.109l-1.901-3.313v6.422h-3.296V13.91h3.239l3.013,5.914l3.013-5.914h3.239
		L59.091,27.318L59.091,27.318z M69.015,27.318l-0.622-1.996H64.27l-0.659,1.996h-3.446l4.877-13.408h2.542l4.877,13.408H69.015z
		 M81.047,16.848h-3.296v10.471h-3.295V16.848H71.16V13.91h9.887V16.848z M91.968,16.848H86.15v2.242h4.971v2.938H86.15v2.354h5.818
		v2.938h-9.114V13.91h9.114V16.848z M109.234,21.197c0,1.08-0.068,1.922-0.207,2.523c-0.188,0.879-0.57,1.612-1.147,2.202
		c-0.979,1.007-2.229,1.509-3.748,1.509c-1.506,0-2.755-0.502-3.747-1.509c-0.628-0.639-1.029-1.469-1.205-2.483
		c-0.101-0.541-0.15-1.482-0.15-2.826c0-1.342,0.05-2.283,0.15-2.824c0.176-1.016,0.577-1.846,1.205-2.484
		c0.979-1.004,2.229-1.508,3.747-1.508c1.507,0,2.756,0.504,3.748,1.508c0.627,0.639,1.028,1.469,1.205,2.484
		c0.101,0.553,0.149,1.494,0.149,2.824V21.197z M121.795,27.318h-2.881l-4.293-6.742v6.742h-3.296V13.91h2.882l4.293,6.742V13.91
		h3.295V27.318z M135.238,27.318h-2.447l-4.425-13.408h3.407l2.261,7.494l2.222-7.494h3.428L135.238,27.318z M144.241,27.318h-3.296
		V13.91h3.296V27.318z M154.068,26.414c-0.953,0.678-2.141,1.018-3.559,1.018c-2.246,0-3.941-0.59-5.084-1.771l2.108-2.106
		c0.641,0.627,1.639,0.94,2.993,0.94c1.281,0,1.922-0.402,1.922-1.205c0-0.654-0.553-1.067-1.657-1.244
		c-1.657-0.289-2.681-0.532-3.069-0.733c-1.104-0.576-1.656-1.67-1.656-3.275c0-1.344,0.49-2.404,1.469-3.184
		c0.904-0.703,2.046-1.056,3.428-1.056c1.945,0,3.452,0.535,4.52,1.603l-2.071,2.069c-0.526-0.526-1.3-0.79-2.315-0.79
		c-1.229,0-1.846,0.415-1.846,1.243c0,0.563,0.559,0.931,1.676,1.093c1.569,0.237,2.6,0.489,3.088,0.754
		c1.117,0.627,1.678,1.774,1.678,3.444C155.689,24.568,155.148,25.637,154.068,26.414z M160.962,27.318h-3.296V13.91h3.296V27.318z
		 M172.251,26.264c-0.772,0.703-1.778,1.055-3.022,1.055h-5.838V13.91h5.557c1.279,0,2.297,0.32,3.05,0.961
		c0.815,0.689,1.226,1.664,1.226,2.918c0,1.105-0.49,1.99-1.47,2.656c1.104,0.664,1.657,1.637,1.657,2.918
		C173.409,24.594,173.021,25.561,172.251,26.264z M184.557,27.318h-8.927V13.91h3.296v10.471h5.631V27.318L184.557,27.318z
		 M195.082,16.848h-5.818v2.242h4.971v2.938h-4.971v2.354h5.818v2.938h-9.114V13.91h9.114V16.848z"/>
</g>
</svg>
