<?xml version="1.0" encoding="utf-8"?>
<!-- Generator: Adobe Illustrator 16.0.0, SVG Export Plug-In . SVG Version: 6.00 Build 0)  -->
<svg version="1.2" baseProfile="tiny" id="Layer_1" xmlns="http://www.w3.org/2000/svg" xmlns:xlink="http://www.w3.org/1999/xlink"
	 x="0px" y="0px" width="216px" height="41px" viewBox="0 0 216 41" xml:space="preserve">
<g>
	<polygon fill="#F1F1F1" points="65.191,22.573 67.526,22.573 66.396,18.995 	"/>
	<path fill="#F1F1F1" d="M104.132,16.735c-0.74,0-1.255,0.333-1.544,0.998c-0.176,0.452-0.264,1.111-0.264,1.978
		c0,0.126-0.006,0.364-0.019,0.716c-0.013,0.352-0.019,0.628-0.019,0.828c0,2.159,0.614,3.239,1.845,3.239
		c0.741,0,1.256-0.346,1.545-1.036c0.175-0.439,0.263-1.099,0.263-1.978v-1.92C105.939,17.676,105.337,16.735,104.132,16.735z"/>
	<path fill="#F1F1F1" d="M144.956,16.735c-0.74,0-1.255,0.333-1.544,0.998c-0.176,0.452-0.264,1.111-0.264,1.978
		c0,0.126-0.006,0.364-0.02,0.716c-0.013,0.352-0.02,0.628-0.02,0.828c0,2.159,0.615,3.239,1.846,3.239
		c0.74,0,1.256-0.346,1.545-1.036c0.175-0.439,0.264-1.099,0.264-1.978v-1.92C146.764,17.676,146.161,16.735,144.956,16.735z"/>
	<polygon fill="#F1F1F1" points="19.472,22.573 21.807,22.573 20.677,18.995 	"/>
	<path fill="#F1F1F1" d="M157.311,16.867h-1.865v2.712h1.865c0.4,0,0.739-0.129,1.017-0.386c0.276-0.258,0.414-0.581,0.414-0.97
		c0-0.39-0.138-0.713-0.414-0.97C158.05,16.996,157.711,16.867,157.311,16.867z"/>
	<path fill="#F1F1F1" d="M194.449,0H20.551C9.219,0,0,9.196,0,20.5S9.219,41,20.551,41h173.898C205.781,41,215,31.804,215,20.5
		S205.781,0,194.449,0z M23.295,27.318l-0.622-1.996H18.55l-0.659,1.996h-3.446l4.877-13.407h2.542l4.877,13.407H23.295z
		 M38.434,27.318h-2.881l-4.293-6.741v6.741h-3.296V13.911h2.882l4.293,6.741v-6.741h3.295V27.318z M44.158,27.318h-3.296V13.911
		h3.296V27.318z M59.091,27.318h-3.296v-6.421l-1.901,3.313h-2.109l-1.901-3.313v6.421h-3.296V13.911h3.239l3.013,5.913l3.013-5.913
		h3.239L59.091,27.318L59.091,27.318z M69.015,27.318l-0.622-1.996H64.27l-0.659,1.996h-3.446l4.877-13.407h2.542l4.877,13.407
		H69.015z M81.047,16.848h-3.296v10.47h-3.295v-10.47H71.16V13.91h9.887V16.848z M91.968,16.848H86.15v2.241h4.971v2.938H86.15
		v2.354h5.818v2.938h-9.114V13.911h9.114V16.848z M109.234,21.198c0,1.08-0.068,1.921-0.207,2.523
		c-0.188,0.879-0.57,1.613-1.147,2.203c-0.979,1.005-2.229,1.507-3.748,1.507c-1.506,0-2.755-0.502-3.747-1.507
		c-0.628-0.64-1.029-1.469-1.205-2.485c-0.101-0.54-0.15-1.481-0.15-2.825c0-1.343,0.05-2.284,0.15-2.824
		c0.176-1.017,0.577-1.846,1.205-2.485c0.979-1.004,2.229-1.507,3.747-1.507c1.507,0,2.756,0.503,3.748,1.507
		c0.627,0.64,1.028,1.469,1.205,2.485c0.101,0.553,0.149,1.494,0.149,2.824V21.198z M121.795,27.318h-2.881l-4.293-6.741v6.741
		h-3.296V13.911h2.882l4.293,6.741v-6.741h3.295V27.318z M138.816,16.848h-3.295v10.47h-3.295v-10.47h-3.297V13.91h9.887V16.848
		L138.816,16.848z M150.061,21.198c0,1.08-0.069,1.921-0.207,2.523c-0.188,0.879-0.571,1.613-1.148,2.203
		c-0.979,1.005-2.229,1.507-3.748,1.507c-1.506,0-2.755-0.502-3.747-1.507c-0.628-0.64-1.028-1.469-1.205-2.485
		c-0.101-0.54-0.149-1.481-0.149-2.825c0-1.343,0.049-2.284,0.149-2.824c0.177-1.017,0.577-1.846,1.205-2.485
		c0.979-1.004,2.229-1.507,3.747-1.507c1.507,0,2.756,0.503,3.748,1.507c0.627,0.64,1.027,1.469,1.205,2.485
		c0.1,0.553,0.15,1.494,0.15,2.824V21.198z M160.718,21.339c-0.879,0.797-1.965,1.195-3.258,1.195h-2.015v4.783h-3.297V13.911h5.312
		c1.293,0,2.373,0.39,3.239,1.167c0.891,0.816,1.337,1.864,1.337,3.146C162.036,19.503,161.596,20.542,160.718,21.339z"/>
</g>
</svg>
