<?xml version="1.0" encoding="utf-8"?>
<!-- Generator: Adobe Illustrator 16.0.0, SVG Export Plug-In . SVG Version: 6.00 Build 0)  -->
<svg version="1.2" baseProfile="tiny" id="Layer_1" xmlns="http://www.w3.org/2000/svg" xmlns:xlink="http://www.w3.org/1999/xlink"
	 x="0px" y="0px" width="216px" height="41px" viewBox="0 0 216 41" xml:space="preserve">
<g>
	<path fill="#F1F1F1" d="M194.449,41H20.551C9.219,41,0,31.804,0,20.5S9.219,0,20.551,0h173.898C205.781,0,215,9.196,215,20.5
		S205.781,41,194.449,41z M20.551,1C9.771,1,1,9.748,1,20.5S9.771,40,20.551,40h173.898C205.229,40,214,31.252,214,20.5
		S205.229,1,194.449,1H20.551z"/>
</g>
<g>
	<path fill="#F1F1F1" d="M26.74,27.318h-3.445l-0.622-1.996H18.55l-0.659,1.996h-3.446l4.877-13.407h2.542L26.74,27.318z
		 M21.807,22.573l-1.13-3.578l-1.205,3.578H21.807z"/>
	<path fill="#F1F1F1" d="M38.434,27.318h-2.881l-4.293-6.741v6.741h-3.296V13.911h2.882l4.293,6.741v-6.741h3.295V27.318z"/>
	<path fill="#F1F1F1" d="M44.158,27.318h-3.296V13.911h3.296V27.318z"/>
	<path fill="#F1F1F1" d="M59.091,27.318h-3.296v-6.421l-1.901,3.313h-2.109l-1.901-3.313v6.421h-3.296V13.911h3.239l3.013,5.913
		l3.013-5.913h3.239L59.091,27.318L59.091,27.318z"/>
	<path fill="#F1F1F1" d="M72.46,27.318h-3.445l-0.622-1.996H64.27l-0.659,1.996h-3.446l4.877-13.407h2.542L72.46,27.318z
		 M67.526,22.573l-1.13-3.578l-1.205,3.578H67.526z"/>
	<path fill="#F1F1F1" d="M81.047,16.848h-3.296v10.47h-3.295v-10.47H71.16V13.91h9.887V16.848z"/>
	<path fill="#F1F1F1" d="M91.968,27.318h-9.114V13.911h9.114v2.938H86.15v2.241h4.971v2.938H86.15v2.354h5.818V27.318z"/>
	<path fill="#F1F1F1" d="M109.234,20.614v0.584c0,1.08-0.068,1.921-0.207,2.523c-0.188,0.879-0.57,1.613-1.147,2.203
		c-0.979,1.005-2.229,1.507-3.748,1.507c-1.506,0-2.755-0.502-3.747-1.507c-0.628-0.64-1.029-1.469-1.205-2.485
		c-0.101-0.54-0.15-1.481-0.15-2.825c0-1.343,0.05-2.284,0.15-2.824c0.176-1.017,0.577-1.846,1.205-2.485
		c0.979-1.004,2.229-1.507,3.747-1.507c1.507,0,2.756,0.503,3.748,1.507c0.627,0.64,1.028,1.469,1.205,2.485
		C109.186,18.342,109.234,19.284,109.234,20.614z M105.939,19.56c0-1.884-0.603-2.825-1.808-2.825c-0.74,0-1.255,0.333-1.544,0.998
		c-0.176,0.452-0.264,1.111-0.264,1.978c0,0.126-0.006,0.364-0.019,0.716c-0.013,0.352-0.019,0.628-0.019,0.828
		c0,2.159,0.614,3.239,1.845,3.239c0.741,0,1.256-0.346,1.545-1.036c0.175-0.439,0.263-1.099,0.263-1.978L105.939,19.56
		L105.939,19.56z"/>
	<path fill="#F1F1F1" d="M121.795,27.318h-2.881l-4.293-6.741v6.741h-3.296V13.911h2.882l4.293,6.741v-6.741h3.295V27.318z"/>
	<path fill="#F1F1F1" d="M138.816,16.848h-3.295v10.47h-3.295v-10.47h-3.297V13.91h9.887V16.848L138.816,16.848z"/>
	<path fill="#F1F1F1" d="M150.061,20.614v0.584c0,1.08-0.069,1.921-0.207,2.523c-0.188,0.879-0.571,1.613-1.148,2.203
		c-0.979,1.005-2.229,1.507-3.748,1.507c-1.506,0-2.755-0.502-3.747-1.507c-0.628-0.64-1.028-1.469-1.205-2.485
		c-0.101-0.54-0.149-1.481-0.149-2.825c0-1.343,0.049-2.284,0.149-2.824c0.177-1.017,0.577-1.846,1.205-2.485
		c0.979-1.004,2.229-1.507,3.747-1.507c1.507,0,2.756,0.503,3.748,1.507c0.627,0.64,1.027,1.469,1.205,2.485
		C150.009,18.342,150.061,19.284,150.061,20.614z M146.764,19.56c0-1.884-0.603-2.825-1.808-2.825c-0.74,0-1.255,0.333-1.544,0.998
		c-0.176,0.452-0.264,1.111-0.264,1.978c0,0.126-0.006,0.364-0.02,0.716c-0.013,0.352-0.02,0.628-0.02,0.828
		c0,2.159,0.615,3.239,1.846,3.239c0.74,0,1.256-0.346,1.545-1.036c0.175-0.439,0.264-1.099,0.264-1.978V19.56L146.764,19.56z"/>
	<path fill="#F1F1F1" d="M162.036,18.223c0,1.28-0.44,2.319-1.318,3.116c-0.879,0.797-1.965,1.195-3.258,1.195h-2.015v4.783h-3.297
		V13.911h5.312c1.293,0,2.373,0.39,3.239,1.167C161.59,15.894,162.036,16.942,162.036,18.223z M158.74,18.223
		c0-0.39-0.139-0.713-0.414-0.97c-0.276-0.258-0.615-0.387-1.018-0.387h-1.863v2.712h1.863c0.401,0,0.74-0.129,1.018-0.386
		C158.604,18.935,158.74,18.612,158.74,18.223z"/>
</g>
</svg>
