<?xml version="1.0" encoding="utf-8"?>
<!-- Generator: Adobe Illustrator 16.0.0, SVG Export Plug-In . SVG Version: 6.00 Build 0)  -->
<svg version="1.2" baseProfile="tiny" id="Layer_1" xmlns="http://www.w3.org/2000/svg" xmlns:xlink="http://www.w3.org/1999/xlink"
	 x="0px" y="0px" width="450px" height="600px" viewBox="0 0 450 600" xml:space="preserve">
<g style="opacity: 0.15;">
	<path fill="#FFFFFF" d="M144.477,152.762c0,0.023,0,0.045,0,0.068v-0.143C144.477,152.713,144.477,152.736,144.477,152.762z"/>
	<path fill="#FFFFFF" d="M297.238,158.281"/>
	<path fill="#FFFFFF" d="M450,447.239c0-0.025,0-0.048,0-0.072v0.144C450,447.284,450,447.263,450,447.239z"/>
	<path fill="#FFFFFF" d="M427.063,600h16.451c2.207-2.113,4.371-4.275,6.485-6.484v-16.447
		C442.981,585.316,435.311,592.983,427.063,600z"/>
	<path fill="#FFFFFF" d="M144.477,524.298v22.069c13.934,21.4,32.229,39.695,53.626,53.633h22.073
		C187.584,583.493,160.976,556.885,144.477,524.298z"/>
	<path fill="#FFFFFF" d="M374.31,600h22.063c21.387-13.932,39.691-32.232,53.627-53.621v-22.065
		C433.491,556.891,406.883,583.495,374.31,600z"/>
	<path fill="#FFFFFF" d="M144.477,577.062v16.445c2.113,2.211,4.277,4.375,6.492,6.492h16.44
		C159.164,592.979,151.494,585.312,144.477,577.062z"/>
	<rect x="149.997" y="447.239" fill="#FFFFFF" width="0" height="0"/>
	<line fill="#FFFFFF" x1="144.477" y1="152.83" x2="144.477" y2="152.688"/>
	<path fill="#FFFFFF" d="M297.238,158.281"/>
	<path fill="#FFFFFF" d="M450,155.484v12.478c-14.812-8.134-30.398-14.993-46.511-20.724h29.642
		C438.84,149.838,444.471,152.576,450,155.484z"/>
	<path fill="#FFFFFF" d="M144.477,152.688v152.754h152.762v0.08c78.143,0,141.717,63.577,141.717,141.718
		c0,78.142-63.574,141.717-141.717,141.717c-78.144,0-141.719-63.575-141.719-141.717c0-1.862,0.209-3.675,0.28-5.522h-11.044
		c-0.064,1.848-0.279,3.66-0.279,5.522c0,84.231,68.529,152.761,152.762,152.761c84.209,0,152.716-68.491,152.762-152.689v-0.144
		c-0.046-84.198-68.553-152.688-152.762-152.688V294.4H155.52V152.688v0.074v-0.074V11.043H450V0H144.477V152.688"/>
	<path fill="#FFFFFF" d="M297.238,323.848H144.477v11.041h152.762v0.08c61.905,0,112.27,50.365,112.27,112.271
		s-50.364,112.27-112.27,112.27c-61.903,0-112.271-50.364-112.271-112.27c0-1.862,0.188-3.681,0.28-5.522h-11.044
		c-0.078,1.842-0.278,3.66-0.278,5.522c0,67.992,55.32,123.313,123.312,123.313c67.998,0,123.312-55.321,123.312-123.313
		c0-67.995-55.314-123.313-123.312-123.313V323.848z"/>
	<path fill="#FFFFFF" d="M297.238,353.295H144.477v11.042h152.762v0.081c45.666,0,82.821,37.154,82.821,82.821
		s-37.155,82.821-82.821,82.821c-45.67,0-82.822-37.154-82.822-82.821c0-1.862,0.156-3.689,0.277-5.522h-11.041
		c-0.107,1.838-0.281,3.66-0.281,5.522c0,51.756,42.11,93.863,93.867,93.863s93.864-42.107,93.864-93.863
		c0-51.758-42.107-93.866-93.864-93.866V353.295z"/>
	<path fill="#FFFFFF" d="M297.238,382.741H144.477v11.044h152.762v0.079c29.433,0,53.373,23.944,53.373,53.375
		c0,29.429-23.94,53.373-53.373,53.373c-29.427,0-53.376-23.944-53.376-53.373c0-1.867,0.101-3.706,0.288-5.522h-11.049
		c-0.16,1.822-0.281,3.66-0.281,5.522c0,35.519,28.902,64.417,64.418,64.417c35.521,0,64.417-28.898,64.417-64.417
		c0-35.52-28.896-64.418-64.417-64.418V382.741z"/>
	<path fill="#FFFFFF" d="M297.238,412.19H144.477v11.045h152.762v0.075c13.189,0,23.927,10.736,23.927,23.929
		s-10.737,23.926-23.927,23.926c-13.192,0-23.927-10.733-23.927-23.926c0-1.909,0.279-3.742,0.705-5.522h-11.188
		c-0.287,1.812-0.561,3.631-0.561,5.522c0,19.282,15.687,34.971,34.971,34.971c19.281,0,34.969-15.688,34.969-34.971
		s-15.688-34.97-34.969-34.97V412.19z"/>
	<path fill="#FFFFFF" d="M291.716,447.239c0,3.049,2.473,5.521,5.522,5.521c3.047,0,5.522-2.473,5.522-5.521
		c0-3.048-2.476-5.522-5.522-5.522v-0.078h-5.522v5.521V447.239z"/>
	<path fill="#FFFFFF" d="M173.926,152.688v123.307l123.312,0.014v0.066c66.667,0,124.513,38.329,152.762,94.09V348.1
		c-32.534-49.951-88.835-83.07-152.762-83.07v-0.064l-112.271-0.014V152.688v0.074v-0.074V40.489H450V29.447H173.926V152.688v0.074
		V152.688z"/>
	<path fill="#FFFFFF" d="M203.371,152.688v93.857l93.867,0.016v0.064c61.138,0,115.929,27.518,152.762,70.785v-16.447
		c-38.559-40.246-92.76-65.381-152.762-65.381v-0.064l-82.822-0.014v-82.816v0.074v-0.074v-82.75H450V58.895H203.371V152.688v0.074
		V152.688z"/>
	<path fill="#FFFFFF" d="M232.82,152.688v64.41l64.418,0.014v0.064c58.586,0,112.097,22.049,152.762,58.235v-14.562
		c-41.622-34.171-94.829-54.714-152.762-54.714v-0.064l-53.376-0.014v-53.369v0.074v-0.074V99.387H450V88.344H232.82V152.688v0.074
		V152.688z"/>
	<path fill="#FFFFFF" d="M262.268,152.688v34.963l34.971,0.008v0.072c57.075,0,109.868,18.562,152.762,49.904V224.09
		c-43.506-29.876-96.117-47.404-152.762-47.404v-0.072l-23.927-0.006v-23.92v0.074v-0.074v-23.855H450v-11.041H262.268V152.688
		v0.074V152.688z"/>
	<path fill="#FFFFFF" d="M297.238,158.209h-5.522v-5.521v0.074v-0.074v-5.449h5.522c55.761,0,107.983,15.339,152.762,41.951v12.934
		c-44.354-27.74-96.7-43.842-152.762-43.842"/>
</g>
</svg>
