<?xml version="1.0" encoding="utf-8"?>
<!-- Generator: Adobe Illustrator 16.0.0, SVG Export Plug-In . SVG Version: 6.00 Build 0)  -->
<svg version="1.2" baseProfile="tiny" id="Layer_1" xmlns="http://www.w3.org/2000/svg" xmlns:xlink="http://www.w3.org/1999/xlink"
	 x="0px" y="0px" width="450px" height="600px" viewBox="0 0 450 600" xml:space="preserve">
<g>
	<path fill="#F2F2F2" d="M95.567,162.727c0,3.916-1.079,7.128-3.234,9.636c-2.288,2.685-5.346,4.026-9.174,4.026
		c-3.872,0-6.93-1.255-9.174-3.763c-2.201-2.376-3.301-5.521-3.301-9.438c0-2.992,0.88-6.271,2.641-9.834L85.403,129h3.365
		l-10.823,21.714c1.584-0.747,3.409-1.122,5.478-1.122c3.739,0,6.732,1.277,8.977,3.828
		C94.511,155.841,95.567,158.943,95.567,162.727z M92.201,162.991c0-2.947-0.771-5.39-2.311-7.326
		c-1.672-2.067-3.938-3.102-6.798-3.102c-2.771,0-4.973,0.946-6.6,2.838c-1.629,1.893-2.442,4.422-2.442,7.59
		s0.813,5.698,2.442,7.59c1.627,1.893,3.828,2.838,6.6,2.838s4.983-0.957,6.633-2.871C91.376,168.633,92.201,166.116,92.201,162.991
		z"/>
	<path fill="#F2F2F2" d="M124.87,163.849c0,3.652-1.154,6.655-3.465,9.009c-2.31,2.354-5.27,3.531-8.877,3.531
		c-3.608,0-6.567-1.177-8.877-3.531s-3.465-5.356-3.465-9.009v-22.704c0-3.652,1.155-6.655,3.465-9.01
		c2.31-2.353,5.269-3.53,8.877-3.53c3.607,0,6.567,1.178,8.877,3.53c2.311,2.354,3.465,5.357,3.465,9.01V163.849z M121.505,163.519
		v-22.044c0-2.904-0.782-5.28-2.344-7.129c-1.562-1.848-3.773-2.771-6.633-2.771c-2.86,0-5.071,0.924-6.633,2.771
		c-1.562,1.849-2.343,4.225-2.343,7.129v22.044c0,2.903,0.769,5.236,2.31,6.996c1.584,1.937,3.806,2.903,6.666,2.903
		c2.859,0,5.082-0.967,6.666-2.903C120.734,168.755,121.505,166.422,121.505,163.519z"/>
	<path fill="#F2F2F2" d="M161.699,132.168h-24.948v19.338h21.252v3.168h-21.252v21.318h-3.564V129H161.7L161.699,132.168
		L161.699,132.168z"/>
	<path fill="#F2F2F2" d="M198.658,142.531c0,4.181-1.319,7.479-3.96,9.9c-2.64,2.42-6.05,3.63-10.229,3.63h-13.662v19.932h-3.564
		V129h17.227c4.18,0,7.59,1.211,10.229,3.63C197.339,135.051,198.658,138.351,198.658,142.531z M195.095,142.531
		c0-3.432-1.034-6.05-3.103-7.854c-1.937-1.671-4.576-2.508-7.92-2.508h-13.266v20.725h13.266c3.344,0,6.017-0.869,8.02-2.607
		C194.093,148.548,195.095,145.962,195.095,142.531z"/>
	<path fill="#F2F2F2" d="M231.591,163.367c0,3.967-1.419,7.128-4.257,9.485s-6.699,3.537-11.583,3.537
		c-6.293,0-11.507-2.068-15.642-6.204l2.508-2.509c2.067,2.069,4.092,3.51,6.072,4.323c1.979,0.814,4.399,1.221,7.26,1.221
		c3.739,0,6.688-0.856,8.844-2.573c2.155-1.716,3.234-4.093,3.234-7.128c0-2.904-0.858-5.104-2.574-6.601
		c-1.364-1.188-3.63-2.023-6.798-2.508l-5.479-0.858c-8.052-1.275-12.077-5.301-12.077-12.077c0-3.916,1.309-7.04,3.927-9.372
		c2.617-2.332,6.171-3.498,10.659-3.498c5.104,0,9.613,1.694,13.529,5.082l-2.31,2.31c-3.257-2.947-7.062-4.422-11.418-4.422
		c-3.389,0-6.051,0.87-7.986,2.611c-1.937,1.74-2.904,4.108-2.904,7.105c0,2.732,0.814,4.781,2.442,6.146
		c1.76,1.499,4.092,2.468,6.996,2.908l5.082,0.793c3.783,0.574,6.577,1.609,8.382,3.106
		C230.227,156.494,231.591,159.534,231.591,163.367z"/>
	<path fill="#F2F2F2" d="M256.539,144.577l-1.452,2.508l-7.92-4.817l0.198,9.306h-2.971l0.197-9.306l-7.92,4.817l-1.451-2.508
		l8.117-4.488l-8.117-4.487l1.451-2.509l7.92,4.818l-0.197-9.306h2.971l-0.198,9.306l7.92-4.818l1.452,2.509l-8.118,4.487
		L256.539,144.577z"/>
	<path fill="#F2F2F2" d="M100.847,220.367c0,3.967-1.419,7.128-4.257,9.485c-2.838,2.357-6.699,3.537-11.583,3.537
		c-6.293,0-11.507-2.068-15.642-6.204l2.508-2.509c2.067,2.069,4.092,3.51,6.072,4.323c1.979,0.814,4.399,1.221,7.26,1.221
		c3.739,0,6.688-0.857,8.844-2.573c2.155-1.716,3.234-4.093,3.234-7.128c0-2.904-0.858-5.104-2.574-6.601
		c-1.364-1.188-3.63-2.023-6.798-2.508l-5.479-0.858c-8.052-1.275-12.077-5.301-12.077-12.077c0-3.916,1.309-7.04,3.927-9.372
		c2.617-2.332,6.171-3.498,10.659-3.498c5.104,0,9.613,1.694,13.529,5.082l-2.31,2.31c-3.257-2.947-7.062-4.422-11.418-4.422
		c-3.389,0-6.051,0.87-7.986,2.611c-1.937,1.74-2.904,4.108-2.904,7.105c0,2.732,0.814,4.781,2.442,6.146
		c1.76,1.499,4.092,2.468,6.996,2.908l5.082,0.793c3.783,0.574,6.577,1.609,8.382,3.106
		C99.482,213.494,100.847,216.534,100.847,220.367z"/>
	<path fill="#F2F2F2" d="M146.452,232.993h-3.563V194.25l-14.256,32.143h-3.564l-14.52-32.143v38.742h-3.564V186h3.564
		l16.368,36.234L142.889,186h3.563V232.993L146.452,232.993z"/>
	<path fill="#F2F2F2" d="M185.392,209.497c0,5.94-0.198,9.923-0.594,11.946c-0.528,2.771-1.782,5.147-3.763,7.128
		c-3.212,3.212-7.128,4.818-11.748,4.818c-4.619,0-8.536-1.606-11.748-4.818c-1.979-1.98-3.233-4.356-3.762-7.128
		c-0.396-2.023-0.594-6.006-0.594-11.946c0-5.939,0.198-9.922,0.594-11.946c0.528-2.771,1.782-5.147,3.762-7.128
		c3.212-3.211,7.129-4.817,11.748-4.817c4.62,0,8.536,1.606,11.748,4.817c1.98,1.98,3.234,4.356,3.763,7.128
		C185.193,199.575,185.392,203.557,185.392,209.497z M181.827,209.497c0-5.412-0.176-9.107-0.527-11.088
		c-0.485-2.419-1.519-4.422-3.103-6.006c-2.42-2.42-5.39-3.63-8.91-3.63s-6.49,1.21-8.909,3.63
		c-1.584,1.584-2.619,3.587-3.103,6.006c-0.353,1.98-0.528,5.676-0.528,11.088s0.176,9.108,0.528,11.088
		c0.483,2.421,1.519,4.422,3.103,6.006c2.419,2.421,5.389,3.63,8.909,3.63s6.49-1.209,8.91-3.63
		c1.584-1.584,2.617-3.585,3.103-6.006C181.651,218.605,181.827,214.909,181.827,209.497z"/>
	<path fill="#F2F2F2" d="M223.803,209.497c0,5.94-0.198,9.923-0.594,11.946c-0.528,2.771-1.782,5.147-3.763,7.128
		c-3.212,3.212-7.128,4.818-11.748,4.818c-4.619,0-8.536-1.606-11.748-4.818c-1.979-1.98-3.233-4.356-3.762-7.128
		c-0.396-2.023-0.594-6.006-0.594-11.946c0-5.939,0.198-9.922,0.594-11.946c0.528-2.771,1.782-5.147,3.762-7.128
		c3.212-3.211,7.129-4.817,11.748-4.817c4.62,0,8.536,1.606,11.748,4.817c1.98,1.98,3.234,4.356,3.763,7.128
		C223.604,199.575,223.803,203.557,223.803,209.497z M220.238,209.497c0-5.412-0.176-9.107-0.527-11.088
		c-0.485-2.419-1.519-4.422-3.103-6.006c-2.42-2.42-5.39-3.63-8.91-3.63c-3.52,0-6.49,1.21-8.909,3.63
		c-1.584,1.584-2.619,3.587-3.103,6.006c-0.353,1.98-0.528,5.676-0.528,11.088s0.176,9.108,0.528,11.088
		c0.483,2.421,1.519,4.422,3.103,6.006c2.419,2.421,5.389,3.63,8.909,3.63c3.52,0,6.49-1.209,8.91-3.63
		c1.584-1.584,2.617-3.585,3.103-6.006C220.062,218.605,220.238,214.909,220.238,209.497z"/>
	<path fill="#F2F2F2" d="M255.085,189.168h-14.058v43.824h-3.564v-43.824h-13.991V186h31.613V189.168L255.085,189.168z"/>
	<path fill="#F2F2F2" d="M292.375,232.993h-3.564v-22.11h-24.484v22.11h-3.564V186h3.564v21.714h24.484V186h3.564V232.993
		L292.375,232.993z"/>
	<path fill="#F2F2F2" d="M101.771,246.168H76.823v19.338h21.252v3.168H76.823v21.318h-3.564V243h28.513L101.771,246.168
		L101.771,246.168z"/>
	<path fill="#F2F2F2" d="M135.827,289.993h-28.513V243h3.564v43.824h24.948L135.827,289.993L135.827,289.993z"/>
	<path fill="#F2F2F2" d="M144.935,289.993h-3.564V243h3.564V289.993z"/>
	<path fill="#F2F2F2" d="M184.93,256.531c0,4.181-1.319,7.48-3.96,9.9c-2.64,2.42-6.05,3.63-10.229,3.63h-13.662v19.932h-3.564V243
		h17.227c4.18,0,7.59,1.211,10.229,3.63C183.61,249.051,184.93,252.351,184.93,256.531z M181.366,256.531
		c0-3.432-1.034-6.05-3.103-7.854c-1.937-1.671-4.576-2.508-7.92-2.508h-13.266v20.725h13.266c3.344,0,6.017-0.869,8.02-2.607
		C180.364,262.548,181.366,259.962,181.366,256.531z"/>
	<path fill="#F2F2F2" d="M104.741,346.992h-3.828l-4.092-11.418H74.909l-4.092,11.418h-3.828L84.281,300h3.168L104.741,346.992z
		 M95.699,332.406l-9.834-27.654l-9.834,27.654H95.699z"/>
	<path fill="#F2F2F2" d="M144.34,346.992h-3.563l-27.126-40.854v40.854h-3.564V300h3.564l27.126,40.723V300h3.563V346.992z"/>
	<path fill="#F2F2F2" d="M156.484,346.992h-3.564V300h3.564V346.992z"/>
	<path fill="#F2F2F2" d="M204.531,346.992h-3.563V308.25l-14.256,32.143h-3.564l-14.52-32.143v38.742h-3.564V300h3.564
		l16.368,36.234L200.968,300h3.563V346.992z"/>
	<path fill="#F2F2F2" d="M244.592,346.992h-3.828l-4.092-11.418H214.76l-4.092,11.418h-3.828L224.132,300h3.168L244.592,346.992z
		 M235.55,332.406l-9.834-27.654l-9.834,27.654H235.55z"/>
	<path fill="#F2F2F2" d="M269.209,303.168H255.15v43.824h-3.563v-43.824h-13.991V300h31.613V303.168z"/>
	<path fill="#F2F2F2" d="M278.449,346.992h-3.564V300h3.564V346.992z"/>
	<path fill="#F2F2F2" d="M317.389,323.496c0,5.941-0.197,9.924-0.594,11.947c-0.528,2.771-1.782,5.146-3.763,7.127
		c-3.212,3.213-7.128,4.818-11.748,4.818c-4.619,0-8.536-1.605-11.748-4.818c-1.979-1.98-3.233-4.355-3.763-7.127
		c-0.396-2.023-0.594-6.006-0.594-11.947c0-5.939,0.198-9.922,0.594-11.945c0.529-2.771,1.783-5.148,3.763-7.129
		c3.212-3.211,7.129-4.817,11.748-4.817c4.62,0,8.536,1.606,11.748,4.817c1.979,1.98,3.233,4.357,3.763,7.129
		C317.19,313.574,317.389,317.557,317.389,323.496z M313.824,323.496c0-5.412-0.176-9.107-0.527-11.088
		c-0.484-2.418-1.519-4.422-3.103-6.006c-2.42-2.42-5.391-3.629-8.91-3.629c-3.521,0-6.49,1.209-8.909,3.629
		c-1.584,1.584-2.619,3.588-3.104,6.006c-0.353,1.98-0.527,5.676-0.527,11.088s0.176,9.109,0.527,11.088
		c0.483,2.422,1.52,4.422,3.104,6.006c2.419,2.422,5.389,3.631,8.909,3.631c3.52,0,6.49-1.209,8.91-3.631
		c1.584-1.584,2.616-3.584,3.103-6.006C313.648,332.605,313.824,328.908,313.824,323.496z"/>
	<path fill="#F2F2F2" d="M359.693,346.992h-3.563l-27.126-40.854v40.854h-3.563V300h3.563l27.126,40.723V300h3.563V346.992z"/>
</g>
</svg>
