<?xml version="1.0" encoding="utf-8"?>
<!-- Generator: Adobe Illustrator 16.0.0, SVG Export Plug-In . SVG Version: 6.00 Build 0)  -->
<svg version="1.2" baseProfile="tiny" id="Layer_1" xmlns="http://www.w3.org/2000/svg" xmlns:xlink="http://www.w3.org/1999/xlink"
	 x="0px" y="0px" width="450px" height="600px" viewBox="0 0 450 600" xml:space="preserve">
<g>
	<path fill="#F1F1F1" d="M89.232,312.91c0,2.645-0.946,4.752-2.839,6.323c-1.892,1.572-4.466,2.357-7.722,2.357
		c-4.195,0-7.671-1.378-10.428-4.136l1.672-1.672c1.379,1.379,2.728,2.34,4.048,2.882c1.32,0.543,2.933,0.814,4.84,0.814
		c2.493,0,4.459-0.572,5.896-1.717c1.437-1.144,2.156-2.728,2.156-4.752c0-1.936-0.572-3.402-1.717-4.399
		c-0.909-0.792-2.42-1.349-4.531-1.672l-3.652-0.572c-5.368-0.851-8.052-3.534-8.052-8.052c0-2.61,0.872-4.693,2.618-6.248
		c1.744-1.555,4.113-2.332,7.105-2.332c3.402,0,6.409,1.129,9.021,3.388l-1.54,1.54c-2.172-1.965-4.708-2.948-7.612-2.948
		c-2.259,0-4.033,0.58-5.324,1.741c-1.291,1.16-1.936,2.739-1.936,4.736c0,1.822,0.542,3.188,1.628,4.099
		c1.173,0.999,2.728,1.646,4.664,1.938l3.388,0.529c2.522,0.382,4.385,1.072,5.588,2.07
		C88.322,308.328,89.232,310.354,89.232,312.91z"/>
	<path fill="#F1F1F1" d="M119.637,321.327h-2.376v-25.828l-9.504,21.428h-2.376L95.7,295.499v25.828h-2.376v-31.328H95.7
		l10.912,24.156l10.648-24.156h2.376V321.327z"/>
	<path fill="#F1F1F1" d="M146.344,321.327h-2.552l-2.729-7.612h-14.607l-2.729,7.612h-2.552l11.528-31.328h2.111L146.344,321.327z
		 M140.315,311.604l-6.556-18.437l-6.556,18.437H140.315z"/>
	<path fill="#F1F1F1" d="M171.159,321.327h-2.771l-7.48-14.432h-8.624v14.432h-2.376v-31.328h11.924c2.641,0,4.781,0.72,6.425,2.156
		c1.7,1.525,2.552,3.607,2.552,6.248c0,2.288-0.646,4.173-1.937,5.654s-3.051,2.413-5.279,2.794L171.159,321.327z M168.432,298.447
		c0-2.083-0.646-3.681-1.937-4.796c-1.231-1.026-2.89-1.54-4.972-1.54h-9.24v12.672h9.24c2.082,0,3.754-0.535,5.016-1.606
		C167.8,302.106,168.432,300.53,168.432,298.447z"/>
	<path fill="#F1F1F1" d="M192.895,292.111h-9.372v29.216h-2.376v-29.216h-9.328v-2.112h21.076V292.111z"/>
	<path fill="#F1F1F1" d="M91.784,339.02c0,2.787-0.88,4.986-2.641,6.6c-1.76,1.613-4.033,2.42-6.819,2.42h-9.108v13.288H70.84
		v-31.328h11.484c2.786,0,5.06,0.808,6.819,2.42C90.904,334.032,91.784,336.232,91.784,339.02z M89.408,339.02
		c0-2.288-0.689-4.033-2.068-5.236c-1.291-1.114-3.051-1.672-5.28-1.672h-8.844v13.815h8.844c2.229,0,4.012-0.578,5.347-1.737
		C88.74,343.03,89.408,341.308,89.408,339.02z"/>
	<path fill="#F1F1F1" d="M116.601,361.327h-2.771l-7.48-14.432h-8.624v14.432h-2.376v-31.328h11.924c2.641,0,4.781,0.72,6.425,2.156
		c1.7,1.525,2.552,3.607,2.552,6.248c0,2.288-0.646,4.173-1.937,5.654s-3.051,2.413-5.279,2.794L116.601,361.327z M113.873,338.447
		c0-2.083-0.646-3.681-1.937-4.796c-1.231-1.026-2.89-1.54-4.972-1.54h-9.24v12.672h9.24c2.082,0,3.754-0.535,5.016-1.606
		C113.241,342.106,113.873,340.53,113.873,338.447z"/>
	<path fill="#F1F1F1" d="M140.447,361.327h-19.008v-31.328h19.008v2.112h-16.632v12.364h14.168v2.111h-14.168v12.628h16.632V361.327
		z"/>
	<path fill="#F1F1F1" d="M163.151,361.327h-19.008v-31.328h2.376v29.216h16.632V361.327z"/>
	<path fill="#F1F1F1" d="M184.491,345.663c0,3.96-0.132,6.615-0.396,7.964c-0.352,1.849-1.188,3.433-2.508,4.752
		c-2.142,2.142-4.752,3.212-7.832,3.212s-5.69-1.07-7.832-3.212c-1.319-1.319-2.155-2.903-2.508-4.752
		c-0.264-1.349-0.396-4.004-0.396-7.964s0.132-6.614,0.396-7.964c0.353-1.848,1.188-3.432,2.508-4.752
		c2.142-2.141,4.752-3.212,7.832-3.212s5.69,1.071,7.832,3.212c1.32,1.32,2.156,2.904,2.508,4.752
		C184.359,339.049,184.491,341.703,184.491,345.663z M182.115,345.663c0-3.608-0.117-6.072-0.353-7.392
		c-0.322-1.613-1.012-2.948-2.067-4.004c-1.613-1.613-3.594-2.421-5.94-2.421s-4.327,0.808-5.939,2.421
		c-1.057,1.056-1.746,2.391-2.068,4.004c-0.235,1.319-0.352,3.783-0.352,7.392s0.116,6.072,0.352,7.392
		c0.322,1.614,1.012,2.948,2.068,4.005c1.612,1.613,3.593,2.42,5.939,2.42s4.327-0.807,5.94-2.42
		c1.056-1.057,1.745-2.391,2.067-4.005C181.998,351.735,182.115,349.271,182.115,345.663z"/>
	<path fill="#F1F1F1" d="M210.188,361.327h-2.552l-2.729-7.612H190.3l-2.729,7.612h-2.552l11.528-31.328h2.111L210.188,361.327z
		 M204.159,351.604l-6.556-18.437l-6.556,18.437H204.159z"/>
	<path fill="#F1F1F1" d="M235.134,345.224c0,3.227-0.117,5.573-0.352,7.039c-0.411,2.758-1.306,4.826-2.684,6.204
		c-1.907,1.907-4.518,2.86-7.832,2.86H213.75v-31.328h10.517c3.314,0,5.925,0.954,7.832,2.86c1.378,1.379,2.272,3.3,2.684,5.764
		C235.017,339.943,235.134,342.144,235.134,345.224z M232.758,345.224c0-2.729-0.073-4.62-0.22-5.677
		c-0.323-2.229-1.027-3.9-2.112-5.016c-1.584-1.613-3.827-2.42-6.731-2.42h-7.568v27.104h7.568c2.904,0,5.147-0.806,6.731-2.42
		c1.085-1.114,1.789-2.933,2.112-5.456C232.685,350.137,232.758,348.099,232.758,345.224z"/>
	<path fill="#F1F1F1" d="M242.878,361.327h-2.376v-31.328h2.376V361.327z"/>
	<path fill="#F1F1F1" d="M271.434,361.327h-2.376l-18.084-27.236v27.236h-2.376v-31.328h2.376l18.084,27.148v-27.148h2.376V361.327z
		"/>
	<path fill="#F1F1F1" d="M297.438,350.415c0,3.197-0.852,5.72-2.552,7.568c-2.2,2.405-4.943,3.607-8.229,3.607
		c-3.08,0-5.69-1.07-7.832-3.212c-1.319-1.319-2.155-2.903-2.508-4.752c-0.264-1.349-0.396-4.004-0.396-7.964
		s0.132-6.614,0.397-7.964c0.353-1.848,1.192-3.432,2.518-4.752c2.15-2.141,4.772-3.212,7.864-3.212
		c2.769,0,5.133,0.836,7.091,2.508c1.959,1.672,3.174,3.887,3.646,6.644h-2.387c-0.472-2.17-1.452-3.886-2.94-5.147
		c-1.488-1.261-3.293-1.893-5.414-1.893c-2.357,0-4.347,0.808-5.968,2.421c-1.061,1.056-1.753,2.391-2.078,4.004
		c-0.235,1.319-0.353,3.783-0.353,7.392s0.116,6.072,0.352,7.392c0.322,1.614,1.012,2.948,2.068,4.005
		c1.612,1.613,3.593,2.42,5.939,2.42c2.669,0,4.84-1.013,6.513-3.036c1.261-1.525,1.892-3.593,1.892-6.204v-2.816h-8.404v-2.111
		h10.78V350.415z"/>
	<path fill="#F1F1F1" d="M337.301,361.327h-3.036l-3.036-3.696c-2.728,2.641-5.939,3.96-9.636,3.96c-2.875,0-5.214-0.82-7.018-2.464
		c-1.805-1.643-2.706-3.798-2.706-6.468c0-2.2,0.732-4.136,2.2-5.808c0.88-0.997,2.536-2.303,4.972-3.916
		c-2.317-2.757-3.477-5.075-3.477-6.952c0-1.76,0.616-3.241,1.849-4.444c1.231-1.202,2.742-1.804,4.532-1.804
		c1.788,0,3.3,0.609,4.531,1.826c1.232,1.217,1.849,2.706,1.849,4.466c0,2.111-1.203,3.989-3.608,5.632
		c-0.528,0.352-1.306,0.88-2.332,1.584l8.977,10.868c0.703-1.085,1.188-2.163,1.451-3.234c0.265-1.07,0.396-2.588,0.396-4.554h2.332
		c0,4.136-0.91,7.319-2.729,9.548L337.301,361.327z M329.909,356.003l-9.504-11.483c-2.142,1.467-3.535,2.552-4.181,3.256
		c-1.319,1.379-1.979,2.963-1.979,4.752c0,2.054,0.674,3.726,2.023,5.016c1.35,1.291,3.109,1.937,5.28,1.937
		C324.512,359.479,327.298,358.32,329.909,356.003z M325.993,336.027c0-1.173-0.39-2.163-1.166-2.97
		c-0.778-0.807-1.738-1.211-2.882-1.211c-1.145,0-2.098,0.382-2.86,1.145c-0.764,0.763-1.145,1.731-1.145,2.904
		c0,1.35,1.027,3.271,3.08,5.764c0.353-0.234,0.953-0.645,1.805-1.232C324.937,338.99,325.993,337.523,325.993,336.027z"/>
	<path fill="#F1F1F1" d="M91.872,391.163c0,3.051-1.005,5.552-3.014,7.502c-2.01,1.951-4.584,2.926-7.723,2.926
		s-5.713-0.975-7.722-2.926c-2.01-1.95-3.014-4.451-3.014-7.502v-21.164h2.376v20.856c0,2.581,0.762,4.664,2.288,6.248
		c1.524,1.584,3.549,2.376,6.071,2.376s4.547-0.792,6.072-2.376c1.524-1.584,2.288-3.667,2.288-6.248v-20.856h2.376V391.163z"/>
	<path fill="#F1F1F1" d="M120.076,401.327H117.7l-18.084-27.236v27.236H97.24v-31.328h2.376l18.084,27.148v-27.148h2.376V401.327z"
		/>
	<path fill="#F1F1F1" d="M144.803,401.327h-19.008v-31.328h2.376v29.216h16.632V401.327z"/>
	<path fill="#F1F1F1" d="M166.144,385.663c0,3.96-0.132,6.615-0.396,7.964c-0.352,1.849-1.188,3.433-2.508,4.752
		c-2.142,2.142-4.752,3.212-7.832,3.212s-5.69-1.07-7.832-3.212c-1.319-1.319-2.155-2.903-2.508-4.752
		c-0.264-1.349-0.396-4.004-0.396-7.964s0.132-6.614,0.396-7.964c0.353-1.848,1.188-3.432,2.508-4.752
		c2.142-2.141,4.752-3.212,7.832-3.212s5.69,1.071,7.832,3.212c1.32,1.32,2.156,2.904,2.508,4.752
		C166.012,379.049,166.144,381.703,166.144,385.663z M163.768,385.663c0-3.608-0.117-6.072-0.353-7.392
		c-0.322-1.613-1.012-2.948-2.067-4.004c-1.613-1.613-3.594-2.421-5.94-2.421s-4.327,0.808-5.939,2.421
		c-1.057,1.056-1.746,2.391-2.068,4.004c-0.235,1.319-0.352,3.783-0.352,7.392s0.116,6.072,0.352,7.392
		c0.322,1.614,1.012,2.948,2.068,4.005c1.612,1.613,3.593,2.42,5.939,2.42s4.327-0.807,5.94-2.42
		c1.056-1.057,1.745-2.391,2.067-4.005C163.65,391.735,163.768,389.271,163.768,385.663z"/>
	<path fill="#F1F1F1" d="M191.839,401.327h-2.552l-2.729-7.612h-14.607l-2.729,7.612h-2.552l11.528-31.328h2.111L191.839,401.327z
		 M185.811,391.604l-6.556-18.437l-6.556,18.437H185.811z"/>
	<path fill="#F1F1F1" d="M216.786,385.224c0,3.227-0.117,5.573-0.352,7.039c-0.411,2.758-1.306,4.826-2.684,6.204
		c-1.907,1.907-4.518,2.86-7.832,2.86h-10.517v-31.328h10.517c3.314,0,5.925,0.954,7.832,2.86c1.378,1.379,2.272,3.3,2.684,5.764
		C216.669,379.943,216.786,382.144,216.786,385.224z M214.41,385.224c0-2.729-0.073-4.62-0.22-5.677
		c-0.323-2.229-1.027-3.9-2.112-5.016c-1.584-1.613-3.827-2.42-6.731-2.42h-7.568v27.104h7.568c2.904,0,5.147-0.806,6.731-2.42
		c1.085-1.114,1.789-2.933,2.112-5.456C214.337,390.137,214.41,388.099,214.41,385.224z"/>
	<path fill="#F1F1F1" d="M224.529,401.327h-2.376v-31.328h2.376V401.327z"/>
	<path fill="#F1F1F1" d="M253.086,401.327h-2.376l-18.084-27.236v27.236h-2.376v-31.328h2.376l18.084,27.148v-27.148h2.376V401.327z
		"/>
	<path fill="#F1F1F1" d="M279.089,390.415c0,3.197-0.852,5.72-2.552,7.568c-2.2,2.405-4.943,3.607-8.229,3.607
		c-3.08,0-5.69-1.07-7.832-3.212c-1.319-1.319-2.155-2.903-2.508-4.752c-0.264-1.349-0.396-4.004-0.396-7.964
		s0.132-6.614,0.397-7.964c0.353-1.848,1.192-3.432,2.518-4.752c2.15-2.141,4.772-3.212,7.864-3.212
		c2.769,0,5.133,0.836,7.091,2.508c1.959,1.672,3.174,3.887,3.646,6.644h-2.387c-0.472-2.17-1.452-3.886-2.94-5.147
		c-1.488-1.261-3.293-1.893-5.414-1.893c-2.357,0-4.347,0.808-5.968,2.421c-1.061,1.056-1.753,2.391-2.078,4.004
		c-0.235,1.319-0.353,3.783-0.353,7.392s0.116,6.072,0.352,7.392c0.322,1.614,1.012,2.948,2.068,4.005
		c1.612,1.613,3.593,2.42,5.939,2.42c2.669,0,4.84-1.013,6.513-3.036c1.261-1.525,1.892-3.593,1.892-6.204v-2.816h-8.404v-2.111
		h10.78V390.415z"/>
</g>
<g>
	<g>
		<rect x="68" y="86.178" fill="#00b7f0" width="101.865" height="135.822"/>
		<g>
			<polyline fill="none" stroke="#F2F2F2" stroke-miterlimit="10" points="169.865,90.178 169.865,86.178 165.865,86.178 			"/>
			
				<line fill="none" stroke="#F2F2F2" stroke-miterlimit="10" stroke-dasharray="8.5332,8.5332" x1="157.332" y1="86.178" x2="76.267" y2="86.178"/>
			<polyline fill="none" stroke="#F2F2F2" stroke-miterlimit="10" points="72,86.178 68,86.178 68,90.178 			"/>
			
				<line fill="none" stroke="#F2F2F2" stroke-miterlimit="10" stroke-dasharray="7.519,7.519" x1="68" y1="97.697" x2="68" y2="214.241"/>
			<polyline fill="none" stroke="#F2F2F2" stroke-miterlimit="10" points="68,218 68,222 72,222 			"/>
			
				<line fill="none" stroke="#F2F2F2" stroke-miterlimit="10" stroke-dasharray="8.5332,8.5332" x1="80.533" y1="222" x2="161.599" y2="222"/>
			<polyline fill="none" stroke="#F2F2F2" stroke-miterlimit="10" points="165.865,222 169.865,222 169.865,218 			"/>
			
				<line fill="none" stroke="#F2F2F2" stroke-miterlimit="10" stroke-dasharray="7.519,7.519" x1="169.865" y1="210.481" x2="169.865" y2="93.937"/>
		</g>
	</g>
	<g>
		<rect x="222.865" y="86" fill="#00b7f0" width="101.865" height="135.822"/>
		<g>
			<polyline fill="none" stroke="#F2F2F2" stroke-miterlimit="10" points="222.865,90 222.865,86 226.865,86 			"/>
			
				<line fill="none" stroke="#F2F2F2" stroke-miterlimit="10" stroke-dasharray="8.5332,8.5332" x1="235.398" y1="86" x2="316.464" y2="86"/>
			<polyline fill="none" stroke="#F2F2F2" stroke-miterlimit="10" points="320.73,86 324.73,86 324.73,90 			"/>
			
				<line fill="none" stroke="#F2F2F2" stroke-miterlimit="10" stroke-dasharray="7.519,7.519" x1="324.73" y1="97.519" x2="324.73" y2="214.063"/>
			<polyline fill="none" stroke="#F2F2F2" stroke-miterlimit="10" points="324.73,217.822 324.73,221.822 320.73,221.822 			"/>
			
				<line fill="none" stroke="#F2F2F2" stroke-miterlimit="10" stroke-dasharray="8.5332,8.5332" x1="312.197" y1="221.822" x2="231.132" y2="221.822"/>
			<polyline fill="none" stroke="#F2F2F2" stroke-miterlimit="10" points="226.865,221.822 222.865,221.822 222.865,217.822 			"/>
			
				<line fill="none" stroke="#F2F2F2" stroke-miterlimit="10" stroke-dasharray="7.519,7.519" x1="222.865" y1="210.303" x2="222.865" y2="93.759"/>
		</g>
	</g>
	<rect x="77" y="95.178" fill="#00b7f0" stroke="#F2F2F2" stroke-miterlimit="10" width="101.865" height="135.822"/>
	<rect x="213.865" y="95" fill="#00b7f0" stroke="#F2F2F2" stroke-miterlimit="10" width="101.865" height="135.822"/>
	<rect x="86" y="104.178" fill="#00b7f0" stroke="#F2F2F2" stroke-miterlimit="10" width="101.865" height="135.822"/>
	<rect x="204.865" y="104" fill="#00b7f0" stroke="#F2F2F2" stroke-miterlimit="10" width="101.865" height="135.822"/>
	<rect x="94.865" y="113.178" fill="#00b7f0" stroke="#F2F2F2" stroke-miterlimit="10" width="101.865" height="135.822"/>
	<rect x="196" y="113.178" fill="#00b7f0" stroke="#F2F2F2" stroke-miterlimit="10" width="101.865" height="135.822"/>
</g>
</svg>
