<?xml version="1.0" encoding="utf-8"?>
<!-- Generator: Adobe Illustrator 16.0.0, SVG Export Plug-In . SVG Version: 6.00 Build 0)  -->
<svg version="1.2" baseProfile="tiny" id="Layer_1" xmlns="http://www.w3.org/2000/svg" xmlns:xlink="http://www.w3.org/1999/xlink"
	 x="0px" y="0px" width="450px" height="600px" viewBox="0 0 450 600" xml:space="preserve">
<g>
	<path fill="#F1F1F1" d="M97.152,153.327h-2.376v-25.828l-9.504,21.428h-2.376l-9.681-21.428v25.828H70.84v-31.328h2.376
		l10.912,24.156l10.648-24.156h2.376V153.327z"/>
	<path fill="#F1F1F1" d="M123.112,137.663c0,3.96-0.132,6.615-0.396,7.964c-0.352,1.849-1.188,3.433-2.508,4.752
		c-2.142,2.142-4.752,3.212-7.832,3.212s-5.69-1.07-7.832-3.212c-1.319-1.319-2.155-2.903-2.508-4.752
		c-0.264-1.349-0.396-4.004-0.396-7.964s0.132-6.614,0.396-7.964c0.353-1.848,1.188-3.432,2.508-4.752
		c2.142-2.141,4.752-3.212,7.832-3.212s5.69,1.071,7.832,3.212c1.32,1.32,2.156,2.904,2.508,4.752
		C122.98,131.049,123.112,133.703,123.112,137.663z M120.736,137.663c0-3.608-0.117-6.072-0.353-7.392
		c-0.322-1.613-1.012-2.948-2.067-4.004c-1.613-1.613-3.594-2.421-5.94-2.421s-4.327,0.808-5.939,2.421
		c-1.057,1.056-1.746,2.391-2.068,4.004c-0.235,1.319-0.352,3.783-0.352,7.392s0.116,6.072,0.352,7.392
		c0.322,1.614,1.012,2.948,2.068,4.005c1.612,1.613,3.593,2.42,5.939,2.42s4.327-0.807,5.94-2.42
		c1.056-1.057,1.745-2.391,2.067-4.005C120.619,143.735,120.736,141.271,120.736,137.663z"/>
	<path fill="#F1F1F1" d="M149.731,153.327h-2.771l-7.48-14.432h-8.624v14.432h-2.376v-31.328h11.924c2.641,0,4.781,0.72,6.425,2.156
		c1.7,1.525,2.552,3.607,2.552,6.248c0,2.288-0.646,4.173-1.937,5.654s-3.051,2.413-5.279,2.794L149.731,153.327z M147.004,130.447
		c0-2.083-0.646-3.681-1.937-4.796c-1.231-1.026-2.89-1.54-4.972-1.54h-9.24v12.672h9.24c2.082,0,3.754-0.535,5.016-1.606
		C146.372,134.106,147.004,132.53,147.004,130.447z"/>
	<path fill="#F1F1F1" d="M173.579,153.327h-19.008v-31.328h19.008v2.112h-16.632v12.364h14.168v2.111h-14.168v12.628h16.632V153.327
		z"/>
	<path fill="#F1F1F1" d="M205.743,124.111h-9.372v29.216h-2.376v-29.216h-9.328v-2.112h21.076V124.111z"/>
	<path fill="#F1F1F1" d="M230.602,153.327h-2.376v-14.74h-16.324v14.74h-2.376v-31.328h2.376v14.477h16.324v-14.477h2.376V153.327z"
		/>
	<path fill="#F1F1F1" d="M257.311,153.327h-2.552l-2.729-7.612h-14.607l-2.729,7.612h-2.552l11.528-31.328h2.111L257.311,153.327z
		 M251.282,143.604l-6.556-18.437l-6.556,18.437H251.282z"/>
	<path fill="#F1F1F1" d="M283.709,153.327h-2.376l-18.084-27.236v27.236h-2.376v-31.328h2.376l18.084,27.148v-27.148h2.376V153.327z
		"/>
	<path fill="#F1F1F1" d="M315.213,144.483c0,2.611-0.719,4.752-2.156,6.424c-1.525,1.789-3.563,2.684-6.115,2.684
		c-2.582,0-4.62-0.836-6.116-2.508c-1.468-1.584-2.2-3.681-2.2-6.292c0-1.994,0.586-4.18,1.76-6.556l8.052-16.236h2.244
		l-7.216,14.477c1.056-0.499,2.273-0.748,3.652-0.748c2.492,0,4.487,0.851,5.983,2.552
		C314.509,139.893,315.213,141.961,315.213,144.483z M312.969,144.659c0-1.965-0.514-3.593-1.54-4.884
		c-1.115-1.379-2.625-2.068-4.531-2.068c-1.849,0-3.315,0.631-4.4,1.893c-1.086,1.261-1.628,2.947-1.628,5.06
		s0.542,3.799,1.628,5.06c1.085,1.262,2.552,1.893,4.4,1.893c1.848,0,3.321-0.638,4.422-1.914
		C312.419,148.421,312.969,146.742,312.969,144.659z"/>
	<path fill="#F1F1F1" d="M334.748,145.231c0,2.435-0.771,4.437-2.311,6.006s-3.513,2.354-5.918,2.354s-4.378-0.784-5.918-2.354
		s-2.31-3.571-2.31-6.006v-15.137c0-2.434,0.77-4.436,2.31-6.006c1.54-1.568,3.513-2.354,5.918-2.354s4.378,0.785,5.918,2.354
		c1.54,1.57,2.311,3.572,2.311,6.006V145.231z M332.504,145.011v-14.695c0-1.937-0.521-3.521-1.562-4.752
		c-1.042-1.232-2.516-1.849-4.423-1.849s-3.381,0.616-4.422,1.849c-1.041,1.231-1.562,2.815-1.562,4.752v14.695
		c0,1.937,0.513,3.491,1.54,4.664c1.056,1.291,2.536,1.937,4.443,1.937s3.389-0.646,4.444-1.937
		C331.99,148.502,332.504,146.947,332.504,145.011z"/>
	<path fill="#F1F1F1" d="M90.992,184.439c-0.499,2.815-1.709,5.045-3.63,6.688c-1.922,1.644-4.262,2.464-7.019,2.464
		c-3.08,0-5.69-1.07-7.832-3.212c-1.319-1.319-2.155-2.903-2.508-4.752c-0.264-1.349-0.396-4.004-0.396-7.964
		s0.132-6.614,0.396-7.964c0.353-1.848,1.188-3.432,2.508-4.752c2.142-2.141,4.752-3.212,7.832-3.212
		c2.787,0,5.133,0.813,7.04,2.441c1.906,1.628,3.109,3.865,3.608,6.71h-2.42c-0.47-2.17-1.431-3.886-2.882-5.147
		c-1.452-1.261-3.234-1.893-5.347-1.893c-2.347,0-4.327,0.808-5.939,2.421c-1.057,1.056-1.746,2.391-2.068,4.004
		c-0.235,1.319-0.352,3.783-0.352,7.392s0.116,6.072,0.352,7.392c0.322,1.614,1.012,2.948,2.068,4.005
		c1.612,1.613,3.593,2.42,5.939,2.42c2.112,0,3.908-0.631,5.391-1.893c1.48-1.261,2.456-2.977,2.926-5.147H90.992z"/>
	<path fill="#F1F1F1" d="M114.841,177.663c0,3.96-0.132,6.615-0.396,7.964c-0.352,1.849-1.188,3.433-2.508,4.752
		c-2.142,2.142-4.752,3.212-7.832,3.212s-5.69-1.07-7.832-3.212c-1.319-1.319-2.155-2.903-2.508-4.752
		c-0.264-1.349-0.396-4.004-0.396-7.964s0.132-6.614,0.396-7.964c0.353-1.848,1.188-3.432,2.508-4.752
		c2.142-2.141,4.752-3.212,7.832-3.212s5.69,1.071,7.832,3.212c1.32,1.32,2.156,2.904,2.508,4.752
		C114.709,171.049,114.841,173.703,114.841,177.663z M112.465,177.663c0-3.608-0.117-6.072-0.353-7.392
		c-0.322-1.613-1.012-2.948-2.067-4.004c-1.613-1.613-3.594-2.421-5.94-2.421s-4.327,0.808-5.939,2.421
		c-1.057,1.056-1.746,2.391-2.068,4.004c-0.235,1.319-0.352,3.783-0.352,7.392s0.116,6.072,0.352,7.392
		c0.322,1.614,1.012,2.948,2.068,4.005c1.612,1.613,3.593,2.42,5.939,2.42s4.327-0.807,5.94-2.42
		c1.056-1.057,1.745-2.391,2.067-4.005C112.348,183.735,112.465,181.271,112.465,177.663z"/>
	<path fill="#F1F1F1" d="M143.044,193.327h-2.376l-18.084-27.236v27.236h-2.376v-31.328h2.376l18.084,27.148v-27.148h2.376V193.327z
		"/>
	<path fill="#F1F1F1" d="M167.771,164.111H151.14v12.892h14.168v2.112H151.14v14.212h-2.376v-31.328h19.008V164.111z"/>
	<path fill="#F1F1F1" d="M173.843,193.327h-2.376v-31.328h2.376V193.327z"/>
	<path fill="#F1F1F1" d="M199.848,182.415c0,3.197-0.852,5.72-2.552,7.568c-2.2,2.405-4.943,3.607-8.229,3.607
		c-3.08,0-5.69-1.07-7.832-3.212c-1.319-1.319-2.155-2.903-2.508-4.752c-0.264-1.349-0.396-4.004-0.396-7.964
		s0.132-6.614,0.397-7.964c0.353-1.848,1.192-3.432,2.518-4.752c2.15-2.141,4.772-3.212,7.864-3.212
		c2.769,0,5.133,0.836,7.091,2.508c1.959,1.672,3.174,3.887,3.646,6.644h-2.387c-0.472-2.17-1.452-3.886-2.94-5.147
		c-1.488-1.261-3.293-1.893-5.414-1.893c-2.357,0-4.347,0.808-5.968,2.421c-1.061,1.056-1.753,2.391-2.078,4.004
		c-0.235,1.319-0.353,3.783-0.353,7.392s0.116,6.072,0.352,7.392c0.322,1.614,1.012,2.948,2.068,4.005
		c1.612,1.613,3.593,2.42,5.939,2.42c2.669,0,4.84-1.013,6.513-3.036c1.261-1.525,1.892-3.593,1.892-6.204v-2.816h-8.404v-2.111
		h10.78V182.415z"/>
	<path fill="#F1F1F1" d="M225.543,183.163c0,3.051-1.005,5.552-3.014,7.502c-2.01,1.951-4.584,2.926-7.723,2.926
		s-5.713-0.975-7.722-2.926c-2.01-1.95-3.014-4.451-3.014-7.502v-21.164h2.376v20.856c0,2.581,0.762,4.664,2.288,6.248
		c1.524,1.584,3.549,2.376,6.071,2.376s4.547-0.792,6.072-2.376c1.524-1.584,2.288-3.667,2.288-6.248v-20.856h2.376V183.163z"/>
	<path fill="#F1F1F1" d="M252.163,193.327h-2.771l-7.48-14.432h-8.624v14.432h-2.376v-31.328h11.924c2.641,0,4.781,0.72,6.425,2.156
		c1.7,1.525,2.552,3.607,2.552,6.248c0,2.288-0.646,4.173-1.937,5.654s-3.051,2.413-5.279,2.794L252.163,193.327z M249.436,170.447
		c0-2.083-0.646-3.681-1.937-4.796c-1.231-1.026-2.89-1.54-4.972-1.54h-9.24v12.672h9.24c2.082,0,3.754-0.535,5.016-1.606
		C248.804,174.106,249.436,172.53,249.436,170.447z"/>
	<path fill="#F1F1F1" d="M277.99,193.327h-2.552l-2.729-7.612h-14.607l-2.729,7.612h-2.552l11.528-31.328h2.111L277.99,193.327z
		 M271.962,183.604l-6.556-18.437l-6.556,18.437H271.962z"/>
	<path fill="#F1F1F1" d="M294.402,164.111h-9.372v29.216h-2.376v-29.216h-9.328v-2.112h21.076V164.111z"/>
	<path fill="#F1F1F1" d="M300.562,193.327h-2.376v-31.328h2.376V193.327z"/>
	<path fill="#F1F1F1" d="M326.521,177.663c0,3.96-0.132,6.615-0.396,7.964c-0.352,1.849-1.188,3.433-2.508,4.752
		c-2.142,2.142-4.752,3.212-7.832,3.212s-5.69-1.07-7.832-3.212c-1.319-1.319-2.155-2.903-2.508-4.752
		c-0.264-1.349-0.396-4.004-0.396-7.964s0.132-6.614,0.396-7.964c0.353-1.848,1.188-3.432,2.508-4.752
		c2.142-2.141,4.752-3.212,7.832-3.212s5.69,1.071,7.832,3.212c1.32,1.32,2.156,2.904,2.508,4.752
		C326.39,171.049,326.521,173.703,326.521,177.663z M324.146,177.663c0-3.608-0.117-6.072-0.353-7.392
		c-0.322-1.613-1.012-2.948-2.067-4.004c-1.613-1.613-3.594-2.421-5.94-2.421s-4.327,0.808-5.939,2.421
		c-1.057,1.056-1.746,2.391-2.068,4.004c-0.235,1.319-0.352,3.783-0.352,7.392s0.116,6.072,0.352,7.392
		c0.322,1.614,1.012,2.948,2.068,4.005c1.612,1.613,3.593,2.42,5.939,2.42s4.327-0.807,5.94-2.42
		c1.056-1.057,1.745-2.391,2.067-4.005C324.028,183.735,324.146,181.271,324.146,177.663z"/>
	<path fill="#F1F1F1" d="M354.726,193.327h-2.376l-18.084-27.236v27.236h-2.376v-31.328h2.376l18.084,27.148v-27.148h2.376V193.327z
		"/>
	<path fill="#F1F1F1" d="M91.08,217.663c0,3.96-0.132,6.615-0.396,7.964c-0.352,1.849-1.188,3.433-2.508,4.752
		c-2.142,2.142-4.752,3.212-7.832,3.212s-5.69-1.07-7.832-3.212c-1.319-1.319-2.155-2.903-2.508-4.752
		c-0.264-1.349-0.396-4.004-0.396-7.964s0.132-6.614,0.396-7.964c0.353-1.848,1.188-3.432,2.508-4.752
		c2.142-2.141,4.752-3.212,7.832-3.212s5.69,1.071,7.832,3.212c1.32,1.32,2.156,2.904,2.508,4.752
		C90.948,211.049,91.08,213.703,91.08,217.663z M88.704,217.663c0-3.608-0.117-6.072-0.353-7.392
		c-0.322-1.613-1.012-2.948-2.067-4.004c-1.613-1.613-3.594-2.421-5.94-2.421s-4.327,0.808-5.939,2.421
		c-1.057,1.056-1.746,2.391-2.068,4.004c-0.235,1.319-0.352,3.783-0.352,7.392s0.116,6.072,0.352,7.392
		c0.322,1.614,1.012,2.948,2.068,4.005c1.612,1.613,3.593,2.42,5.939,2.42s4.327-0.807,5.94-2.42
		c1.056-1.057,1.745-2.391,2.067-4.005C88.587,223.735,88.704,221.271,88.704,217.663z"/>
	<path fill="#F1F1F1" d="M117.393,211.02c0,2.787-0.88,4.986-2.641,6.6c-1.76,1.613-4.033,2.42-6.819,2.42h-9.108v13.288h-2.376
		v-31.328h11.484c2.786,0,5.06,0.808,6.819,2.42C116.513,206.032,117.393,208.232,117.393,211.02z M115.017,211.02
		c0-2.288-0.689-4.033-2.068-5.236c-1.291-1.114-3.051-1.672-5.28-1.672h-8.844v13.815h8.844c2.229,0,4.012-0.578,5.347-1.737
		C114.349,215.03,115.017,213.308,115.017,211.02z"/>
	<path fill="#F1F1F1" d="M138.513,204.111h-9.372v29.216h-2.376v-29.216h-9.328v-2.112h21.076V204.111z"/>
	<path fill="#F1F1F1" d="M144.672,233.327h-2.376v-31.328h2.376V233.327z"/>
	<path fill="#F1F1F1" d="M170.632,217.663c0,3.96-0.132,6.615-0.396,7.964c-0.352,1.849-1.188,3.433-2.508,4.752
		c-2.142,2.142-4.752,3.212-7.832,3.212s-5.69-1.07-7.832-3.212c-1.319-1.319-2.155-2.903-2.508-4.752
		c-0.264-1.349-0.396-4.004-0.396-7.964s0.132-6.614,0.396-7.964c0.353-1.848,1.188-3.432,2.508-4.752
		c2.142-2.141,4.752-3.212,7.832-3.212s5.69,1.071,7.832,3.212c1.32,1.32,2.156,2.904,2.508,4.752
		C170.5,211.049,170.632,213.703,170.632,217.663z M168.256,217.663c0-3.608-0.117-6.072-0.353-7.392
		c-0.322-1.613-1.012-2.948-2.067-4.004c-1.613-1.613-3.594-2.421-5.94-2.421s-4.327,0.808-5.939,2.421
		c-1.057,1.056-1.746,2.391-2.068,4.004c-0.235,1.319-0.352,3.783-0.352,7.392s0.116,6.072,0.352,7.392
		c0.322,1.614,1.012,2.948,2.068,4.005c1.612,1.613,3.593,2.42,5.939,2.42s4.327-0.807,5.94-2.42
		c1.056-1.057,1.745-2.391,2.067-4.005C168.139,223.735,168.256,221.271,168.256,217.663z"/>
	<path fill="#F1F1F1" d="M198.836,233.327h-2.376l-18.084-27.236v27.236H176v-31.328h2.376l18.084,27.148v-27.148h2.376V233.327z"/>
	<path fill="#F1F1F1" d="M222.947,224.91c0,2.645-0.946,4.752-2.839,6.323c-1.892,1.572-4.466,2.357-7.722,2.357
		c-4.195,0-7.671-1.378-10.428-4.136l1.672-1.672c1.379,1.379,2.728,2.34,4.048,2.882c1.32,0.543,2.933,0.814,4.84,0.814
		c2.493,0,4.459-0.572,5.896-1.717c1.437-1.144,2.156-2.728,2.156-4.752c0-1.936-0.572-3.402-1.717-4.399
		c-0.909-0.792-2.42-1.349-4.531-1.672l-3.652-0.572c-5.368-0.851-8.052-3.534-8.052-8.052c0-2.61,0.872-4.693,2.618-6.248
		c1.744-1.555,4.113-2.332,7.105-2.332c3.402,0,6.409,1.129,9.021,3.388l-1.54,1.54c-2.172-1.965-4.708-2.948-7.612-2.948
		c-2.259,0-4.033,0.58-5.324,1.741c-1.291,1.16-1.936,2.739-1.936,4.736c0,1.822,0.542,3.188,1.628,4.099
		c1.173,0.999,2.728,1.646,4.664,1.938l3.388,0.529c2.522,0.382,4.385,1.072,5.588,2.07
		C222.037,220.328,222.947,222.354,222.947,224.91z"/>
	<path fill="#F1F1F1" d="M227.215,236.319l-2.992,2.992v-8.977h2.992V236.319z"/>
	<path fill="#F1F1F1" d="M91.828,279.327h-2.552l-2.729-7.612H71.94l-2.729,7.612H66.66l11.528-31.328H80.3L91.828,279.327z
		 M85.8,269.604l-6.556-18.437l-6.556,18.437H85.8z"/>
	<path fill="#F1F1F1" d="M114.399,279.327H95.392v-31.328h2.376v29.216h16.632V279.327z"/>
	<path fill="#F1F1F1" d="M137.103,279.327h-19.008v-31.328h2.376v29.216h16.632V279.327z"/>
	<path fill="#F1F1F1" d="M169.267,250.111h-9.372v29.216h-2.376v-29.216h-9.328v-2.112h21.076V250.111z"/>
	<path fill="#F1F1F1" d="M194.126,279.327h-2.376v-14.74h-16.324v14.74h-2.376v-31.328h2.376v14.477h16.324v-14.477h2.376V279.327z"
		/>
	<path fill="#F1F1F1" d="M218.853,279.327h-19.008v-31.328h19.008v2.112h-16.632v12.364h14.168v2.111h-14.168v12.628h16.632V279.327
		z"/>
	<path fill="#F1F1F1" d="M254.404,257.02c0,2.787-0.88,4.986-2.641,6.6c-1.76,1.613-4.033,2.42-6.819,2.42h-9.108v13.288h-2.376
		v-31.328h11.484c2.786,0,5.06,0.808,6.819,2.42C253.524,252.032,254.404,254.232,254.404,257.02z M252.028,257.02
		c0-2.288-0.689-4.033-2.068-5.236c-1.291-1.114-3.051-1.672-5.28-1.672h-8.844v13.815h8.844c2.229,0,4.012-0.578,5.347-1.737
		C251.36,261.03,252.028,259.308,252.028,257.02z"/>
	<path fill="#F1F1F1" d="M278.208,263.663c0,3.96-0.132,6.615-0.396,7.964c-0.352,1.849-1.188,3.433-2.508,4.752
		c-2.142,2.142-4.752,3.212-7.832,3.212s-5.69-1.07-7.832-3.212c-1.319-1.319-2.155-2.903-2.508-4.752
		c-0.264-1.349-0.396-4.004-0.396-7.964s0.132-6.614,0.396-7.964c0.353-1.848,1.188-3.432,2.508-4.752
		c2.142-2.141,4.752-3.212,7.832-3.212s5.69,1.071,7.832,3.212c1.32,1.32,2.156,2.904,2.508,4.752
		C278.076,257.049,278.208,259.703,278.208,263.663z M275.832,263.663c0-3.608-0.117-6.072-0.353-7.392
		c-0.322-1.613-1.012-2.948-2.067-4.004c-1.613-1.613-3.594-2.421-5.94-2.421s-4.327,0.808-5.939,2.421
		c-1.057,1.056-1.746,2.391-2.068,4.004c-0.235,1.319-0.352,3.783-0.352,7.392s0.116,6.072,0.352,7.392
		c0.322,1.614,1.012,2.948,2.068,4.005c1.612,1.613,3.593,2.42,5.939,2.42s4.327-0.807,5.94-2.42
		c1.056-1.057,1.745-2.391,2.067-4.005C275.715,269.735,275.832,267.271,275.832,263.663z"/>
	<path fill="#F1F1F1" d="M314.904,247.999l-7.832,31.328h-2.42l-7.392-27.28l-7.393,27.28h-2.42l-7.832-31.328h2.508l6.601,27.236
		l7.304-27.236h2.464l7.304,27.236l6.601-27.236H314.904z"/>
	<path fill="#F1F1F1" d="M337.783,279.327h-19.008v-31.328h19.008v2.112h-16.632v12.364h14.168v2.111h-14.168v12.628h16.632V279.327
		z"/>
	<path fill="#F1F1F1" d="M362.731,279.327h-2.771l-7.48-14.432h-8.624v14.432h-2.376v-31.328h11.924c2.641,0,4.781,0.72,6.425,2.156
		c1.7,1.525,2.552,3.607,2.552,6.248c0,2.288-0.646,4.173-1.937,5.654s-3.051,2.413-5.279,2.794L362.731,279.327z M360.004,256.447
		c0-2.083-0.646-3.681-1.937-4.796c-1.231-1.026-2.89-1.54-4.972-1.54h-9.24v12.672h9.24c2.082,0,3.754-0.535,5.016-1.606
		C359.372,260.106,360.004,258.53,360.004,256.447z"/>
	<path fill="#F1F1F1" d="M91.08,303.663c0,3.96-0.132,6.615-0.396,7.964c-0.352,1.849-1.188,3.433-2.508,4.752
		c-2.142,2.142-4.752,3.212-7.832,3.212s-5.69-1.07-7.832-3.212c-1.319-1.319-2.155-2.903-2.508-4.752
		c-0.264-1.349-0.396-4.004-0.396-7.964s0.132-6.614,0.396-7.964c0.353-1.848,1.188-3.432,2.508-4.752
		c2.142-2.141,4.752-3.212,7.832-3.212s5.69,1.071,7.832,3.212c1.32,1.32,2.156,2.904,2.508,4.752
		C90.948,297.049,91.08,299.703,91.08,303.663z M88.704,303.663c0-3.608-0.117-6.072-0.353-7.392
		c-0.322-1.613-1.012-2.948-2.067-4.004c-1.613-1.613-3.594-2.421-5.94-2.421s-4.327,0.808-5.939,2.421
		c-1.057,1.056-1.746,2.391-2.068,4.004c-0.235,1.319-0.352,3.783-0.352,7.392s0.116,6.072,0.352,7.392
		c0.322,1.614,1.012,2.948,2.068,4.005c1.612,1.613,3.593,2.42,5.939,2.42s4.327-0.807,5.94-2.42
		c1.056-1.057,1.745-2.391,2.067-4.005C88.587,309.735,88.704,307.271,88.704,303.663z"/>
	<path fill="#F1F1F1" d="M115.456,290.111H98.824v12.892h14.168v2.112H98.824v14.212h-2.376v-31.328h19.008V290.111z"/>
	<path fill="#F1F1F1" d="M150.216,310.439c-0.499,2.815-1.709,5.045-3.63,6.688c-1.922,1.644-4.262,2.464-7.019,2.464
		c-3.08,0-5.69-1.07-7.832-3.212c-1.319-1.319-2.155-2.903-2.508-4.752c-0.264-1.349-0.396-4.004-0.396-7.964
		s0.132-6.614,0.396-7.964c0.353-1.848,1.188-3.432,2.508-4.752c2.142-2.141,4.752-3.212,7.832-3.212
		c2.787,0,5.133,0.813,7.04,2.441c1.906,1.628,3.109,3.865,3.608,6.71h-2.42c-0.47-2.17-1.431-3.886-2.882-5.147
		c-1.452-1.261-3.234-1.893-5.347-1.893c-2.347,0-4.327,0.808-5.939,2.421c-1.057,1.056-1.746,2.391-2.068,4.004
		c-0.235,1.319-0.352,3.783-0.352,7.392s0.116,6.072,0.352,7.392c0.322,1.614,1.012,2.948,2.068,4.005
		c1.612,1.613,3.593,2.42,5.939,2.42c2.112,0,3.908-0.631,5.391-1.893c1.48-1.261,2.456-2.977,2.926-5.147H150.216z"/>
	<path fill="#F1F1F1" d="M172.216,310.91c0,2.645-0.946,4.752-2.839,6.323c-1.892,1.572-4.466,2.357-7.722,2.357
		c-4.195,0-7.671-1.378-10.428-4.136l1.672-1.672c1.379,1.379,2.728,2.34,4.048,2.882c1.32,0.543,2.933,0.814,4.84,0.814
		c2.493,0,4.459-0.572,5.896-1.717c1.437-1.144,2.156-2.728,2.156-4.752c0-1.936-0.572-3.402-1.717-4.399
		c-0.909-0.792-2.42-1.349-4.531-1.672l-3.652-0.572c-5.368-0.851-8.052-3.534-8.052-8.052c0-2.61,0.872-4.693,2.618-6.248
		c1.744-1.555,4.113-2.332,7.105-2.332c3.402,0,6.409,1.129,9.021,3.388l-1.54,1.54c-2.172-1.965-4.708-2.948-7.612-2.948
		c-2.259,0-4.033,0.58-5.324,1.741c-1.291,1.16-1.936,2.739-1.936,4.736c0,1.822,0.542,3.188,1.628,4.099
		c1.173,0.999,2.728,1.646,4.664,1.938l3.388,0.529c2.522,0.382,4.385,1.072,5.588,2.07
		C171.306,306.328,172.216,308.354,172.216,310.91z"/>
	<path fill="#F1F1F1" d="M194.7,310.91c0,2.645-0.946,4.752-2.839,6.323c-1.892,1.572-4.466,2.357-7.722,2.357
		c-4.195,0-7.671-1.378-10.428-4.136l1.672-1.672c1.379,1.379,2.728,2.34,4.048,2.882c1.32,0.543,2.933,0.814,4.84,0.814
		c2.493,0,4.459-0.572,5.896-1.717c1.437-1.144,2.156-2.728,2.156-4.752c0-1.936-0.572-3.402-1.717-4.399
		c-0.909-0.792-2.42-1.349-4.531-1.672l-3.652-0.572c-5.368-0.851-8.052-3.534-8.052-8.052c0-2.61,0.872-4.693,2.618-6.248
		c1.744-1.555,4.113-2.332,7.105-2.332c3.402,0,6.409,1.129,9.021,3.388l-1.54,1.54c-2.172-1.965-4.708-2.948-7.612-2.948
		c-2.259,0-4.033,0.58-5.324,1.741c-1.291,1.16-1.936,2.739-1.936,4.736c0,1.822,0.542,3.188,1.628,4.099
		c1.173,0.999,2.728,1.646,4.664,1.938l3.388,0.529c2.522,0.382,4.385,1.072,5.588,2.07C193.79,306.328,194.7,308.354,194.7,310.91z
		"/>
	<path fill="#F1F1F1" d="M213.619,310.967c0,2.699-0.836,4.818-2.508,6.358s-3.799,2.31-6.38,2.31c-2.553,0-4.605-0.645-6.16-1.936
		c-1.702-1.379-2.626-3.373-2.772-5.984h2.244c0.146,1.995,0.895,3.521,2.244,4.576c1.173,0.91,2.654,1.364,4.444,1.364
		c1.906,0,3.49-0.601,4.752-1.804c1.261-1.203,1.892-2.831,1.892-4.885c0-4.458-2.273-6.688-6.82-6.688h-0.527v-1.98h0.527
		c4.137,0,6.204-2.097,6.204-6.292c0-1.994-0.571-3.549-1.716-4.664c-1.144-1.114-2.596-1.672-4.355-1.672
		c-1.819,0-3.264,0.506-4.334,1.519c-1.071,1.012-1.709,2.413-1.914,4.202h-2.244c0.205-2.405,1.114-4.297,2.728-5.677
		c1.525-1.349,3.446-2.023,5.765-2.023c2.464,0,4.466,0.763,6.006,2.288s2.31,3.535,2.31,6.027c0,3.491-1.481,5.867-4.443,7.128
		C211.932,304.279,213.619,306.891,213.619,310.967z"/>
	<path fill="#F1F1F1" d="M254.099,319.327h-3.036l-3.036-3.696c-2.728,2.641-5.939,3.96-9.636,3.96c-2.875,0-5.214-0.82-7.018-2.464
		c-1.805-1.643-2.706-3.798-2.706-6.468c0-2.2,0.732-4.136,2.2-5.808c0.88-0.997,2.536-2.303,4.972-3.916
		c-2.317-2.757-3.477-5.075-3.477-6.952c0-1.76,0.616-3.241,1.849-4.444c1.231-1.202,2.742-1.804,4.532-1.804
		c1.788,0,3.3,0.609,4.531,1.826c1.232,1.217,1.849,2.706,1.849,4.466c0,2.111-1.203,3.989-3.608,5.632
		c-0.528,0.352-1.306,0.88-2.332,1.584l8.977,10.868c0.703-1.085,1.188-2.163,1.451-3.234c0.265-1.07,0.396-2.588,0.396-4.554h2.332
		c0,4.136-0.91,7.319-2.729,9.548L254.099,319.327z M246.707,314.003l-9.504-11.483c-2.142,1.467-3.535,2.552-4.181,3.256
		c-1.319,1.379-1.979,2.963-1.979,4.752c0,2.054,0.674,3.726,2.023,5.016c1.35,1.291,3.109,1.937,5.28,1.937
		C241.31,317.479,244.096,316.32,246.707,314.003z M242.791,294.027c0-1.173-0.39-2.163-1.166-2.97
		c-0.778-0.807-1.738-1.211-2.882-1.211c-1.145,0-2.098,0.382-2.86,1.145c-0.764,0.763-1.145,1.731-1.145,2.904
		c0,1.35,1.027,3.271,3.08,5.764c0.353-0.234,0.953-0.645,1.805-1.232C241.734,296.99,242.791,295.523,242.791,294.027z"/>
	<path fill="#F1F1F1" d="M289.607,319.327h-2.376v-14.74h-16.324v14.74h-2.376v-31.328h2.376v14.477h16.324v-14.477h2.376V319.327z"
		/>
	<path fill="#F1F1F1" d="M312.883,290.111h-9.372v29.216h-2.376v-29.216h-9.328v-2.112h21.076V290.111z"/>
	<path fill="#F1F1F1" d="M342.979,319.327h-2.376v-25.828l-9.504,21.428h-2.376l-9.681-21.428v25.828h-2.376v-31.328h2.376
		l10.912,24.156l10.648-24.156h2.376V319.327z"/>
	<path fill="#F1F1F1" d="M367.705,319.327h-19.008v-31.328h2.376v29.216h16.632V319.327z"/>
	<path fill="#F1F1F1" d="M386.405,309.075c0,3.931-0.807,6.703-2.42,8.316c-1.496,1.495-3.506,2.243-6.027,2.243
		c-5.046,0-7.76-2.404-8.141-7.216h2.244c0.469,3.491,2.435,5.236,5.896,5.236c1.818,0,3.256-0.528,4.312-1.584
		c1.261-1.261,1.892-3.593,1.892-6.996c0-5.573-1.951-8.36-5.852-8.36c-3.109,0-5.002,1.101-5.676,3.301h-1.98v-16.017h15.048v1.98
		h-13.067v11.088c1.349-1.555,3.328-2.332,5.939-2.332c2.259,0,4.019,0.631,5.28,1.892
		C385.555,302.329,386.405,305.145,386.405,309.075z"/>
</g>
</svg>
