<?xml version="1.0" encoding="utf-8"?>
<!-- Generator: Adobe Illustrator 16.0.0, SVG Export Plug-In . SVG Version: 6.00 Build 0)  -->
<svg version="1.2" baseProfile="tiny" id="Layer_1" xmlns="http://www.w3.org/2000/svg" xmlns:xlink="http://www.w3.org/1999/xlink"
	 x="0px" y="0px" width="450px" height="600px" viewBox="0 0 450 600" xml:space="preserve">
<g>
	<path fill="#F1F1F1" d="M91.828,239.327h-2.552l-2.729-7.612H71.94l-2.729,7.612H66.66l11.528-31.328H80.3L91.828,239.327z
		 M85.8,229.604l-6.556-18.437l-6.556,18.437H85.8z"/>
	<path fill="#F1F1F1" d="M113.74,229.163c0,3.051-1.005,5.552-3.014,7.502c-2.01,1.951-4.584,2.926-7.723,2.926
		s-5.713-0.975-7.722-2.926c-2.01-1.95-3.014-4.451-3.014-7.502v-21.164h2.376v20.856c0,2.581,0.762,4.664,2.288,6.248
		c1.524,1.584,3.549,2.376,6.071,2.376s4.547-0.792,6.072-2.376c1.524-1.584,2.288-3.667,2.288-6.248v-20.856h2.376V229.163z"/>
	<path fill="#F1F1F1" d="M136.664,210.111h-9.372v29.216h-2.376v-29.216h-9.328v-2.112h21.076V210.111z"/>
	<path fill="#F1F1F1" d="M157.916,223.663c0,3.96-0.132,6.615-0.396,7.964c-0.352,1.849-1.188,3.433-2.508,4.752
		c-2.142,2.142-4.752,3.212-7.832,3.212s-5.69-1.07-7.832-3.212c-1.319-1.319-2.155-2.903-2.508-4.752
		c-0.264-1.349-0.396-4.004-0.396-7.964s0.132-6.614,0.396-7.964c0.353-1.848,1.188-3.432,2.508-4.752
		c2.142-2.141,4.752-3.212,7.832-3.212s5.69,1.071,7.832,3.212c1.32,1.32,2.156,2.904,2.508,4.752
		C157.784,217.049,157.916,219.703,157.916,223.663z M155.54,223.663c0-3.608-0.117-6.072-0.353-7.392
		c-0.322-1.613-1.012-2.948-2.067-4.004c-1.613-1.613-3.594-2.421-5.94-2.421s-4.327,0.808-5.939,2.421
		c-1.057,1.056-1.746,2.391-2.068,4.004c-0.235,1.319-0.352,3.783-0.352,7.392s0.116,6.072,0.352,7.392
		c0.322,1.614,1.012,2.948,2.068,4.005c1.612,1.613,3.593,2.42,5.939,2.42s4.327-0.807,5.94-2.42
		c1.056-1.057,1.745-2.391,2.067-4.005C155.423,229.735,155.54,227.271,155.54,223.663z"/>
	<path fill="#F1F1F1" d="M192.588,230.91c0,2.645-0.946,4.752-2.839,6.323c-1.892,1.572-4.466,2.357-7.722,2.357
		c-4.195,0-7.671-1.378-10.428-4.136l1.672-1.672c1.379,1.379,2.728,2.34,4.048,2.882c1.32,0.543,2.933,0.814,4.84,0.814
		c2.493,0,4.459-0.572,5.896-1.717c1.437-1.144,2.156-2.728,2.156-4.752c0-1.936-0.572-3.402-1.717-4.399
		c-0.909-0.792-2.42-1.349-4.531-1.672l-3.652-0.572c-5.368-0.851-8.052-3.534-8.052-8.052c0-2.61,0.872-4.693,2.618-6.248
		c1.744-1.555,4.113-2.332,7.105-2.332c3.402,0,6.409,1.129,9.021,3.388l-1.54,1.54c-2.172-1.965-4.708-2.948-7.612-2.948
		c-2.259,0-4.033,0.58-5.324,1.741c-1.291,1.16-1.936,2.739-1.936,4.736c0,1.822,0.542,3.188,1.628,4.099
		c1.173,0.999,2.728,1.646,4.664,1.938l3.388,0.529c2.522,0.382,4.385,1.072,5.588,2.07
		C191.678,226.328,192.588,228.354,192.588,230.91z"/>
	<path fill="#F1F1F1" d="M216.831,230.439c-0.499,2.815-1.709,5.045-3.63,6.688c-1.922,1.644-4.262,2.464-7.019,2.464
		c-3.08,0-5.69-1.07-7.832-3.212c-1.319-1.319-2.155-2.903-2.508-4.752c-0.264-1.349-0.396-4.004-0.396-7.964
		s0.132-6.614,0.396-7.964c0.353-1.848,1.188-3.432,2.508-4.752c2.142-2.141,4.752-3.212,7.832-3.212
		c2.787,0,5.133,0.813,7.04,2.441c1.906,1.628,3.109,3.865,3.608,6.71h-2.42c-0.47-2.17-1.431-3.886-2.882-5.147
		c-1.452-1.261-3.234-1.893-5.347-1.893c-2.347,0-4.327,0.808-5.939,2.421c-1.057,1.056-1.746,2.391-2.068,4.004
		c-0.235,1.319-0.352,3.783-0.352,7.392s0.116,6.072,0.352,7.392c0.322,1.614,1.012,2.948,2.068,4.005
		c1.612,1.613,3.593,2.42,5.939,2.42c2.112,0,3.908-0.631,5.391-1.893c1.48-1.261,2.456-2.977,2.926-5.147H216.831z"/>
	<path fill="#F1F1F1" d="M241.428,239.327h-2.552l-2.729-7.612H221.54l-2.729,7.612h-2.552l11.528-31.328h2.111L241.428,239.327z
		 M235.399,229.604l-6.556-18.437l-6.556,18.437H235.399z"/>
	<path fill="#F1F1F1" d="M263.998,239.327H244.99v-31.328h2.376v29.216h16.632V239.327z"/>
	<path fill="#F1F1F1" d="M270.07,239.327h-2.376v-31.328h2.376V239.327z"/>
	<path fill="#F1F1F1" d="M298.627,239.327h-2.376l-18.084-27.236v27.236h-2.376v-31.328h2.376l18.084,27.148v-27.148h2.376V239.327z
		"/>
	<path fill="#F1F1F1" d="M324.63,228.415c0,3.197-0.852,5.72-2.552,7.568c-2.2,2.405-4.943,3.607-8.229,3.607
		c-3.08,0-5.69-1.07-7.832-3.212c-1.319-1.319-2.155-2.903-2.508-4.752c-0.264-1.349-0.396-4.004-0.396-7.964
		s0.132-6.614,0.397-7.964c0.353-1.848,1.192-3.432,2.518-4.752c2.15-2.141,4.772-3.212,7.864-3.212
		c2.769,0,5.133,0.836,7.091,2.508c1.959,1.672,3.174,3.887,3.646,6.644h-2.387c-0.472-2.17-1.452-3.886-2.94-5.147
		c-1.488-1.261-3.293-1.893-5.414-1.893c-2.357,0-4.347,0.808-5.968,2.421c-1.061,1.056-1.753,2.391-2.078,4.004
		c-0.235,1.319-0.353,3.783-0.353,7.392s0.116,6.072,0.352,7.392c0.322,1.614,1.012,2.948,2.068,4.005
		c1.612,1.613,3.593,2.42,5.939,2.42c2.669,0,4.84-1.013,6.513-3.036c1.261-1.525,1.892-3.593,1.892-6.204v-2.816h-8.404v-2.111
		h10.78V228.415z"/>
	<path fill="#F1F1F1" d="M95.128,279.327h-3.036l-3.036-3.696c-2.728,2.641-5.939,3.96-9.636,3.96c-2.875,0-5.214-0.82-7.018-2.464
		c-1.805-1.643-2.706-3.798-2.706-6.468c0-2.2,0.732-4.136,2.2-5.808c0.88-0.997,2.536-2.303,4.972-3.916
		c-2.317-2.757-3.477-5.075-3.477-6.952c0-1.76,0.616-3.241,1.849-4.444c1.231-1.202,2.742-1.804,4.532-1.804
		c1.788,0,3.3,0.609,4.531,1.826c1.232,1.217,1.849,2.706,1.849,4.466c0,2.111-1.203,3.989-3.608,5.632
		c-0.528,0.352-1.306,0.88-2.332,1.584l8.977,10.868c0.703-1.085,1.188-2.163,1.451-3.234c0.265-1.07,0.396-2.588,0.396-4.554h2.332
		c0,4.136-0.91,7.319-2.729,9.548L95.128,279.327z M87.736,274.003l-9.504-11.483c-2.142,1.467-3.535,2.552-4.181,3.256
		c-1.319,1.379-1.979,2.963-1.979,4.752c0,2.054,0.674,3.726,2.023,5.016c1.35,1.291,3.109,1.937,5.28,1.937
		C82.339,277.479,85.125,276.32,87.736,274.003z M83.82,254.027c0-1.173-0.39-2.163-1.166-2.97
		c-0.778-0.807-1.738-1.211-2.882-1.211c-1.145,0-2.098,0.382-2.86,1.145c-0.764,0.763-1.145,1.731-1.145,2.904
		c0,1.35,1.027,3.271,3.08,5.764c0.353-0.234,0.953-0.645,1.805-1.232C82.764,256.99,83.82,255.523,83.82,254.027z"/>
	<path fill="#F1F1F1" d="M126.544,279.327h-19.052v-2.508l16.5-26.708h-15.841v-2.112h18.393v2.112l-16.632,27.104h16.632V279.327z"
		/>
	<path fill="#F1F1F1" d="M148.545,263.663c0,3.96-0.132,6.615-0.396,7.964c-0.352,1.849-1.188,3.433-2.508,4.752
		c-2.142,2.142-4.752,3.212-7.832,3.212s-5.69-1.07-7.832-3.212c-1.319-1.319-2.155-2.903-2.508-4.752
		c-0.264-1.349-0.396-4.004-0.396-7.964s0.132-6.614,0.396-7.964c0.353-1.848,1.188-3.432,2.508-4.752
		c2.142-2.141,4.752-3.212,7.832-3.212s5.69,1.071,7.832,3.212c1.32,1.32,2.156,2.904,2.508,4.752
		C148.413,257.049,148.545,259.703,148.545,263.663z M146.169,263.663c0-3.608-0.117-6.072-0.353-7.392
		c-0.322-1.613-1.012-2.948-2.067-4.004c-1.613-1.613-3.594-2.421-5.94-2.421s-4.327,0.808-5.939,2.421
		c-1.057,1.056-1.746,2.391-2.068,4.004c-0.235,1.319-0.352,3.783-0.352,7.392s0.116,6.072,0.352,7.392
		c0.322,1.614,1.012,2.948,2.068,4.005c1.612,1.613,3.593,2.42,5.939,2.42s4.327-0.807,5.94-2.42
		c1.056-1.057,1.745-2.391,2.067-4.005C146.052,269.735,146.169,267.271,146.169,263.663z"/>
	<path fill="#F1F1F1" d="M174.152,263.663c0,3.96-0.132,6.615-0.396,7.964c-0.352,1.849-1.188,3.433-2.508,4.752
		c-2.142,2.142-4.752,3.212-7.832,3.212s-5.69-1.07-7.832-3.212c-1.319-1.319-2.155-2.903-2.508-4.752
		c-0.264-1.349-0.396-4.004-0.396-7.964s0.132-6.614,0.396-7.964c0.353-1.848,1.188-3.432,2.508-4.752
		c2.142-2.141,4.752-3.212,7.832-3.212s5.69,1.071,7.832,3.212c1.32,1.32,2.156,2.904,2.508,4.752
		C174.021,257.049,174.152,259.703,174.152,263.663z M171.776,263.663c0-3.608-0.117-6.072-0.353-7.392
		c-0.322-1.613-1.012-2.948-2.067-4.004c-1.613-1.613-3.594-2.421-5.94-2.421s-4.327,0.808-5.939,2.421
		c-1.057,1.056-1.746,2.391-2.068,4.004c-0.235,1.319-0.352,3.783-0.352,7.392s0.116,6.072,0.352,7.392
		c0.322,1.614,1.012,2.948,2.068,4.005c1.612,1.613,3.593,2.42,5.939,2.42s4.327-0.807,5.94-2.42
		c1.056-1.057,1.745-2.391,2.067-4.005C171.659,269.735,171.776,267.271,171.776,263.663z"/>
	<path fill="#F1F1F1" d="M205.833,279.327h-2.376v-25.828l-9.504,21.428h-2.376l-9.681-21.428v25.828h-2.376v-31.328h2.376
		l10.912,24.156l10.648-24.156h2.376V279.327z"/>
</g>
</svg>
