<?xml version="1.0" encoding="utf-8"?>
<!-- Generator: Adobe Illustrator 16.0.0, SVG Export Plug-In . SVG Version: 6.00 Build 0)  -->
<svg version="1.2" baseProfile="tiny" id="Layer_1" xmlns="http://www.w3.org/2000/svg" xmlns:xlink="http://www.w3.org/1999/xlink"
	 x="0px" y="0px" width="450px" height="600px" viewBox="0 0 450 600" xml:space="preserve">
<g>
	<path fill="#F2F2F2" d="M89.848,298.111H73.216v12.892h14.168v2.112H73.216v14.212H70.84v-31.328h19.008V298.111z"/>
	<path fill="#F2F2F2" d="M111.761,327.327h-2.552l-2.729-7.612H91.873l-2.729,7.612h-2.552l11.528-31.328h2.111L111.761,327.327z
		 M105.732,317.604l-6.556-18.437l-6.556,18.437H105.732z"/>
	<path fill="#F2F2F2" d="M133.716,318.91c0,2.645-0.946,4.752-2.839,6.322c-1.892,1.572-4.466,2.357-7.722,2.357
		c-4.195,0-7.671-1.378-10.428-4.136l1.672-1.672c1.379,1.379,2.728,2.34,4.048,2.882c1.32,0.543,2.933,0.814,4.84,0.814
		c2.493,0,4.459-0.572,5.896-1.718c1.437-1.144,2.156-2.728,2.156-4.752c0-1.937-0.572-3.401-1.717-4.399
		c-0.909-0.791-2.42-1.349-4.531-1.672l-3.652-0.571c-5.368-0.851-8.052-3.534-8.052-8.052c0-2.61,0.872-4.693,2.618-6.249
		c1.744-1.555,4.113-2.332,7.105-2.332c3.402,0,6.409,1.129,9.021,3.388l-1.54,1.54c-2.172-1.965-4.708-2.948-7.612-2.948
		c-2.259,0-4.033,0.58-5.324,1.741c-1.291,1.16-1.936,2.738-1.936,4.736c0,1.822,0.542,3.188,1.628,4.099
		c1.173,0.999,2.728,1.646,4.664,1.938l3.388,0.528c2.522,0.382,4.385,1.072,5.588,2.07
		C132.806,314.328,133.716,316.354,133.716,318.91z"/>
	<path fill="#F2F2F2" d="M155.364,298.111h-9.372v29.216h-2.376v-29.216h-9.328v-2.112h21.076V298.111z"/>
	<path fill="#F2F2F2" d="M191.135,318.791c0,2.729-0.821,4.833-2.464,6.314c-1.644,1.48-3.888,2.222-6.732,2.222h-11.88v-31.328
		h11.528c2.669,0,4.847,0.733,6.534,2.2c1.687,1.467,2.529,3.462,2.529,5.984c0,1.643-0.439,3.102-1.319,4.377
		s-2.068,2.164-3.564,2.662c1.701,0.557,3.021,1.504,3.96,2.838C190.666,315.396,191.135,316.973,191.135,318.791z M188.274,304.184
		c0-2.054-0.689-3.607-2.067-4.664c-1.203-0.938-2.831-1.408-4.885-1.408h-8.888v12.144h8.888c2.054,0,3.682-0.469,4.885-1.408
		C187.585,307.791,188.274,306.236,188.274,304.184z M188.759,318.791c0-1.994-0.646-3.562-1.937-4.708
		c-1.291-1.144-3.007-1.716-5.147-1.716h-9.24v12.848h9.24c2.141,0,3.856-0.57,5.147-1.716
		C188.113,322.355,188.759,320.786,188.759,318.791z"/>
	<path fill="#F2F2F2" d="M217.754,327.327h-2.771l-7.48-14.433h-8.624v14.433h-2.376v-31.328h11.924c2.641,0,4.781,0.72,6.425,2.156
		c1.7,1.525,2.552,3.607,2.552,6.248c0,2.289-0.646,4.174-1.937,5.654c-1.291,1.481-3.051,2.413-5.279,2.795L217.754,327.327z
		 M215.026,304.447c0-2.084-0.646-3.682-1.937-4.796c-1.231-1.026-2.89-1.54-4.972-1.54h-9.24v12.672h9.24
		c2.082,0,3.754-0.535,5.016-1.606C214.395,308.105,215.026,306.529,215.026,304.447z"/>
	<path fill="#F2F2F2" d="M241.734,311.663c0,3.96-0.133,6.614-0.396,7.964c-0.352,1.85-1.188,3.434-2.508,4.752
		c-2.143,2.143-4.752,3.212-7.832,3.212s-5.69-1.069-7.832-3.212c-1.319-1.318-2.155-2.902-2.508-4.752
		c-0.264-1.35-0.396-4.004-0.396-7.964s0.132-6.614,0.396-7.964c0.353-1.848,1.188-3.432,2.508-4.752
		c2.142-2.141,4.752-3.212,7.832-3.212s5.689,1.071,7.832,3.212c1.32,1.32,2.156,2.905,2.508,4.752
		C241.604,305.049,241.734,307.703,241.734,311.663z M239.357,311.663c0-3.608-0.116-6.072-0.353-7.392
		c-0.321-1.613-1.012-2.948-2.067-4.004c-1.612-1.613-3.594-2.421-5.939-2.421s-4.327,0.808-5.939,2.421
		c-1.057,1.056-1.746,2.391-2.068,4.004c-0.235,1.318-0.352,3.783-0.352,7.392s0.116,6.071,0.352,7.392
		c0.322,1.614,1.012,2.948,2.068,4.006c1.612,1.612,3.593,2.42,5.939,2.42s4.327-0.808,5.939-2.42
		c1.057-1.058,1.746-2.392,2.067-4.006C239.241,317.734,239.357,315.271,239.357,311.663z"/>
	<path fill="#F2F2F2" d="M278.43,295.999l-7.832,31.328h-2.42l-7.392-27.28l-7.394,27.28h-2.42l-7.832-31.328h2.508l6.602,27.235
		l7.304-27.235h2.464l7.305,27.235l6.601-27.235H278.43z"/>
	<path fill="#F2F2F2" d="M300.694,318.91c0,2.645-0.946,4.752-2.839,6.322c-1.893,1.572-4.467,2.357-7.723,2.357
		c-4.195,0-7.671-1.378-10.428-4.136l1.672-1.672c1.379,1.379,2.729,2.34,4.048,2.882c1.32,0.543,2.933,0.814,4.841,0.814
		c2.492,0,4.459-0.572,5.896-1.718c1.437-1.144,2.156-2.728,2.156-4.752c0-1.937-0.572-3.401-1.718-4.399
		c-0.908-0.791-2.42-1.349-4.531-1.672l-3.651-0.571c-5.368-0.851-8.052-3.534-8.052-8.052c0-2.61,0.871-4.693,2.617-6.249
		c1.744-1.555,4.113-2.332,7.105-2.332c3.402,0,6.409,1.129,9.021,3.388l-1.54,1.54c-2.173-1.965-4.708-2.948-7.612-2.948
		c-2.26,0-4.033,0.58-5.324,1.741c-1.291,1.16-1.936,2.738-1.936,4.736c0,1.822,0.541,3.188,1.628,4.099
		c1.173,0.999,2.728,1.646,4.663,1.938l3.389,0.528c2.521,0.382,4.385,1.072,5.588,2.07
		C299.784,314.328,300.694,316.354,300.694,318.91z"/>
	<path fill="#F2F2F2" d="M307.162,327.327h-2.376v-31.328h2.376V327.327z"/>
	<path fill="#F2F2F2" d="M335.718,327.327h-2.376l-18.084-27.236v27.236h-2.376v-31.328h2.376l18.084,27.147v-27.147h2.376V327.327z
		"/>
	<path fill="#F2F2F2" d="M361.722,316.415c0,3.196-0.852,5.72-2.552,7.567c-2.2,2.406-4.943,3.607-8.229,3.607
		c-3.08,0-5.69-1.07-7.832-3.212c-1.319-1.319-2.155-2.903-2.509-4.752c-0.264-1.349-0.396-4.004-0.396-7.964
		s0.132-6.614,0.396-7.964c0.354-1.849,1.192-3.432,2.519-4.752c2.149-2.141,4.771-3.212,7.864-3.212
		c2.769,0,5.133,0.836,7.091,2.508c1.959,1.672,3.174,3.887,3.646,6.644h-2.387c-0.472-2.17-1.452-3.886-2.94-5.147
		c-1.487-1.261-3.293-1.893-5.413-1.893c-2.357,0-4.348,0.808-5.969,2.421c-1.061,1.055-1.753,2.391-2.078,4.004
		c-0.234,1.318-0.353,3.782-0.353,7.392c0,3.608,0.116,6.071,0.352,7.392c0.322,1.614,1.013,2.948,2.068,4.006
		c1.612,1.612,3.593,2.42,5.939,2.42c2.669,0,4.84-1.014,6.513-3.037c1.261-1.524,1.892-3.592,1.892-6.203v-2.816h-8.403v-2.111
		h10.779L361.722,316.415L361.722,316.415z"/>
	<path fill="#F2F2F2" d="M102.168,335.999l-7.832,31.328h-2.42l-7.392-27.28l-7.393,27.28h-2.42l-7.832-31.328h2.508l6.601,27.235
		l7.304-27.235h2.464l7.304,27.235l6.601-27.235H102.168z"/>
	<path fill="#F2F2F2" d="M108.416,367.327h-2.376v-31.328h2.376V367.327z"/>
	<path fill="#F2F2F2" d="M131.692,338.111h-9.372v29.216h-2.376v-29.216h-9.328v-2.112h21.076V338.111z"/>
	<path fill="#F2F2F2" d="M156.552,367.327h-2.376v-14.74h-16.324v14.74h-2.376v-31.328h2.376v14.478h16.324v-14.478h2.376V367.327z"
		/>
	<path fill="#F2F2F2" d="M199.496,367.327h-2.376v-25.828l-9.504,21.428h-2.376l-9.681-21.428v25.828h-2.376v-31.328h2.376
		l10.912,24.155l10.648-24.155h2.376L199.496,367.327L199.496,367.327z"/>
	<path fill="#F2F2F2" d="M226.247,357.163c0,3.051-1.005,5.552-3.014,7.502c-2.01,1.951-4.584,2.926-7.723,2.926
		c-3.139,0-5.713-0.975-7.722-2.926c-2.01-1.95-3.014-4.451-3.014-7.502v-21.164h2.376v20.856c0,2.58,0.762,4.664,2.288,6.248
		c1.524,1.584,3.549,2.375,6.071,2.375s4.547-0.791,6.072-2.375c1.524-1.584,2.288-3.668,2.288-6.248v-20.856h2.376v21.164H226.247z
		"/>
	<path fill="#F2F2F2" d="M250.623,367.327h-19.008v-31.328h2.376v29.216h16.632V367.327L250.623,367.327z"/>
	<path fill="#F2F2F2" d="M267.255,338.111h-9.372v29.216h-2.376v-29.216h-9.327v-2.112h21.075V338.111L267.255,338.111z"/>
	<path fill="#F2F2F2" d="M273.414,367.327h-2.376v-31.328h2.376V367.327z"/>
	<path fill="#F2F2F2" d="M298.143,338.111h-16.631v12.892h14.168v2.112h-14.168v14.212h-2.377v-31.328h19.008V338.111z"/>
	<path fill="#F2F2F2" d="M320.846,367.327h-19.008v-31.328h2.376v29.216h16.632V367.327z"/>
	<path fill="#F2F2F2" d="M326.918,367.327h-2.376v-31.328h2.376V367.327z"/>
	<path fill="#F2F2F2" d="M353.582,345.02c0,2.787-0.88,4.986-2.641,6.601c-1.761,1.612-4.033,2.42-6.819,2.42h-9.108v13.288h-2.376
		V336h11.484c2.786,0,5.06,0.809,6.819,2.42C352.702,340.032,353.582,342.232,353.582,345.02z M351.206,345.02
		c0-2.287-0.689-4.033-2.068-5.235c-1.291-1.114-3.051-1.673-5.279-1.673h-8.845v13.815h8.845c2.229,0,4.012-0.577,5.347-1.737
		C350.538,349.029,351.206,347.309,351.206,345.02z"/>
</g>
<g>
	<rect x="188.135" y="102.711" fill="#00b7f0" stroke="#F2F2F2" stroke-miterlimit="10" width="101.865" height="135.822"/>
	<polygon fill="#00b7f0" stroke="#F2F2F2" stroke-miterlimit="10" points="188.135,102.711 281.514,89.979 281.514,251.267 
		188.135,238.533 	"/>
	<polygon fill="#00b7f0" stroke="#F2F2F2" stroke-miterlimit="10" points="188.135,102.711 234.823,73 234.823,264 188.135,238.533 
			"/>
	<rect x="87" y="102.711" fill="#00b7f0" stroke="#F2F2F2" stroke-miterlimit="10" width="101.865" height="135.822"/>
	<polygon fill="#00b7f0" stroke="#F2F2F2" stroke-miterlimit="10" points="188.865,102.711 152,67 152,270 188.865,238.533 	"/>
</g>
</svg>
