<?xml version="1.0" encoding="utf-8"?>
<!-- Generator: Adobe Illustrator 16.0.0, SVG Export Plug-In . SVG Version: 6.00 Build 0)  -->
<svg version="1.2" baseProfile="tiny" id="Layer_1" xmlns="http://www.w3.org/2000/svg" xmlns:xlink="http://www.w3.org/1999/xlink"
	 x="0px" y="0px" width="450px" height="600px" viewBox="0 0 450 600" xml:space="preserve">
<g>
	<path fill="#F1F1F1" d="M89.232,227.91c0,2.645-0.946,4.752-2.839,6.323c-1.892,1.572-4.466,2.357-7.722,2.357
		c-4.195,0-7.671-1.378-10.428-4.136l1.672-1.672c1.379,1.379,2.728,2.34,4.048,2.882c1.32,0.543,2.933,0.814,4.84,0.814
		c2.493,0,4.459-0.572,5.896-1.717c1.437-1.144,2.156-2.728,2.156-4.752c0-1.936-0.572-3.402-1.717-4.399
		c-0.909-0.792-2.42-1.349-4.531-1.672l-3.652-0.572c-5.368-0.851-8.052-3.534-8.052-8.052c0-2.61,0.872-4.693,2.618-6.248
		c1.744-1.555,4.113-2.332,7.105-2.332c3.402,0,6.409,1.129,9.021,3.388l-1.54,1.54c-2.172-1.965-4.708-2.948-7.612-2.948
		c-2.259,0-4.033,0.58-5.324,1.741c-1.291,1.16-1.936,2.739-1.936,4.736c0,1.822,0.542,3.188,1.628,4.099
		c1.173,0.999,2.728,1.646,4.664,1.938l3.388,0.529c2.522,0.382,4.385,1.072,5.588,2.07
		C88.322,223.328,89.232,225.354,89.232,227.91z"/>
	<path fill="#F1F1F1" d="M112.332,236.327H93.324v-31.328H95.7v29.216h16.632V236.327z"/>
	<path fill="#F1F1F1" d="M118.403,236.327h-2.376v-31.328h2.376V236.327z"/>
	<path fill="#F1F1F1" d="M145.508,220.224c0,3.227-0.117,5.573-0.352,7.039c-0.411,2.758-1.306,4.826-2.684,6.204
		c-1.907,1.907-4.518,2.86-7.832,2.86h-10.517v-31.328h10.517c3.314,0,5.925,0.954,7.832,2.86c1.378,1.379,2.272,3.3,2.684,5.764
		C145.391,214.943,145.508,217.144,145.508,220.224z M143.132,220.224c0-2.729-0.073-4.62-0.22-5.677
		c-0.323-2.229-1.027-3.9-2.112-5.016c-1.584-1.613-3.827-2.42-6.731-2.42H126.5v27.104h7.568c2.904,0,5.147-0.806,6.731-2.42
		c1.085-1.114,1.789-2.933,2.112-5.456C143.059,225.137,143.132,223.099,143.132,220.224z"/>
	<path fill="#F1F1F1" d="M169.883,236.327h-19.008v-31.328h19.008v2.112h-16.632v12.364h14.168v2.111h-14.168v12.628h16.632V236.327
		z"/>
	<path fill="#F1F1F1" d="M191.972,227.91c0,2.645-0.946,4.752-2.839,6.323c-1.892,1.572-4.466,2.357-7.722,2.357
		c-4.195,0-7.671-1.378-10.428-4.136l1.672-1.672c1.379,1.379,2.728,2.34,4.048,2.882c1.32,0.543,2.933,0.814,4.84,0.814
		c2.493,0,4.459-0.572,5.896-1.717c1.437-1.144,2.156-2.728,2.156-4.752c0-1.936-0.572-3.402-1.717-4.399
		c-0.909-0.792-2.42-1.349-4.531-1.672l-3.652-0.572c-5.368-0.851-8.052-3.534-8.052-8.052c0-2.61,0.872-4.693,2.618-6.248
		c1.744-1.555,4.113-2.332,7.105-2.332c3.402,0,6.409,1.129,9.021,3.388l-1.54,1.54c-2.172-1.965-4.708-2.948-7.612-2.948
		c-2.259,0-4.033,0.58-5.324,1.741c-1.291,1.16-1.936,2.739-1.936,4.736c0,1.822,0.542,3.188,1.628,4.099
		c1.173,0.999,2.728,1.646,4.664,1.938l3.388,0.529c2.522,0.382,4.385,1.072,5.588,2.07
		C191.062,223.328,191.972,225.354,191.972,227.91z"/>
	<path fill="#F1F1F1" d="M217.139,236.327h-2.376v-14.74h-16.324v14.74h-2.376v-31.328h2.376v14.477h16.324v-14.477h2.376V236.327z"
		/>
	<path fill="#F1F1F1" d="M243.1,220.663c0,3.96-0.132,6.615-0.396,7.964c-0.352,1.849-1.188,3.433-2.508,4.752
		c-2.142,2.142-4.752,3.212-7.832,3.212s-5.69-1.07-7.832-3.212c-1.319-1.319-2.155-2.903-2.508-4.752
		c-0.264-1.349-0.396-4.004-0.396-7.964s0.132-6.614,0.396-7.964c0.353-1.848,1.188-3.432,2.508-4.752
		c2.142-2.141,4.752-3.212,7.832-3.212s5.69,1.071,7.832,3.212c1.32,1.32,2.156,2.904,2.508,4.752
		C242.968,214.049,243.1,216.703,243.1,220.663z M240.724,220.663c0-3.608-0.117-6.072-0.353-7.392
		c-0.322-1.613-1.012-2.948-2.067-4.004c-1.613-1.613-3.594-2.421-5.94-2.421s-4.327,0.808-5.939,2.421
		c-1.057,1.056-1.746,2.391-2.068,4.004c-0.235,1.319-0.352,3.783-0.352,7.392s0.116,6.072,0.352,7.392
		c0.322,1.614,1.012,2.948,2.068,4.005c1.612,1.613,3.593,2.42,5.939,2.42s4.327-0.807,5.94-2.42
		c1.056-1.057,1.745-2.391,2.067-4.005C240.606,226.735,240.724,224.271,240.724,220.663z"/>
	<path fill="#F1F1F1" d="M279.795,204.999l-7.832,31.328h-2.42l-7.392-27.28l-7.393,27.28h-2.42l-7.832-31.328h2.508l6.601,27.236
		l7.304-27.236h2.464l7.304,27.236l6.601-27.236H279.795z"/>
	<path fill="#F1F1F1" d="M102.168,244.999l-7.832,31.328h-2.42l-7.392-27.28l-7.393,27.28h-2.42l-7.832-31.328h2.508l6.601,27.236
		l7.304-27.236h2.464l7.304,27.236l6.601-27.236H102.168z"/>
	<path fill="#F1F1F1" d="M108.416,276.327h-2.376v-31.328h2.376V276.327z"/>
	<path fill="#F1F1F1" d="M131.692,247.111h-9.372v29.216h-2.376v-29.216h-9.328v-2.112h21.076V247.111z"/>
	<path fill="#F1F1F1" d="M156.552,276.327h-2.376v-14.74h-16.324v14.74h-2.376v-31.328h2.376v14.477h16.324v-14.477h2.376V276.327z"
		/>
	<path fill="#F1F1F1" d="M194.172,276.327h-2.552l-2.729-7.612h-14.607l-2.729,7.612h-2.552l11.528-31.328h2.111L194.172,276.327z
		 M188.144,266.604l-6.556-18.437l-6.556,18.437H188.144z"/>
	<path fill="#F1F1F1" d="M216.083,266.163c0,3.051-1.005,5.552-3.014,7.502c-2.01,1.951-4.584,2.926-7.723,2.926
		s-5.713-0.975-7.722-2.926c-2.01-1.95-3.014-4.451-3.014-7.502v-21.164h2.376v20.856c0,2.581,0.762,4.664,2.288,6.248
		c1.524,1.584,3.549,2.376,6.071,2.376s4.547-0.792,6.072-2.376c1.524-1.584,2.288-3.667,2.288-6.248v-20.856h2.376V266.163z"/>
	<path fill="#F1F1F1" d="M239.008,247.111h-9.372v29.216h-2.376v-29.216h-9.328v-2.112h21.076V247.111z"/>
	<path fill="#F1F1F1" d="M260.259,260.663c0,3.96-0.132,6.615-0.396,7.964c-0.352,1.849-1.188,3.433-2.508,4.752
		c-2.142,2.142-4.752,3.212-7.832,3.212s-5.69-1.07-7.832-3.212c-1.319-1.319-2.155-2.903-2.508-4.752
		c-0.264-1.349-0.396-4.004-0.396-7.964s0.132-6.614,0.396-7.964c0.353-1.848,1.188-3.432,2.508-4.752
		c2.142-2.141,4.752-3.212,7.832-3.212s5.69,1.071,7.832,3.212c1.32,1.32,2.156,2.904,2.508,4.752
		C260.127,254.049,260.259,256.703,260.259,260.663z M257.883,260.663c0-3.608-0.117-6.072-0.353-7.392
		c-0.322-1.613-1.012-2.948-2.067-4.004c-1.613-1.613-3.594-2.421-5.94-2.421s-4.327,0.808-5.939,2.421
		c-1.057,1.056-1.746,2.391-2.068,4.004c-0.235,1.319-0.352,3.783-0.352,7.392s0.116,6.072,0.352,7.392
		c0.322,1.614,1.012,2.948,2.068,4.005c1.612,1.613,3.593,2.42,5.939,2.42s4.327-0.807,5.94-2.42
		c1.056-1.057,1.745-2.391,2.067-4.005C257.766,266.735,257.883,264.271,257.883,260.663z"/>
	<path fill="#F1F1F1" d="M284.635,247.111h-16.632v12.892h14.168v2.112h-14.168v14.212h-2.376v-31.328h19.008V247.111z"/>
	<path fill="#F1F1F1" d="M307.339,276.327h-19.008v-31.328h2.376v29.216h16.632V276.327z"/>
	<path fill="#F1F1F1" d="M313.41,276.327h-2.376v-31.328h2.376V276.327z"/>
	<path fill="#F1F1F1" d="M340.075,254.02c0,2.787-0.88,4.986-2.641,6.6c-1.76,1.613-4.033,2.42-6.819,2.42h-9.108v13.288h-2.376
		v-31.328h11.484c2.786,0,5.06,0.808,6.819,2.42C339.195,249.032,340.075,251.232,340.075,254.02z M337.699,254.02
		c0-2.288-0.689-4.033-2.068-5.236c-1.291-1.114-3.051-1.672-5.28-1.672h-8.844v13.815h8.844c2.229,0,4.012-0.578,5.347-1.737
		C337.031,258.03,337.699,256.308,337.699,254.02z"/>
</g>
</svg>
