<?xml version="1.0" encoding="utf-8"?>
<!-- Generator: Adobe Illustrator 16.0.0, SVG Export Plug-In . SVG Version: 6.00 Build 0)  -->
<svg version="1.2" baseProfile="tiny" id="Layer_1" xmlns="http://www.w3.org/2000/svg" xmlns:xlink="http://www.w3.org/1999/xlink"
	 x="0px" y="0px" width="450px" height="600px" viewBox="0 0 450 600" xml:space="preserve">
<g>
	<path fill="#F1F1F1" d="M92.532,376.327l-1.584,1.584l-3.696-3.696c-1.995,1.584-4.298,2.376-6.908,2.376
		c-3.08,0-5.69-1.07-7.832-3.212c-1.319-1.319-2.155-2.903-2.508-4.752c-0.264-1.349-0.396-4.004-0.396-7.964
		s0.132-6.614,0.396-7.964c0.353-1.848,1.188-3.432,2.508-4.752c2.142-2.141,4.752-3.212,7.832-3.212s5.69,1.071,7.832,3.212
		c1.32,1.32,2.156,2.904,2.508,4.752c0.265,1.35,0.396,4.004,0.396,7.964c0,3.667-0.104,6.146-0.308,7.437
		c-0.265,1.818-0.91,3.329-1.937,4.531L92.532,376.327z M88.704,360.663c0-3.608-0.117-6.072-0.353-7.392
		c-0.322-1.613-1.012-2.948-2.067-4.004c-1.613-1.613-3.594-2.421-5.94-2.421s-4.327,0.808-5.939,2.421
		c-1.057,1.056-1.746,2.391-2.068,4.004c-0.235,1.319-0.352,3.783-0.352,7.392s0.116,6.072,0.352,7.392
		c0.322,1.614,1.012,2.948,2.068,4.005c1.612,1.613,3.593,2.42,5.939,2.42c1.995,0,3.77-0.616,5.324-1.849l-4.4-4.399l1.584-1.584
		l4.356,4.355c0.645-0.938,1.07-2.2,1.276-3.784C88.631,365.958,88.704,363.772,88.704,360.663z"/>
	<path fill="#F1F1F1" d="M115.72,366.163c0,3.051-1.005,5.552-3.014,7.502c-2.01,1.951-4.584,2.926-7.723,2.926
		s-5.713-0.975-7.722-2.926c-2.01-1.95-3.014-4.451-3.014-7.502v-21.164h2.376v20.856c0,2.581,0.762,4.664,2.288,6.248
		c1.524,1.584,3.549,2.376,6.071,2.376s4.547-0.792,6.072-2.376c1.524-1.584,2.288-3.667,2.288-6.248v-20.856h2.376V366.163z"/>
	<path fill="#F1F1F1" d="M123.463,376.327h-2.376v-31.328h2.376V376.327z"/>
	<path fill="#F1F1F1" d="M149.336,367.439c-0.499,2.815-1.709,5.045-3.63,6.688c-1.922,1.644-4.262,2.464-7.019,2.464
		c-3.08,0-5.69-1.07-7.832-3.212c-1.319-1.319-2.155-2.903-2.508-4.752c-0.264-1.349-0.396-4.004-0.396-7.964
		s0.132-6.614,0.396-7.964c0.353-1.848,1.188-3.432,2.508-4.752c2.142-2.141,4.752-3.212,7.832-3.212
		c2.787,0,5.133,0.813,7.04,2.441c1.906,1.628,3.109,3.865,3.608,6.71h-2.42c-0.47-2.17-1.431-3.886-2.882-5.147
		c-1.452-1.261-3.234-1.893-5.347-1.893c-2.347,0-4.327,0.808-5.939,2.421c-1.057,1.056-1.746,2.391-2.068,4.004
		c-0.235,1.319-0.352,3.783-0.352,7.392s0.116,6.072,0.352,7.392c0.322,1.614,1.012,2.948,2.068,4.005
		c1.612,1.613,3.593,2.42,5.939,2.42c2.112,0,3.908-0.631,5.391-1.893c1.48-1.261,2.456-2.977,2.926-5.147H149.336z"/>
	<path fill="#F1F1F1" d="M175.691,376.327h-2.815L162.8,358.771l-7.48,9.063v8.492h-2.376v-31.328h2.376v19.58l15.884-19.58h2.86
		l-9.68,11.968L175.691,376.327z"/>
	<path fill="#F1F1F1" d="M212.87,376.327h-2.376l-18.084-27.236v27.236h-2.376v-31.328h2.376l18.084,27.148v-27.148h2.376V376.327z"
		/>
	<path fill="#F1F1F1" d="M239.578,376.327h-2.552l-2.729-7.612H219.69l-2.729,7.612h-2.552l11.528-31.328h2.111L239.578,376.327z
		 M233.55,366.604l-6.556-18.437l-6.556,18.437H233.55z"/>
	<path fill="#F1F1F1" d="M257.441,344.999l-10.296,31.328h-2.023l-10.296-31.328h2.508l8.8,27.148l8.8-27.148H257.441z"/>
	<path fill="#F1F1F1" d="M263.558,376.327h-2.376v-31.328h2.376V376.327z"/>
	<path fill="#F1F1F1" d="M289.562,365.415c0,3.197-0.852,5.72-2.552,7.568c-2.2,2.405-4.943,3.607-8.229,3.607
		c-3.08,0-5.69-1.07-7.832-3.212c-1.319-1.319-2.155-2.903-2.508-4.752c-0.264-1.349-0.396-4.004-0.396-7.964
		s0.132-6.614,0.397-7.964c0.353-1.848,1.192-3.432,2.518-4.752c2.15-2.141,4.772-3.212,7.864-3.212
		c2.769,0,5.133,0.836,7.091,2.508c1.959,1.672,3.174,3.887,3.646,6.644h-2.387c-0.472-2.17-1.452-3.886-2.94-5.147
		c-1.488-1.261-3.293-1.893-5.414-1.893c-2.357,0-4.347,0.808-5.968,2.421c-1.061,1.056-1.753,2.391-2.078,4.004
		c-0.235,1.319-0.353,3.783-0.353,7.392s0.116,6.072,0.352,7.392c0.322,1.614,1.012,2.948,2.068,4.005
		c1.612,1.613,3.593,2.42,5.939,2.42c2.669,0,4.84-1.013,6.513-3.036c1.261-1.525,1.892-3.593,1.892-6.204v-2.816h-8.404v-2.111
		h10.78V365.415z"/>
	<path fill="#F1F1F1" d="M315.214,376.327h-2.552l-2.729-7.612h-14.607l-2.729,7.612h-2.552l11.528-31.328h2.111L315.214,376.327z
		 M309.186,366.604l-6.556-18.437l-6.556,18.437H309.186z"/>
	<path fill="#F1F1F1" d="M331.626,347.111h-9.372v29.216h-2.376v-29.216h-9.328v-2.112h21.076V347.111z"/>
	<path fill="#F1F1F1" d="M337.784,376.327h-2.376v-31.328h2.376V376.327z"/>
	<path fill="#F1F1F1" d="M363.745,360.663c0,3.96-0.132,6.615-0.396,7.964c-0.352,1.849-1.188,3.433-2.508,4.752
		c-2.142,2.142-4.752,3.212-7.832,3.212s-5.69-1.07-7.832-3.212c-1.319-1.319-2.155-2.903-2.508-4.752
		c-0.264-1.349-0.396-4.004-0.396-7.964s0.132-6.614,0.396-7.964c0.353-1.848,1.188-3.432,2.508-4.752
		c2.142-2.141,4.752-3.212,7.832-3.212s5.69,1.071,7.832,3.212c1.32,1.32,2.156,2.904,2.508,4.752
		C363.613,354.049,363.745,356.703,363.745,360.663z M361.369,360.663c0-3.608-0.117-6.072-0.353-7.392
		c-0.322-1.613-1.012-2.948-2.067-4.004c-1.613-1.613-3.594-2.421-5.94-2.421s-4.327,0.808-5.939,2.421
		c-1.057,1.056-1.746,2.391-2.068,4.004c-0.235,1.319-0.352,3.783-0.352,7.392s0.116,6.072,0.352,7.392
		c0.322,1.614,1.012,2.948,2.068,4.005c1.612,1.613,3.593,2.42,5.939,2.42s4.327-0.807,5.94-2.42
		c1.056-1.057,1.745-2.391,2.067-4.005C361.252,366.735,361.369,364.271,361.369,360.663z"/>
	<path fill="#F1F1F1" d="M391.948,376.327h-2.376l-18.084-27.236v27.236h-2.376v-31.328h2.376l18.084,27.148v-27.148h2.376V376.327z
		"/>
	<path fill="#F1F1F1" d="M102.168,384.999l-7.832,31.328h-2.42l-7.392-27.28l-7.393,27.28h-2.42l-7.832-31.328h2.508l6.601,27.236
		l7.304-27.236h2.464l7.304,27.236l6.601-27.236H102.168z"/>
	<path fill="#F1F1F1" d="M108.416,416.327h-2.376v-31.328h2.376V416.327z"/>
	<path fill="#F1F1F1" d="M131.692,387.111h-9.372v29.216h-2.376v-29.216h-9.328v-2.112h21.076V387.111z"/>
	<path fill="#F1F1F1" d="M156.552,416.327h-2.376v-14.74h-16.324v14.74h-2.376v-31.328h2.376v14.477h16.324v-14.477h2.376V416.327z"
		/>
	<path fill="#F1F1F1" d="M88.396,427.111h-9.372v29.216h-2.376v-29.216H67.32v-2.112h21.076V427.111z"/>
	<path fill="#F1F1F1" d="M113.256,456.327h-2.376v-14.74H94.556v14.74H92.18v-31.328h2.376v14.477h16.324v-14.477h2.376V456.327z"/>
	<path fill="#F1F1F1" d="M140.008,446.163c0,3.051-1.005,5.552-3.014,7.502c-2.01,1.951-4.584,2.926-7.723,2.926
		s-5.713-0.975-7.722-2.926c-2.01-1.95-3.014-4.451-3.014-7.502v-21.164h2.376v20.856c0,2.581,0.762,4.664,2.288,6.248
		c1.524,1.584,3.549,2.376,6.071,2.376s4.547-0.792,6.072-2.376c1.524-1.584,2.288-3.667,2.288-6.248v-20.856h2.376V446.163z"/>
	<path fill="#F1F1F1" d="M171.688,456.327h-2.376v-25.828l-9.504,21.428h-2.376l-9.681-21.428v25.828h-2.376v-31.328h2.376
		l10.912,24.156l10.648-24.156h2.376V456.327z"/>
	<path fill="#F1F1F1" d="M198.483,447.791c0,2.729-0.821,4.833-2.464,6.314c-1.644,1.481-3.888,2.222-6.732,2.222h-11.88v-31.328
		h11.528c2.669,0,4.847,0.733,6.534,2.2c1.687,1.467,2.529,3.462,2.529,5.984c0,1.643-0.439,3.102-1.319,4.378
		c-0.88,1.275-2.068,2.163-3.564,2.662c1.701,0.557,3.021,1.503,3.96,2.838S198.483,445.973,198.483,447.791z M195.623,433.184
		c0-2.054-0.689-3.608-2.067-4.664c-1.203-0.938-2.831-1.408-4.885-1.408h-8.888v12.144h8.888c2.054,0,3.682-0.469,4.885-1.408
		C194.934,436.791,195.623,435.236,195.623,433.184z M196.107,447.791c0-1.994-0.646-3.563-1.937-4.708
		c-1.291-1.144-3.007-1.716-5.147-1.716h-9.24v12.848h9.24c2.141,0,3.856-0.571,5.147-1.716
		C195.462,451.355,196.107,449.786,196.107,447.791z"/>
	<path fill="#F1F1F1" d="M226.688,456.327h-2.376l-18.084-27.236v27.236h-2.376v-31.328h2.376l18.084,27.148v-27.148h2.376V456.327z
		"/>
	<path fill="#F1F1F1" d="M253.395,456.327h-2.552l-2.729-7.612h-14.607l-2.729,7.612h-2.552l11.528-31.328h2.111L253.395,456.327z
		 M247.366,446.604l-6.556-18.437l-6.556,18.437H247.366z"/>
	<path fill="#F1F1F1" d="M259.334,456.327h-2.376v-31.328h2.376V456.327z"/>
	<path fill="#F1F1F1" d="M284.062,456.327h-19.008v-31.328h2.376v29.216h16.632V456.327z"/>
	<path fill="#F1F1F1" d="M306.15,447.91c0,2.645-0.946,4.752-2.839,6.323c-1.892,1.572-4.466,2.357-7.722,2.357
		c-4.195,0-7.671-1.378-10.428-4.136l1.672-1.672c1.379,1.379,2.728,2.34,4.048,2.882c1.32,0.543,2.933,0.814,4.84,0.814
		c2.493,0,4.459-0.572,5.896-1.717c1.437-1.144,2.156-2.728,2.156-4.752c0-1.936-0.572-3.402-1.717-4.399
		c-0.909-0.792-2.42-1.349-4.531-1.672l-3.652-0.572c-5.368-0.851-8.052-3.534-8.052-8.052c0-2.61,0.872-4.693,2.618-6.248
		c1.744-1.555,4.113-2.332,7.105-2.332c3.402,0,6.409,1.129,9.021,3.388l-1.54,1.54c-2.172-1.965-4.708-2.948-7.612-2.948
		c-2.259,0-4.033,0.58-5.324,1.741c-1.291,1.16-1.936,2.739-1.936,4.736c0,1.822,0.542,3.188,1.628,4.099
		c1.173,0.999,2.728,1.646,4.664,1.938l3.388,0.529c2.522,0.382,4.385,1.072,5.588,2.07
		C305.24,443.328,306.15,445.354,306.15,447.91z"/>
</g>
<g>
	<g>
		<rect x="72.778" y="81" fill="#00b7f0" stroke="#FFFFFF" stroke-miterlimit="10" width="36.616" height="48.822"/>
		<rect x="109.132" y="81" fill="#00b7f0" stroke="#FFFFFF" stroke-miterlimit="10" width="36.616" height="48.822"/>
	</g>
	<rect x="154.562" y="81" fill="#00b7f0" stroke="#FFFFFF" stroke-miterlimit="10" width="36.616" height="48.822"/>
	<rect x="281.778" y="81" fill="#64CBF3" stroke="#FFFFFF" stroke-miterlimit="10" width="36.616" height="48.822"/>
	<g>
		<rect x="199.994" y="81" fill="#00b7f0" stroke="#FFFFFF" stroke-miterlimit="10" width="36.616" height="48.822"/>
		<rect x="236.348" y="81" fill="#00b7f0" stroke="#FFFFFF" stroke-miterlimit="10" width="36.616" height="48.822"/>
	</g>
</g>
<g>
	<rect x="94.087" y="139.178" fill="#00b7f0" stroke="#FFFFFF" stroke-miterlimit="10" width="101.865" height="135.822"/>
	<rect x="195.222" y="139.178" fill="#62CAF3" stroke="#FFFFFF" stroke-miterlimit="10" width="101.865" height="135.822"/>
	<polygon fill="#00b7f0" stroke="#FFFFFF" stroke-miterlimit="10" points="195,139.711 241.688,110 241.688,301 195,275.533 	"/>
</g>
</svg>
