<?xml version="1.0" encoding="utf-8"?>
<!-- Generator: Adobe Illustrator 16.0.0, SVG Export Plug-In . SVG Version: 6.00 Build 0)  -->
<svg version="1.2" baseProfile="tiny" id="Layer_1" xmlns="http://www.w3.org/2000/svg" xmlns:xlink="http://www.w3.org/1999/xlink"
	 x="0px" y="0px" width="450px" height="600px" viewBox="0 0 450 600" xml:space="preserve">
<g>
	<path fill="#F2F2F2" d="M73.216,327.327H70.84v-31.328h2.376V327.327z"/>
	<path fill="#F2F2F2" d="M99.881,305.02c0,2.787-0.88,4.986-2.641,6.601c-1.76,1.612-4.033,2.42-6.819,2.42h-9.108v13.288h-2.376
		V296h11.484c2.786,0,5.06,0.808,6.819,2.42C99.001,300.032,99.881,302.232,99.881,305.02z M97.505,305.02
		c0-2.287-0.689-4.033-2.068-5.235c-1.291-1.114-3.051-1.672-5.28-1.672h-8.844v13.815h8.844c2.229,0,4.012-0.577,5.347-1.737
		C96.837,309.029,97.505,307.309,97.505,305.02z"/>
	<path fill="#F2F2F2" d="M124.521,327.327h-2.376v-14.74H105.82v14.74h-2.376v-31.328h2.376v14.478h16.324v-14.478h2.376
		L124.521,327.327L124.521,327.327z"/>
	<path fill="#F2F2F2" d="M150.48,311.663c0,3.96-0.132,6.614-0.396,7.964c-0.352,1.85-1.188,3.434-2.508,4.752
		c-2.142,2.143-4.752,3.212-7.832,3.212s-5.69-1.069-7.832-3.212c-1.319-1.318-2.155-2.902-2.508-4.752
		c-0.264-1.35-0.396-4.004-0.396-7.964s0.132-6.614,0.396-7.964c0.353-1.848,1.188-3.432,2.508-4.752
		c2.142-2.141,4.752-3.212,7.832-3.212s5.69,1.071,7.832,3.212c1.32,1.32,2.156,2.905,2.508,4.752
		C150.349,305.049,150.48,307.703,150.48,311.663z M148.104,311.663c0-3.608-0.117-6.072-0.353-7.392
		c-0.322-1.613-1.012-2.948-2.067-4.004c-1.613-1.613-3.594-2.421-5.94-2.421c-2.346,0-4.327,0.808-5.939,2.421
		c-1.057,1.056-1.746,2.391-2.068,4.004c-0.235,1.318-0.352,3.783-0.352,7.392s0.116,6.071,0.352,7.392
		c0.322,1.614,1.012,2.948,2.068,4.006c1.612,1.612,3.593,2.42,5.939,2.42c2.346,0,4.327-0.808,5.94-2.42
		c1.056-1.058,1.745-2.392,2.067-4.006C147.987,317.734,148.104,315.271,148.104,311.663z"/>
	<path fill="#F2F2F2" d="M178.684,327.327h-2.376l-18.084-27.236v27.236h-2.376v-31.328h2.376l18.084,27.147v-27.147h2.376V327.327z
		"/>
	<path fill="#F2F2F2" d="M203.411,327.327h-19.008v-31.328h19.008v2.112h-16.632v12.364h14.168v2.111h-14.168v12.628h16.632V327.327
		z"/>
	<path fill="#F2F2F2" d="M73.216,367.327H70.84v-31.328h2.376V367.327z"/>
	<path fill="#F2F2F2" d="M99.881,345.02c0,2.787-0.88,4.986-2.641,6.601c-1.76,1.612-4.033,2.42-6.819,2.42h-9.108v13.288h-2.376
		V336h11.484c2.786,0,5.06,0.809,6.819,2.42C99.001,340.032,99.881,342.232,99.881,345.02z M97.505,345.02
		c0-2.287-0.689-4.033-2.068-5.235c-1.291-1.114-3.051-1.673-5.28-1.673h-8.844v13.815h8.844c2.229,0,4.012-0.577,5.347-1.737
		C96.837,349.029,97.505,347.309,97.505,345.02z"/>
	<path fill="#F2F2F2" d="M122.276,367.327h-2.552l-2.729-7.612h-14.607l-2.729,7.612h-2.552l11.528-31.328h2.111L122.276,367.327z
		 M116.248,357.604l-6.556-18.437l-6.556,18.437H116.248z"/>
	<path fill="#F2F2F2" d="M147.224,351.225c0,3.227-0.117,5.572-0.352,7.039c-0.411,2.758-1.306,4.825-2.684,6.203
		c-1.907,1.907-4.518,2.86-7.832,2.86H125.84v-31.328h10.517c3.314,0,5.925,0.954,7.832,2.86c1.378,1.379,2.272,3.3,2.684,5.764
		C147.106,345.943,147.224,348.145,147.224,351.225z M144.848,351.225c0-2.729-0.073-4.621-0.22-5.678
		c-0.323-2.229-1.027-3.9-2.112-5.016c-1.584-1.613-3.827-2.42-6.731-2.42h-7.568v27.104h7.568c2.904,0,5.147-0.806,6.731-2.42
		c1.085-1.113,1.789-2.934,2.112-5.456C144.774,356.137,144.848,354.1,144.848,351.225z"/>
	<path fill="#F2F2F2" d="M73.216,407.327H70.84v-31.328h2.376V407.327z"/>
	<path fill="#F2F2F2" d="M99.881,385.02c0,2.787-0.88,4.986-2.641,6.601c-1.76,1.612-4.033,2.42-6.819,2.42h-9.108v13.288h-2.376
		V376h11.484c2.786,0,5.06,0.809,6.819,2.42C99.001,380.032,99.881,382.232,99.881,385.02z M97.505,385.02
		c0-2.287-0.689-4.033-2.068-5.235c-1.291-1.114-3.051-1.673-5.28-1.673h-8.844v13.815h8.844c2.229,0,4.012-0.577,5.347-1.737
		C96.837,389.029,97.505,387.309,97.505,385.02z"/>
	<path fill="#F2F2F2" d="M123.685,391.663c0,3.96-0.132,6.614-0.396,7.964c-0.352,1.85-1.188,3.434-2.508,4.752
		c-2.142,2.143-4.752,3.212-7.832,3.212c-3.08,0-5.69-1.069-7.832-3.212c-1.319-1.318-2.155-2.902-2.508-4.752
		c-0.264-1.35-0.396-4.004-0.396-7.964s0.132-6.614,0.396-7.964c0.353-1.848,1.188-3.432,2.508-4.752
		c2.142-2.141,4.752-3.213,7.832-3.213c3.08,0,5.69,1.072,7.832,3.213c1.32,1.32,2.156,2.904,2.508,4.752
		C123.553,385.049,123.685,387.703,123.685,391.663z M121.309,391.663c0-3.608-0.117-6.072-0.353-7.392
		c-0.322-1.613-1.012-2.948-2.067-4.004c-1.613-1.613-3.594-2.422-5.94-2.422c-2.346,0-4.327,0.809-5.939,2.422
		c-1.057,1.056-1.746,2.391-2.068,4.004c-0.235,1.318-0.352,3.783-0.352,7.392s0.116,6.071,0.352,7.392
		c0.322,1.614,1.012,2.948,2.068,4.006c1.612,1.612,3.593,2.42,5.939,2.42c2.346,0,4.327-0.808,5.94-2.42
		c1.056-1.058,1.745-2.392,2.067-4.006C121.191,397.734,121.309,395.271,121.309,391.663z"/>
	<path fill="#F2F2F2" d="M150.437,391.225c0,3.227-0.117,5.572-0.352,7.039c-0.411,2.758-1.306,4.825-2.684,6.203
		c-1.907,1.907-4.518,2.86-7.832,2.86h-10.517v-31.328h10.517c3.314,0,5.925,0.954,7.832,2.86c1.378,1.379,2.272,3.3,2.684,5.764
		C150.319,385.943,150.437,388.145,150.437,391.225z M148.061,391.225c0-2.729-0.073-4.621-0.22-5.678
		c-0.323-2.229-1.027-3.9-2.112-5.016c-1.584-1.613-3.827-2.42-6.731-2.42h-7.568v27.104h7.568c2.904,0,5.147-0.806,6.731-2.42
		c1.085-1.113,1.789-2.934,2.112-5.456C147.987,396.137,148.061,394.1,148.061,391.225z"/>
	<path fill="#F2F2F2" d="M184.272,378.111H174.9v29.216h-2.376v-29.216h-9.328v-2.112h21.076V378.111L184.272,378.111z"/>
	<path fill="#F2F2F2" d="M205.523,391.663c0,3.96-0.132,6.614-0.396,7.964c-0.352,1.85-1.188,3.434-2.508,4.752
		c-2.142,2.143-4.752,3.212-7.832,3.212s-5.69-1.069-7.832-3.212c-1.319-1.318-2.155-2.902-2.508-4.752
		c-0.264-1.35-0.396-4.004-0.396-7.964s0.132-6.614,0.396-7.964c0.353-1.848,1.188-3.432,2.508-4.752
		c2.142-2.141,4.752-3.213,7.832-3.213s5.69,1.072,7.832,3.213c1.32,1.32,2.156,2.904,2.508,4.752
		C205.392,385.049,205.523,387.703,205.523,391.663z M203.147,391.663c0-3.608-0.117-6.072-0.353-7.392
		c-0.322-1.613-1.012-2.948-2.067-4.004c-1.613-1.613-3.594-2.422-5.94-2.422c-2.346,0-4.327,0.809-5.939,2.422
		c-1.057,1.056-1.746,2.391-2.068,4.004c-0.235,1.318-0.352,3.783-0.352,7.392s0.116,6.071,0.352,7.392
		c0.322,1.614,1.012,2.948,2.068,4.006c1.612,1.612,3.593,2.42,5.939,2.42c2.346,0,4.327-0.808,5.94-2.42
		c1.056-1.058,1.745-2.392,2.067-4.006C203.03,397.734,203.147,395.271,203.147,391.663z"/>
	<path fill="#F2F2F2" d="M231.924,397.163c0,3.051-1.005,5.552-3.014,7.502c-2.01,1.951-4.584,2.926-7.723,2.926
		s-5.713-0.975-7.722-2.926c-2.01-1.95-3.014-4.451-3.014-7.502v-21.164h2.376v20.856c0,2.58,0.762,4.664,2.288,6.248
		c1.524,1.584,3.549,2.375,6.071,2.375s4.546-0.791,6.072-2.375c1.524-1.584,2.288-3.668,2.288-6.248v-20.856h2.376v21.164H231.924z
		"/>
	<path fill="#F2F2F2" d="M257.443,398.439c-0.5,2.814-1.709,5.045-3.631,6.688c-1.922,1.645-4.262,2.464-7.019,2.464
		c-3.08,0-5.69-1.069-7.832-3.212c-1.319-1.318-2.155-2.902-2.508-4.752c-0.265-1.35-0.396-4.004-0.396-7.964
		s0.131-6.614,0.396-7.964c0.353-1.848,1.188-3.432,2.508-4.752c2.142-2.141,4.752-3.213,7.832-3.213
		c2.787,0,5.133,0.813,7.04,2.441c1.906,1.628,3.109,3.865,3.607,6.71h-2.42c-0.47-2.17-1.431-3.886-2.881-5.147
		c-1.453-1.26-3.234-1.893-5.348-1.893c-2.348,0-4.327,0.809-5.939,2.422c-1.057,1.055-1.746,2.391-2.067,4.004
		c-0.235,1.318-0.353,3.782-0.353,7.392c0,3.608,0.116,6.071,0.353,7.392c0.321,1.614,1.012,2.948,2.067,4.006
		c1.612,1.612,3.594,2.42,5.939,2.42c2.111,0,3.908-0.631,5.391-1.894c1.48-1.261,2.457-2.978,2.926-5.147H257.443L257.443,398.439z
		"/>
	<path fill="#F2F2F2" d="M282.128,407.327h-2.376v-14.74h-16.324v14.74h-2.376v-31.328h2.376v14.478h16.324v-14.478h2.376V407.327z"
		/>
	<path fill="#F2F2F2" d="M91.828,447.327h-2.552l-2.729-7.612H71.94l-2.729,7.612H66.66l11.528-31.328H80.3L91.828,447.327z
		 M85.8,437.604l-6.556-18.437l-6.556,18.437H85.8z"/>
	<path fill="#F2F2F2" d="M118.228,447.327h-2.376l-18.084-27.236v27.236h-2.376v-31.328h2.376l18.084,27.148v-27.148h2.376V447.327z
		"/>
	<path fill="#F2F2F2" d="M145.33,431.224c0,3.228-0.117,5.573-0.352,7.039c-0.411,2.759-1.306,4.826-2.684,6.204
		c-1.907,1.907-4.518,2.86-7.832,2.86h-10.517v-31.328h10.517c3.314,0,5.925,0.954,7.832,2.86c1.378,1.379,2.272,3.3,2.684,5.764
		C145.213,425.943,145.33,428.144,145.33,431.224z M142.954,431.224c0-2.729-0.073-4.62-0.22-5.677
		c-0.323-2.229-1.027-3.899-2.112-5.016c-1.584-1.613-3.827-2.42-6.731-2.42h-7.568v27.104h7.568c2.904,0,5.147-0.806,6.731-2.42
		c1.085-1.114,1.789-2.933,2.112-5.456C142.881,436.137,142.954,434.099,142.954,431.224z"/>
	<path fill="#F2F2F2" d="M171.95,447.327h-2.771l-7.48-14.433h-8.624v14.433h-2.376v-31.328h11.924c2.641,0,4.781,0.72,6.425,2.155
		c1.7,1.525,2.552,3.607,2.552,6.249c0,2.288-0.646,4.173-1.937,5.653c-1.291,1.481-3.051,2.413-5.279,2.794L171.95,447.327z
		 M169.223,424.447c0-2.083-0.646-3.682-1.937-4.797c-1.231-1.025-2.89-1.539-4.972-1.539h-9.24v12.672h9.24
		c2.082,0,3.754-0.535,5.016-1.606C168.591,428.106,169.223,426.53,169.223,424.447z"/>
	<path fill="#F2F2F2" d="M195.93,431.663c0,3.96-0.132,6.615-0.396,7.964c-0.352,1.849-1.188,3.433-2.508,4.752
		c-2.142,2.143-4.752,3.212-7.832,3.212s-5.69-1.069-7.832-3.212c-1.319-1.319-2.155-2.903-2.508-4.752
		c-0.264-1.349-0.396-4.004-0.396-7.964s0.132-6.614,0.396-7.964c0.353-1.849,1.188-3.432,2.508-4.752
		c2.142-2.141,4.752-3.213,7.832-3.213s5.69,1.072,7.832,3.213c1.32,1.32,2.156,2.903,2.508,4.752
		C195.798,425.049,195.93,427.703,195.93,431.663z M193.554,431.663c0-3.608-0.117-6.072-0.353-7.392
		c-0.322-1.613-1.012-2.948-2.067-4.004c-1.613-1.613-3.594-2.422-5.94-2.422c-2.346,0-4.327,0.809-5.939,2.422
		c-1.057,1.056-1.746,2.391-2.068,4.004c-0.235,1.318-0.352,3.782-0.352,7.392s0.116,6.072,0.352,7.392
		c0.322,1.614,1.012,2.948,2.068,4.005c1.612,1.613,3.593,2.421,5.939,2.421c2.346,0,4.327-0.808,5.94-2.421
		c1.056-1.057,1.745-2.391,2.067-4.005C193.437,437.735,193.554,435.271,193.554,431.663z"/>
	<path fill="#F2F2F2" d="M203.674,447.327h-2.376v-31.328h2.376V447.327z"/>
	<path fill="#F2F2F2" d="M230.777,431.224c0,3.228-0.117,5.573-0.353,7.039c-0.411,2.759-1.306,4.826-2.684,6.204
		c-1.907,1.907-4.518,2.86-7.832,2.86h-10.517v-31.328h10.517c3.314,0,5.925,0.954,7.832,2.86c1.378,1.379,2.272,3.3,2.684,5.764
		C230.66,425.943,230.777,428.144,230.777,431.224z M228.4,431.224c0-2.729-0.072-4.62-0.219-5.677
		c-0.324-2.229-1.027-3.899-2.113-5.016c-1.583-1.613-3.826-2.42-6.73-2.42h-7.568v27.104h7.568c2.904,0,5.147-0.806,6.73-2.42
		c1.086-1.114,1.789-2.933,2.113-5.456C228.328,436.137,228.4,434.099,228.4,431.224z"/>
	<path fill="#F2F2F2" d="M268.439,431.224c0,3.228-0.116,5.573-0.352,7.039c-0.411,2.759-1.306,4.826-2.684,6.204
		c-1.907,1.907-4.518,2.86-7.832,2.86h-10.518v-31.328h10.518c3.314,0,5.925,0.954,7.832,2.86c1.378,1.379,2.271,3.3,2.684,5.764
		C268.323,425.943,268.439,428.144,268.439,431.224z M266.064,431.224c0-2.729-0.073-4.62-0.221-5.677
		c-0.322-2.229-1.027-3.899-2.111-5.016c-1.584-1.613-3.828-2.42-6.731-2.42h-7.567v27.104h7.567c2.903,0,5.147-0.806,6.731-2.42
		c1.084-1.114,1.789-2.933,2.111-5.456C265.991,436.137,266.064,434.099,266.064,431.224z"/>
	<path fill="#F2F2F2" d="M292.816,447.327h-19.008v-31.328h19.008v2.112h-16.633v12.363h14.168v2.111h-14.168v12.628h16.633V447.327
		z"/>
	<path fill="#F2F2F2" d="M314.729,415.999l-10.296,31.328h-2.022l-10.296-31.328h2.508l8.8,27.148l8.8-27.148H314.729z"/>
	<path fill="#F2F2F2" d="M320.844,447.327h-2.376v-31.328h2.376V447.327z"/>
	<path fill="#F2F2F2" d="M346.717,438.439c-0.499,2.814-1.709,5.045-3.63,6.688c-1.922,1.645-4.262,2.464-7.019,2.464
		c-3.08,0-5.69-1.07-7.832-3.212c-1.319-1.319-2.155-2.903-2.509-4.752c-0.264-1.349-0.396-4.004-0.396-7.964
		s0.132-6.614,0.396-7.964c0.354-1.849,1.188-3.432,2.509-4.752c2.142-2.141,4.752-3.213,7.832-3.213
		c2.787,0,5.133,0.813,7.04,2.441c1.905,1.628,3.108,3.865,3.607,6.71h-2.42c-0.47-2.17-1.431-3.886-2.882-5.147
		c-1.452-1.26-3.234-1.893-5.347-1.893c-2.348,0-4.327,0.809-5.939,2.422c-1.057,1.056-1.746,2.391-2.068,4.003
		c-0.234,1.319-0.352,3.783-0.352,7.393c0,3.608,0.116,6.072,0.352,7.392c0.322,1.614,1.013,2.948,2.068,4.005
		c1.612,1.613,3.593,2.42,5.939,2.42c2.111,0,3.907-0.631,5.391-1.893c1.48-1.261,2.456-2.977,2.926-5.147H346.717L346.717,438.439z
		"/>
	<path fill="#F2F2F2" d="M369.332,447.327h-19.008v-31.328h19.008v2.112H352.7v12.363h14.168v2.111H352.7v12.628h16.632V447.327z"/>
	<path fill="#F2F2F2" d="M391.421,438.91c0,2.645-0.946,4.752-2.839,6.323c-1.892,1.571-4.466,2.356-7.722,2.356
		c-4.195,0-7.671-1.378-10.429-4.136l1.672-1.672c1.38,1.379,2.729,2.34,4.049,2.882c1.319,0.543,2.933,0.813,4.84,0.813
		c2.493,0,4.459-0.571,5.896-1.717c1.438-1.144,2.156-2.728,2.156-4.752c0-1.936-0.572-3.401-1.717-4.398
		c-0.909-0.792-2.42-1.35-4.531-1.673l-3.652-0.571c-5.367-0.852-8.052-3.534-8.052-8.052c0-2.61,0.872-4.693,2.618-6.248
		c1.744-1.555,4.113-2.332,7.105-2.332c3.401,0,6.408,1.129,9.021,3.388l-1.54,1.54c-2.172-1.965-4.708-2.948-7.612-2.948
		c-2.259,0-4.032,0.58-5.323,1.741c-1.291,1.16-1.937,2.739-1.937,4.736c0,1.821,0.542,3.188,1.628,4.099
		c1.173,0.999,2.729,1.646,4.664,1.938l3.388,0.529c2.522,0.382,4.386,1.072,5.589,2.07
		C390.511,434.328,391.421,436.354,391.421,438.91z"/>
</g>
<g>
	<path fill="#00b7f0" stroke="#F2F2F2" stroke-miterlimit="10" d="M165.278,268.017c0,2.423-1.964,4.388-4.388,4.388H73.139
		c-2.424,0-4.388-1.965-4.388-4.388V136.389c0-2.424,1.964-4.389,4.388-4.389h87.752c2.424,0,4.388,1.965,4.388,4.389
		L165.278,268.017L165.278,268.017z"/>
	<rect x="75.332" y="146.26" fill="#00b7f0" stroke="#F2F2F2" stroke-miterlimit="10" width="83.365" height="111.885"/>
	<path fill="#00b7f0" stroke="#F2F2F2" stroke-miterlimit="10" d="M219.612,230.723c2.424,0,4.388,1.964,4.388,4.387v32.907
		c0,2.423-1.964,4.388-4.388,4.388H138.44c-2.422,0-4.386-1.965-4.386-4.388V235.11c0-2.423,1.964-4.387,4.386-4.387H219.612z"/>
	<rect x="148.313" y="234.013" fill="#00b7f0" stroke="#F2F2F2" stroke-miterlimit="10" width="61.427" height="35.102"/>
</g>
</svg>
