<?xml version="1.0" encoding="utf-8"?>
<!-- Generator: Adobe Illustrator 16.0.0, SVG Export Plug-In . SVG Version: 6.00 Build 0)  -->
<svg version="1.2" baseProfile="tiny" id="Layer_1" xmlns="http://www.w3.org/2000/svg" xmlns:xlink="http://www.w3.org/1999/xlink"
	 x="0px" y="0px" width="450px" height="600px" viewBox="0 0 450 600" xml:space="preserve">
<g>
	<path fill="#F1F1F1" d="M91.872,340.163c0,3.051-1.005,5.552-3.014,7.502c-2.01,1.951-4.584,2.926-7.723,2.926
		s-5.713-0.975-7.722-2.926c-2.01-1.95-3.014-4.451-3.014-7.502v-21.164h2.376v20.856c0,2.581,0.762,4.664,2.288,6.248
		c1.524,1.584,3.549,2.376,6.071,2.376s4.547-0.792,6.072-2.376c1.524-1.584,2.288-3.667,2.288-6.248v-20.856h2.376V340.163z"/>
	<path fill="#F1F1F1" d="M120.076,350.327H117.7l-18.084-27.236v27.236H97.24v-31.328h2.376l18.084,27.148v-27.148h2.376V350.327z"
		/>
	<path fill="#F1F1F1" d="M144.803,350.327h-19.008v-31.328h2.376v29.216h16.632V350.327z"/>
	<path fill="#F1F1F1" d="M150.875,350.327h-2.376v-31.328h2.376V350.327z"/>
	<path fill="#F1F1F1" d="M182.907,350.327h-2.376v-25.828l-9.504,21.428h-2.376l-9.681-21.428v25.828h-2.376v-31.328h2.376
		l10.912,24.156l10.648-24.156h2.376V350.327z"/>
	<path fill="#F1F1F1" d="M191.003,350.327h-2.376v-31.328h2.376V350.327z"/>
	<path fill="#F1F1F1" d="M214.279,321.111h-9.372v29.216h-2.376v-29.216h-9.328v-2.112h21.076V321.111z"/>
	<path fill="#F1F1F1" d="M237.07,350.327h-19.008v-31.328h19.008v2.112h-16.632v12.364h14.168v2.111h-14.168v12.628h16.632V350.327z
		"/>
	<path fill="#F1F1F1" d="M262.149,334.224c0,3.227-0.117,5.573-0.352,7.039c-0.411,2.758-1.306,4.826-2.684,6.204
		c-1.907,1.907-4.518,2.86-7.832,2.86h-10.517v-31.328h10.517c3.314,0,5.925,0.954,7.832,2.86c1.378,1.379,2.272,3.3,2.684,5.764
		C262.032,328.943,262.149,331.144,262.149,334.224z M259.773,334.224c0-2.729-0.073-4.62-0.22-5.677
		c-0.323-2.229-1.027-3.9-2.112-5.016c-1.584-1.613-3.827-2.42-6.731-2.42h-7.568v27.104h7.568c2.904,0,5.147-0.806,6.731-2.42
		c1.085-1.114,1.789-2.933,2.112-5.456C259.7,339.137,259.773,337.099,259.773,334.224z"/>
	<path fill="#F1F1F1" d="M92.224,374.224c0,3.227-0.117,5.573-0.352,7.039c-0.411,2.758-1.306,4.826-2.684,6.204
		c-1.907,1.907-4.518,2.86-7.832,2.86H70.84v-31.328h10.517c3.314,0,5.925,0.954,7.832,2.86c1.378,1.379,2.272,3.3,2.684,5.764
		C92.106,368.943,92.224,371.144,92.224,374.224z M89.848,374.224c0-2.729-0.073-4.62-0.22-5.677
		c-0.323-2.229-1.027-3.9-2.112-5.016c-1.584-1.613-3.827-2.42-6.731-2.42h-7.568v27.104h7.568c2.904,0,5.147-0.806,6.731-2.42
		c1.085-1.114,1.789-2.933,2.112-5.456C89.774,379.137,89.848,377.099,89.848,374.224z"/>
	<path fill="#F1F1F1" d="M116.6,390.327H97.592v-31.328H116.6v2.112H99.968v12.364h14.168v2.111H99.968v12.628H116.6V390.327z"/>
	<path fill="#F1F1F1" d="M141.239,368.02c0,2.787-0.88,4.986-2.641,6.6c-1.76,1.613-4.033,2.42-6.819,2.42h-9.108v13.288h-2.376
		v-31.328h11.484c2.786,0,5.06,0.808,6.819,2.42C140.359,363.032,141.239,365.232,141.239,368.02z M138.863,368.02
		c0-2.288-0.689-4.033-2.068-5.236c-1.291-1.114-3.051-1.672-5.28-1.672h-8.844v13.815h8.844c2.229,0,4.012-0.578,5.347-1.737
		C138.195,372.03,138.863,370.308,138.863,368.02z"/>
	<path fill="#F1F1F1" d="M162.359,361.111h-9.372v29.216h-2.376v-29.216h-9.328v-2.112h21.076V361.111z"/>
	<path fill="#F1F1F1" d="M187.218,390.327h-2.376v-14.74h-16.324v14.74h-2.376v-31.328h2.376v14.477h16.324v-14.477h2.376V390.327z"
		/>
	<path fill="#F1F1F1" d="M88.396,401.111h-9.372v29.216h-2.376v-29.216H67.32v-2.112h21.076V401.111z"/>
	<path fill="#F1F1F1" d="M113.432,430.327h-2.771l-7.48-14.432h-8.624v14.432H92.18v-31.328h11.924c2.641,0,4.781,0.72,6.425,2.156
		c1.7,1.525,2.552,3.607,2.552,6.248c0,2.288-0.646,4.173-1.937,5.654s-3.051,2.413-5.279,2.794L113.432,430.327z M110.704,407.447
		c0-2.083-0.646-3.681-1.937-4.796c-1.231-1.026-2.89-1.54-4.972-1.54h-9.24v12.672h9.24c2.082,0,3.754-0.535,5.016-1.606
		C110.072,411.106,110.704,409.53,110.704,407.447z"/>
	<path fill="#F1F1F1" d="M139.259,430.327h-2.552l-2.729-7.612h-14.607l-2.729,7.612h-2.552l11.528-31.328h2.111L139.259,430.327z
		 M133.23,420.604l-6.556-18.437l-6.556,18.437H133.23z"/>
	<path fill="#F1F1F1" d="M165.658,430.327h-2.376l-18.084-27.236v27.236h-2.376v-31.328h2.376l18.084,27.148v-27.148h2.376V430.327z
		"/>
	<path fill="#F1F1F1" d="M189.77,421.91c0,2.645-0.946,4.752-2.839,6.323c-1.892,1.572-4.466,2.357-7.722,2.357
		c-4.195,0-7.671-1.378-10.428-4.136l1.672-1.672c1.379,1.379,2.728,2.34,4.048,2.882c1.32,0.543,2.933,0.814,4.84,0.814
		c2.493,0,4.459-0.572,5.896-1.717c1.437-1.144,2.156-2.728,2.156-4.752c0-1.936-0.572-3.402-1.717-4.399
		c-0.909-0.792-2.42-1.349-4.531-1.672l-3.652-0.572c-5.368-0.851-8.052-3.534-8.052-8.052c0-2.61,0.872-4.693,2.618-6.248
		c1.744-1.555,4.113-2.332,7.105-2.332c3.402,0,6.409,1.129,9.021,3.388l-1.54,1.54c-2.172-1.965-4.708-2.948-7.612-2.948
		c-2.259,0-4.033,0.58-5.324,1.741c-1.291,1.16-1.936,2.739-1.936,4.736c0,1.822,0.542,3.188,1.628,4.099
		c1.173,0.999,2.728,1.646,4.664,1.938l3.388,0.529c2.522,0.382,4.385,1.072,5.588,2.07
		C188.859,417.328,189.77,419.354,189.77,421.91z"/>
	<path fill="#F1F1F1" d="M214.806,408.02c0,2.787-0.88,4.986-2.641,6.6c-1.76,1.613-4.033,2.42-6.819,2.42h-9.108v13.288h-2.376
		v-31.328h11.484c2.786,0,5.06,0.808,6.819,2.42C213.926,403.032,214.806,405.232,214.806,408.02z M212.43,408.02
		c0-2.288-0.689-4.033-2.068-5.236c-1.291-1.114-3.051-1.672-5.28-1.672h-8.844v13.815h8.844c2.229,0,4.012-0.578,5.347-1.737
		C211.762,412.03,212.43,410.308,212.43,408.02z"/>
	<path fill="#F1F1F1" d="M237.2,430.327h-2.552l-2.729-7.612h-14.607l-2.729,7.612h-2.552l11.528-31.328h2.111L237.2,430.327z
		 M231.172,420.604l-6.556-18.437l-6.556,18.437H231.172z"/>
	<path fill="#F1F1F1" d="M262.016,430.327h-2.771l-7.48-14.432h-8.624v14.432h-2.376v-31.328h11.924c2.641,0,4.781,0.72,6.425,2.156
		c1.7,1.525,2.552,3.607,2.552,6.248c0,2.288-0.646,4.173-1.937,5.654s-3.051,2.413-5.279,2.794L262.016,430.327z M259.288,407.447
		c0-2.083-0.646-3.681-1.937-4.796c-1.231-1.026-2.89-1.54-4.972-1.54h-9.24v12.672h9.24c2.082,0,3.754-0.535,5.016-1.606
		C258.656,411.106,259.288,409.53,259.288,407.447z"/>
	<path fill="#F1F1F1" d="M285.862,430.327h-19.008v-31.328h19.008v2.112H269.23v12.364h14.168v2.111H269.23v12.628h16.632V430.327z"
		/>
	<path fill="#F1F1F1" d="M312.395,430.327h-2.376l-18.084-27.236v27.236h-2.376v-31.328h2.376l18.084,27.148v-27.148h2.376V430.327z
		"/>
	<path fill="#F1F1F1" d="M338.267,421.439c-0.499,2.815-1.709,5.045-3.63,6.688c-1.922,1.644-4.262,2.464-7.019,2.464
		c-3.08,0-5.69-1.07-7.832-3.212c-1.319-1.319-2.155-2.903-2.508-4.752c-0.264-1.349-0.396-4.004-0.396-7.964
		s0.132-6.614,0.396-7.964c0.353-1.848,1.188-3.432,2.508-4.752c2.142-2.141,4.752-3.212,7.832-3.212
		c2.787,0,5.133,0.813,7.04,2.441c1.906,1.628,3.109,3.865,3.608,6.71h-2.42c-0.47-2.17-1.431-3.886-2.882-5.147
		c-1.452-1.261-3.234-1.893-5.347-1.893c-2.347,0-4.327,0.808-5.939,2.421c-1.057,1.056-1.746,2.391-2.068,4.004
		c-0.235,1.319-0.352,3.783-0.352,7.392s0.116,6.072,0.352,7.392c0.322,1.614,1.012,2.948,2.068,4.005
		c1.612,1.613,3.593,2.42,5.939,2.42c2.112,0,3.908-0.631,5.391-1.893c1.48-1.261,2.456-2.977,2.926-5.147H338.267z"/>
	<path fill="#F1F1F1" d="M358.33,398.999l-9.24,18.348v12.98h-2.376v-12.98l-9.239-18.348h2.552l7.964,15.84l7.788-15.84H358.33z"/>
</g>
<g>
	<rect x="72" y="113.711" fill="#00b7f0" stroke="#F2F2F2" stroke-miterlimit="10" width="101.865" height="135.822"/>
	<rect x="173.135" y="113.711" fill="#00b7f0" stroke="#F2F2F2" stroke-miterlimit="10" width="101.865" height="135.822"/>
	<g style="opacity: 0.6;"><polygon fill="#00b7f0" points="173.135,113.711 266.513,100.979 266.513,262.267 173.135,249.533 	"/></g>
	<g style="opacity: 0.6;"><polygon fill="#00b7f0" points="173,113.711 136.135,78 136.135,281 173,249.533 	"/></g>
	<polygon fill="none" stroke="#F2F2F2" stroke-miterlimit="10" points="173.135,113.711 266.513,100.979 266.513,262.267 
		173.135,249.533 	"/>
	<g style="opacity: 0.6;"><polygon fill="#00b7f0" points="173.135,113.711 219.823,84 219.823,275 173.135,249.533 	"/></g>
	<polygon fill="none" stroke="#F2F2F2" stroke-miterlimit="10" points="173,113.711 219.688,84 219.688,275 173,249.533 	"/>
	<polygon fill="none" stroke="#F2F2F2" stroke-miterlimit="10" points="173,113.711 136.135,78 136.135,281 173,249.533 	"/>
</g>
</svg>
