<?xml version="1.0" encoding="utf-8"?>
<!-- Generator: Adobe Illustrator 16.0.0, SVG Export Plug-In . SVG Version: 6.00 Build 0)  -->
<svg version="1.2" baseProfile="tiny" id="Layer_1" xmlns="http://www.w3.org/2000/svg" xmlns:xlink="http://www.w3.org/1999/xlink"
	 x="0px" y="0px" width="450px" height="600px" viewBox="0 0 450 600" xml:space="preserve">
<g>
	<path fill="#F1F1F1" d="M89.848,201.327H70.84v-31.328h19.008v2.112H73.216v12.364h14.168v2.111H73.216v12.628h16.632V201.327z"/>
	<path fill="#F1F1F1" d="M114.532,201.327h-2.552l-2.729-7.612H94.645l-2.729,7.612h-2.552l11.528-31.328h2.111L114.532,201.327z
		 M108.504,191.604l-6.556-18.437l-6.556,18.437H108.504z"/>
	<path fill="#F1F1F1" d="M136.487,192.91c0,2.645-0.946,4.752-2.839,6.323c-1.892,1.572-4.466,2.357-7.722,2.357
		c-4.195,0-7.671-1.378-10.428-4.136l1.672-1.672c1.379,1.379,2.728,2.34,4.048,2.882c1.32,0.543,2.933,0.814,4.84,0.814
		c2.493,0,4.459-0.572,5.896-1.717c1.437-1.144,2.156-2.728,2.156-4.752c0-1.936-0.572-3.402-1.717-4.399
		c-0.909-0.792-2.42-1.349-4.531-1.672l-3.652-0.572c-5.368-0.851-8.052-3.534-8.052-8.052c0-2.61,0.872-4.693,2.618-6.248
		c1.744-1.555,4.113-2.332,7.105-2.332c3.402,0,6.409,1.129,9.021,3.388l-1.54,1.54c-2.172-1.965-4.708-2.948-7.612-2.948
		c-2.259,0-4.033,0.58-5.324,1.741c-1.291,1.16-1.936,2.739-1.936,4.736c0,1.822,0.542,3.188,1.628,4.099
		c1.173,0.999,2.728,1.646,4.664,1.938l3.388,0.529c2.522,0.382,4.385,1.072,5.588,2.07
		C135.577,188.328,136.487,190.354,136.487,192.91z"/>
	<path fill="#F1F1F1" d="M157.035,169.999l-9.24,18.348v12.98h-2.376v-12.98l-9.239-18.348h2.552l7.964,15.84l7.788-15.84H157.035z"
		/>
	<path fill="#F1F1F1" d="M190.826,201.327h-19.008v-31.328h2.376v29.216h16.632V201.327z"/>
	<path fill="#F1F1F1" d="M196.897,201.327h-2.376v-31.328h2.376V201.327z"/>
	<path fill="#F1F1F1" d="M225.454,201.327h-2.376l-18.084-27.236v27.236h-2.376v-31.328h2.376l18.084,27.148v-27.148h2.376V201.327z
		"/>
	<path fill="#F1F1F1" d="M253.921,201.327h-2.815l-10.076-17.556l-7.48,9.063v8.492h-2.376v-31.328h2.376v19.58l15.884-19.58h2.86
		l-9.68,11.968L253.921,201.327z"/>
	<path fill="#F1F1F1" d="M259.729,201.327h-2.376v-31.328h2.376V201.327z"/>
	<path fill="#F1F1F1" d="M288.285,201.327h-2.376l-18.084-27.236v27.236h-2.376v-31.328h2.376l18.084,27.148v-27.148h2.376V201.327z
		"/>
	<path fill="#F1F1F1" d="M314.288,190.415c0,3.197-0.852,5.72-2.552,7.568c-2.2,2.405-4.943,3.607-8.229,3.607
		c-3.08,0-5.69-1.07-7.832-3.212c-1.319-1.319-2.155-2.903-2.508-4.752c-0.264-1.349-0.396-4.004-0.396-7.964
		s0.132-6.614,0.397-7.964c0.353-1.848,1.192-3.432,2.518-4.752c2.15-2.141,4.772-3.212,7.864-3.212
		c2.769,0,5.133,0.836,7.091,2.508c1.959,1.672,3.174,3.887,3.646,6.644h-2.387c-0.472-2.17-1.452-3.886-2.94-5.147
		c-1.488-1.261-3.293-1.893-5.414-1.893c-2.357,0-4.347,0.808-5.968,2.421c-1.061,1.056-1.753,2.391-2.078,4.004
		c-0.235,1.319-0.353,3.783-0.353,7.392s0.116,6.072,0.352,7.392c0.322,1.614,1.012,2.948,2.068,4.005
		c1.612,1.613,3.593,2.42,5.939,2.42c2.669,0,4.84-1.013,6.513-3.036c1.261-1.525,1.892-3.593,1.892-6.204v-2.816h-8.404v-2.111
		h10.78V190.415z"/>
	<path fill="#F1F1F1" d="M347.42,172.111h-9.372v29.216h-2.376v-29.216h-9.328v-2.112h21.076V172.111z"/>
	<path fill="#F1F1F1" d="M368.672,185.663c0,3.96-0.132,6.615-0.396,7.964c-0.352,1.849-1.188,3.433-2.508,4.752
		c-2.142,2.142-4.752,3.212-7.832,3.212s-5.69-1.07-7.832-3.212c-1.319-1.319-2.155-2.903-2.508-4.752
		c-0.264-1.349-0.396-4.004-0.396-7.964s0.132-6.614,0.396-7.964c0.353-1.848,1.188-3.432,2.508-4.752
		c2.142-2.141,4.752-3.212,7.832-3.212s5.69,1.071,7.832,3.212c1.32,1.32,2.156,2.904,2.508,4.752
		C368.54,179.049,368.672,181.703,368.672,185.663z M366.296,185.663c0-3.608-0.117-6.072-0.353-7.392
		c-0.322-1.613-1.012-2.948-2.067-4.004c-1.613-1.613-3.594-2.421-5.94-2.421s-4.327,0.808-5.939,2.421
		c-1.057,1.056-1.746,2.391-2.068,4.004c-0.235,1.319-0.352,3.783-0.352,7.392s0.116,6.072,0.352,7.392
		c0.322,1.614,1.012,2.948,2.068,4.005c1.612,1.613,3.593,2.42,5.939,2.42s4.327-0.807,5.94-2.42
		c1.056-1.057,1.745-2.391,2.067-4.005C366.179,191.735,366.296,189.271,366.296,185.663z"/>
	<path fill="#F1F1F1" d="M91.784,219.02c0,2.787-0.88,4.986-2.641,6.6c-1.76,1.613-4.033,2.42-6.819,2.42h-9.108v13.288H70.84
		v-31.328h11.484c2.786,0,5.06,0.808,6.819,2.42C90.904,214.032,91.784,216.232,91.784,219.02z M89.408,219.02
		c0-2.288-0.689-4.033-2.068-5.236c-1.291-1.114-3.051-1.672-5.28-1.672h-8.844v13.815h8.844c2.229,0,4.012-0.578,5.347-1.737
		C88.74,223.03,89.408,221.308,89.408,219.02z"/>
	<path fill="#F1F1F1" d="M114.181,241.327h-2.552l-2.729-7.612H94.293l-2.729,7.612h-2.552l11.528-31.328h2.111L114.181,241.327z
		 M108.152,231.604l-6.556-18.437l-6.556,18.437H108.152z"/>
	<path fill="#F1F1F1" d="M136.136,230.415c0,3.197-0.852,5.72-2.552,7.568c-2.2,2.405-4.943,3.607-8.229,3.607
		c-3.08,0-5.69-1.07-7.832-3.212c-1.319-1.319-2.155-2.903-2.508-4.752c-0.264-1.349-0.396-4.004-0.396-7.964
		s0.132-6.614,0.397-7.964c0.353-1.848,1.192-3.432,2.518-4.752c2.15-2.141,4.772-3.212,7.864-3.212
		c2.769,0,5.133,0.836,7.091,2.508c1.959,1.672,3.174,3.887,3.646,6.644h-2.387c-0.472-2.17-1.452-3.886-2.94-5.147
		c-1.488-1.261-3.293-1.893-5.414-1.893c-2.357,0-4.347,0.808-5.968,2.421c-1.061,1.056-1.753,2.391-2.078,4.004
		c-0.235,1.319-0.353,3.783-0.353,7.392s0.116,6.072,0.352,7.392c0.322,1.614,1.012,2.948,2.068,4.005
		c1.612,1.613,3.593,2.42,5.939,2.42c2.669,0,4.84-1.013,6.513-3.036c1.261-1.525,1.892-3.593,1.892-6.204v-2.816h-8.404v-2.111
		h10.78V230.415z"/>
	<path fill="#F1F1F1" d="M159.808,241.327H140.8v-31.328h19.008v2.112h-16.632v12.364h14.168v2.111h-14.168v12.628h16.632V241.327z"
		/>
	<path fill="#F1F1F1" d="M181.896,232.91c0,2.645-0.946,4.752-2.839,6.323c-1.892,1.572-4.466,2.357-7.722,2.357
		c-4.195,0-7.671-1.378-10.428-4.136l1.672-1.672c1.379,1.379,2.728,2.34,4.048,2.882c1.32,0.543,2.933,0.814,4.84,0.814
		c2.493,0,4.459-0.572,5.896-1.717c1.437-1.144,2.156-2.728,2.156-4.752c0-1.936-0.572-3.402-1.717-4.399
		c-0.909-0.792-2.42-1.349-4.531-1.672l-3.652-0.572c-5.368-0.851-8.052-3.534-8.052-8.052c0-2.61,0.872-4.693,2.618-6.248
		c1.744-1.555,4.113-2.332,7.105-2.332c3.402,0,6.409,1.129,9.021,3.388l-1.54,1.54c-2.172-1.965-4.708-2.948-7.612-2.948
		c-2.259,0-4.033,0.58-5.324,1.741c-1.291,1.16-1.936,2.739-1.936,4.736c0,1.822,0.542,3.188,1.628,4.099
		c1.173,0.999,2.728,1.646,4.664,1.938l3.388,0.529c2.522,0.382,4.385,1.072,5.588,2.07
		C180.985,228.328,181.896,230.354,181.896,232.91z"/>
	<path fill="#F1F1F1" d="M215.906,212.111h-16.632v12.892h14.168v2.112h-14.168v14.212h-2.376v-31.328h19.008V212.111z"/>
	<path fill="#F1F1F1" d="M240.854,241.327h-2.771l-7.48-14.432h-8.624v14.432h-2.376v-31.328h11.924c2.641,0,4.781,0.72,6.425,2.156
		c1.7,1.525,2.552,3.607,2.552,6.248c0,2.288-0.646,4.173-1.937,5.654s-3.051,2.413-5.279,2.794L240.854,241.327z M238.127,218.447
		c0-2.083-0.646-3.681-1.937-4.796c-1.231-1.026-2.89-1.54-4.972-1.54h-9.24v12.672h9.24c2.082,0,3.754-0.535,5.016-1.606
		C237.495,222.106,238.127,220.53,238.127,218.447z"/>
	<path fill="#F1F1F1" d="M264.834,225.663c0,3.96-0.132,6.615-0.396,7.964c-0.352,1.849-1.188,3.433-2.508,4.752
		c-2.142,2.142-4.752,3.212-7.832,3.212s-5.69-1.07-7.832-3.212c-1.319-1.319-2.155-2.903-2.508-4.752
		c-0.264-1.349-0.396-4.004-0.396-7.964s0.132-6.614,0.396-7.964c0.353-1.848,1.188-3.432,2.508-4.752
		c2.142-2.141,4.752-3.212,7.832-3.212s5.69,1.071,7.832,3.212c1.32,1.32,2.156,2.904,2.508,4.752
		C264.702,219.049,264.834,221.703,264.834,225.663z M262.458,225.663c0-3.608-0.117-6.072-0.353-7.392
		c-0.322-1.613-1.012-2.948-2.067-4.004c-1.613-1.613-3.594-2.421-5.94-2.421s-4.327,0.808-5.939,2.421
		c-1.057,1.056-1.746,2.391-2.068,4.004c-0.235,1.319-0.352,3.783-0.352,7.392s0.116,6.072,0.352,7.392
		c0.322,1.614,1.012,2.948,2.068,4.005c1.612,1.613,3.593,2.42,5.939,2.42s4.327-0.807,5.94-2.42
		c1.056-1.057,1.745-2.391,2.067-4.005C262.341,231.735,262.458,229.271,262.458,225.663z"/>
	<path fill="#F1F1F1" d="M296.515,241.327h-2.376v-25.828l-9.504,21.428h-2.376l-9.681-21.428v25.828h-2.376v-31.328h2.376
		l10.912,24.156l10.648-24.156h2.376V241.327z"/>
	<path fill="#F1F1F1" d="M334.134,241.327h-2.552l-2.729-7.612h-14.607l-2.729,7.612h-2.552l11.528-31.328h2.111L334.134,241.327z
		 M328.105,231.604l-6.556-18.437l-6.556,18.437H328.105z"/>
	<path fill="#F1F1F1" d="M360.533,241.327h-2.376l-18.084-27.236v27.236h-2.376v-31.328h2.376l18.084,27.148v-27.148h2.376V241.327z
		"/>
	<path fill="#F1F1F1" d="M382.708,209.999l-9.24,18.348v12.98h-2.376v-12.98l-9.239-18.348h2.552l7.964,15.84l7.788-15.84H382.708z"
		/>
	<path fill="#F1F1F1" d="M91.916,281.327H89.54v-14.74H73.216v14.74H70.84v-31.328h2.376v14.477H89.54v-14.477h2.376V281.327z"/>
	<path fill="#F1F1F1" d="M115.192,252.111h-9.372v29.216h-2.376v-29.216h-9.328v-2.112h21.076V252.111z"/>
	<path fill="#F1F1F1" d="M145.287,281.327h-2.376v-25.828l-9.504,21.428h-2.376l-9.681-21.428v25.828h-2.376v-31.328h2.376
		l10.912,24.156l10.648-24.156h2.376V281.327z"/>
	<path fill="#F1F1F1" d="M170.015,281.327h-19.008v-31.328h2.376v29.216h16.632V281.327z"/>
	<path fill="#F1F1F1" d="M204.774,272.439c-0.499,2.815-1.709,5.045-3.63,6.688c-1.922,1.644-4.262,2.464-7.019,2.464
		c-3.08,0-5.69-1.07-7.832-3.212c-1.319-1.319-2.155-2.903-2.508-4.752c-0.264-1.349-0.396-4.004-0.396-7.964
		s0.132-6.614,0.396-7.964c0.353-1.848,1.188-3.432,2.508-4.752c2.142-2.141,4.752-3.212,7.832-3.212
		c2.787,0,5.133,0.813,7.04,2.441c1.906,1.628,3.109,3.865,3.608,6.71h-2.42c-0.47-2.17-1.431-3.886-2.882-5.147
		c-1.452-1.261-3.234-1.893-5.347-1.893c-2.347,0-4.327,0.808-5.939,2.421c-1.057,1.056-1.746,2.391-2.068,4.004
		c-0.235,1.319-0.352,3.783-0.352,7.392s0.116,6.072,0.352,7.392c0.322,1.614,1.012,2.948,2.068,4.005
		c1.612,1.613,3.593,2.42,5.939,2.42c2.112,0,3.908-0.631,5.391-1.893c1.48-1.261,2.456-2.977,2.926-5.147H204.774z"/>
	<path fill="#F1F1F1" d="M228.622,265.663c0,3.96-0.132,6.615-0.396,7.964c-0.352,1.849-1.188,3.433-2.508,4.752
		c-2.142,2.142-4.752,3.212-7.832,3.212s-5.69-1.07-7.832-3.212c-1.319-1.319-2.155-2.903-2.508-4.752
		c-0.264-1.349-0.396-4.004-0.396-7.964s0.132-6.614,0.396-7.964c0.353-1.848,1.188-3.432,2.508-4.752
		c2.142-2.141,4.752-3.212,7.832-3.212s5.69,1.071,7.832,3.212c1.32,1.32,2.156,2.904,2.508,4.752
		C228.49,259.049,228.622,261.703,228.622,265.663z M226.246,265.663c0-3.608-0.117-6.072-0.353-7.392
		c-0.322-1.613-1.012-2.948-2.067-4.004c-1.613-1.613-3.594-2.421-5.94-2.421s-4.327,0.808-5.939,2.421
		c-1.057,1.056-1.746,2.391-2.068,4.004c-0.235,1.319-0.352,3.783-0.352,7.392s0.116,6.072,0.352,7.392
		c0.322,1.614,1.012,2.948,2.068,4.005c1.612,1.613,3.593,2.42,5.939,2.42s4.327-0.807,5.94-2.42
		c1.056-1.057,1.745-2.391,2.067-4.005C226.129,271.735,226.246,269.271,226.246,265.663z"/>
	<path fill="#F1F1F1" d="M256.826,281.327h-2.376l-18.084-27.236v27.236h-2.376v-31.328h2.376l18.084,27.148v-27.148h2.376V281.327z
		"/>
	<path fill="#F1F1F1" d="M280.102,252.111h-9.372v29.216h-2.376v-29.216h-9.328v-2.112h21.076V252.111z"/>
	<path fill="#F1F1F1" d="M302.893,281.327h-19.008v-31.328h19.008v2.112h-16.632v12.364h14.168v2.111h-14.168v12.628h16.632V281.327
		z"/>
	<path fill="#F1F1F1" d="M329.425,281.327h-2.376l-18.084-27.236v27.236h-2.376v-31.328h2.376l18.084,27.148v-27.148h2.376V281.327z
		"/>
	<path fill="#F1F1F1" d="M352.7,252.111h-9.372v29.216h-2.376v-29.216h-9.328v-2.112H352.7V252.111z"/>
</g>
</svg>
