<?xml version="1.0" encoding="utf-8"?>
<!-- Generator: Adobe Illustrator 16.0.0, SVG Export Plug-In . SVG Version: 6.00 Build 0)  -->
<svg version="1.2" baseProfile="tiny" id="Layer_1" xmlns="http://www.w3.org/2000/svg" xmlns:xlink="http://www.w3.org/1999/xlink"
	 x="0px" y="0px" width="450px" height="600px" viewBox="0 0 450 600" xml:space="preserve">
<g>
	<path fill="#F2F2F2" d="M89.848,315.327H70.84v-31.328h2.376v29.216h16.632V315.327z"/>
	<path fill="#F2F2F2" d="M112.552,315.327H93.544v-31.328h19.008v2.112H95.92v12.364h14.168v2.111H95.92v12.628h16.632V315.327z"/>
	<path fill="#F2F2F2" d="M135.255,286.111h-16.632v12.892h14.168v2.112h-14.168v14.212h-2.376v-31.328h19.008V286.111z"/>
	<path fill="#F2F2F2" d="M156.508,286.111h-9.372v29.216h-2.376v-29.216h-9.328v-2.112h21.076V286.111z"/>
	<path fill="#F2F2F2" d="M188.759,286.111h-9.372v29.216h-2.376v-29.216h-9.328v-2.112h21.076V286.111z"/>
	<path fill="#F2F2F2" d="M210.01,299.663c0,3.96-0.132,6.615-0.396,7.964c-0.352,1.849-1.188,3.433-2.508,4.752
		c-2.142,2.142-4.752,3.212-7.832,3.212s-5.69-1.07-7.832-3.212c-1.319-1.319-2.155-2.903-2.508-4.752
		c-0.264-1.349-0.396-4.004-0.396-7.964s0.132-6.614,0.396-7.964c0.353-1.848,1.188-3.432,2.508-4.752
		c2.142-2.141,4.752-3.212,7.832-3.212s5.69,1.071,7.832,3.212c1.32,1.32,2.156,2.904,2.508,4.752
		C209.878,293.049,210.01,295.703,210.01,299.663z M207.634,299.663c0-3.608-0.117-6.072-0.353-7.392
		c-0.322-1.613-1.012-2.948-2.067-4.004c-1.613-1.613-3.594-2.421-5.94-2.421s-4.327,0.808-5.939,2.421
		c-1.057,1.056-1.746,2.391-2.068,4.004c-0.235,1.319-0.352,3.783-0.352,7.392s0.116,6.072,0.352,7.392
		c0.322,1.614,1.012,2.948,2.068,4.005c1.612,1.613,3.593,2.42,5.939,2.42s4.327-0.807,5.94-2.42
		c1.056-1.057,1.745-2.391,2.067-4.005C207.517,305.735,207.634,303.271,207.634,299.663z"/>
	<path fill="#F2F2F2" d="M247.541,315.327h-2.771l-7.48-14.432h-8.624v14.432h-2.376v-31.328h11.924c2.641,0,4.781,0.72,6.425,2.156
		c1.7,1.525,2.552,3.607,2.552,6.248c0,2.288-0.646,4.173-1.937,5.654s-3.051,2.413-5.279,2.794L247.541,315.327z M244.813,292.447
		c0-2.083-0.646-3.681-1.937-4.796c-1.231-1.026-2.89-1.54-4.972-1.54h-9.24v12.672h9.24c2.082,0,3.754-0.535,5.016-1.606
		C244.182,296.106,244.813,294.53,244.813,292.447z"/>
	<path fill="#F2F2F2" d="M254.757,315.327h-2.376v-31.328h2.376V315.327z"/>
	<path fill="#F2F2F2" d="M280.762,304.415c0,3.197-0.852,5.72-2.552,7.568c-2.2,2.405-4.943,3.607-8.229,3.607
		c-3.08,0-5.69-1.07-7.832-3.212c-1.319-1.319-2.155-2.903-2.508-4.752c-0.264-1.349-0.396-4.004-0.396-7.964
		s0.132-6.614,0.397-7.964c0.353-1.848,1.192-3.432,2.518-4.752c2.15-2.141,4.772-3.212,7.864-3.212
		c2.769,0,5.133,0.836,7.091,2.508c1.959,1.672,3.174,3.887,3.646,6.644h-2.387c-0.472-2.17-1.452-3.886-2.94-5.147
		c-1.488-1.261-3.293-1.893-5.414-1.893c-2.357,0-4.347,0.808-5.968,2.421c-1.061,1.056-1.753,2.391-2.078,4.004
		c-0.235,1.319-0.353,3.783-0.353,7.392s0.116,6.072,0.352,7.392c0.322,1.614,1.012,2.948,2.068,4.005
		c1.612,1.613,3.593,2.42,5.939,2.42c2.669,0,4.84-1.013,6.513-3.036c1.261-1.525,1.892-3.593,1.892-6.204v-2.816h-8.404v-2.111
		h10.78V304.415z"/>
	<path fill="#F2F2F2" d="M306.501,315.327h-2.376v-14.74h-16.324v14.74h-2.376v-31.328h2.376v14.477h16.324v-14.477h2.376V315.327z"
		/>
	<path fill="#F2F2F2" d="M329.778,286.111h-9.372v29.216h-2.376v-29.216h-9.328v-2.112h21.076V286.111z"/>
	<path fill="#F2F2F2" d="M92.092,355.327H89.32l-7.48-14.432h-8.624v14.432H70.84v-31.328h11.924c2.641,0,4.781,0.72,6.425,2.156
		c1.7,1.525,2.552,3.607,2.552,6.248c0,2.288-0.646,4.173-1.937,5.654s-3.051,2.413-5.279,2.794L92.092,355.327z M89.364,332.447
		c0-2.083-0.646-3.681-1.937-4.796c-1.231-1.026-2.89-1.54-4.972-1.54h-9.24v12.672h9.24c2.082,0,3.754-0.535,5.016-1.606
		C88.732,336.106,89.364,334.53,89.364,332.447z"/>
	<path fill="#F2F2F2" d="M99.308,355.327h-2.376v-31.328h2.376V355.327z"/>
	<path fill="#F2F2F2" d="M125.312,344.415c0,3.197-0.852,5.72-2.552,7.568c-2.2,2.405-4.943,3.607-8.229,3.607
		c-3.08,0-5.69-1.07-7.832-3.212c-1.319-1.319-2.155-2.903-2.508-4.752c-0.264-1.349-0.396-4.004-0.396-7.964
		s0.132-6.614,0.397-7.964c0.353-1.848,1.192-3.432,2.518-4.752c2.15-2.141,4.772-3.212,7.864-3.212
		c2.769,0,5.133,0.836,7.091,2.508c1.959,1.672,3.174,3.887,3.646,6.644h-2.387c-0.472-2.17-1.452-3.886-2.94-5.147
		c-1.488-1.261-3.293-1.893-5.414-1.893c-2.357,0-4.347,0.808-5.968,2.421c-1.061,1.056-1.753,2.391-2.078,4.004
		c-0.235,1.319-0.353,3.783-0.353,7.392s0.116,6.072,0.352,7.392c0.322,1.614,1.012,2.948,2.068,4.005
		c1.612,1.613,3.593,2.42,5.939,2.42c2.669,0,4.84-1.013,6.513-3.036c1.261-1.525,1.892-3.593,1.892-6.204v-2.816h-8.404v-2.111
		h10.78V344.415z"/>
	<path fill="#F2F2F2" d="M151.052,355.327h-2.376v-14.74h-16.324v14.74h-2.376v-31.328h2.376v14.477h16.324v-14.477h2.376V355.327z"
		/>
	<path fill="#F2F2F2" d="M174.328,326.111h-9.372v29.216h-2.376v-29.216h-9.328v-2.112h21.076V326.111z"/>
	<path fill="#F2F2F2" d="M206.579,326.111h-9.372v29.216h-2.376v-29.216h-9.328v-2.112h21.076V326.111z"/>
	<path fill="#F2F2F2" d="M227.831,339.663c0,3.96-0.132,6.615-0.396,7.964c-0.352,1.849-1.188,3.433-2.508,4.752
		c-2.142,2.142-4.752,3.212-7.832,3.212s-5.69-1.07-7.832-3.212c-1.319-1.319-2.155-2.903-2.508-4.752
		c-0.264-1.349-0.396-4.004-0.396-7.964s0.132-6.614,0.396-7.964c0.353-1.848,1.188-3.432,2.508-4.752
		c2.142-2.141,4.752-3.212,7.832-3.212s5.69,1.071,7.832,3.212c1.32,1.32,2.156,2.904,2.508,4.752
		C227.699,333.049,227.831,335.703,227.831,339.663z M225.455,339.663c0-3.608-0.117-6.072-0.353-7.392
		c-0.322-1.613-1.012-2.948-2.067-4.004c-1.613-1.613-3.594-2.421-5.94-2.421s-4.327,0.808-5.939,2.421
		c-1.057,1.056-1.746,2.391-2.068,4.004c-0.235,1.319-0.352,3.783-0.352,7.392s0.116,6.072,0.352,7.392
		c0.322,1.614,1.012,2.948,2.068,4.005c1.612,1.613,3.593,2.42,5.939,2.42s4.327-0.807,5.94-2.42
		c1.056-1.057,1.745-2.391,2.067-4.005C225.338,345.735,225.455,343.271,225.455,339.663z"/>
	<path fill="#F2F2F2" d="M263.118,355.327H244.11v-31.328h2.376v29.216h16.632V355.327z"/>
	<path fill="#F2F2F2" d="M285.822,355.327h-19.008v-31.328h19.008v2.112H269.19v12.364h14.168v2.111H269.19v12.628h16.632V355.327z"
		/>
	<path fill="#F2F2F2" d="M308.525,326.111h-16.632v12.892h14.168v2.112h-14.168v14.212h-2.376v-31.328h19.008V326.111z"/>
	<path fill="#F2F2F2" d="M329.778,326.111h-9.372v29.216h-2.376v-29.216h-9.328v-2.112h21.076V326.111z"/>
	<path fill="#F2F2F2" d="M95.128,395.327h-3.036l-3.036-3.696c-2.728,2.641-5.939,3.96-9.636,3.96c-2.875,0-5.214-0.82-7.018-2.464
		c-1.805-1.643-2.706-3.798-2.706-6.468c0-2.2,0.732-4.136,2.2-5.808c0.88-0.997,2.536-2.303,4.972-3.916
		c-2.317-2.757-3.477-5.075-3.477-6.952c0-1.76,0.616-3.241,1.849-4.444c1.231-1.202,2.742-1.804,4.532-1.804
		c1.788,0,3.3,0.609,4.531,1.826c1.232,1.217,1.849,2.706,1.849,4.466c0,2.111-1.203,3.989-3.608,5.632
		c-0.528,0.352-1.306,0.88-2.332,1.584l8.977,10.868c0.703-1.085,1.188-2.163,1.451-3.234c0.265-1.07,0.396-2.588,0.396-4.554h2.332
		c0,4.136-0.91,7.319-2.729,9.548L95.128,395.327z M87.736,390.003l-9.504-11.483c-2.142,1.467-3.535,2.552-4.181,3.256
		c-1.319,1.379-1.979,2.963-1.979,4.752c0,2.054,0.674,3.726,2.023,5.016c1.35,1.291,3.109,1.937,5.28,1.937
		C82.339,393.479,85.125,392.32,87.736,390.003z M83.82,370.027c0-1.173-0.39-2.163-1.166-2.97
		c-0.778-0.807-1.738-1.211-2.882-1.211c-1.145,0-2.098,0.382-2.86,1.145c-0.764,0.763-1.145,1.731-1.145,2.904
		c0,1.35,1.027,3.271,3.08,5.764c0.353-0.234,0.953-0.645,1.805-1.232C82.764,372.99,83.82,371.523,83.82,370.027z"/>
	<path fill="#F2F2F2" d="M127.775,363.999l-10.296,31.328h-2.023l-10.296-31.328h2.508l8.8,27.148l8.8-27.148H127.775z"/>
	<path fill="#F2F2F2" d="M150.523,395.327h-19.008v-31.328h19.008v2.112h-16.632v12.364h14.168v2.111h-14.168v12.628h16.632V395.327
		z"/>
	<path fill="#F2F2F2" d="M175.471,395.327h-2.771l-7.48-14.432h-8.624v14.432h-2.376v-31.328h11.924c2.641,0,4.781,0.72,6.425,2.156
		c1.7,1.525,2.552,3.607,2.552,6.248c0,2.288-0.646,4.173-1.937,5.654s-3.051,2.413-5.279,2.794L175.471,395.327z M172.743,372.447
		c0-2.083-0.646-3.681-1.937-4.796c-1.231-1.026-2.89-1.54-4.972-1.54h-9.24v12.672h9.24c2.082,0,3.754-0.535,5.016-1.606
		C172.111,376.106,172.743,374.53,172.743,372.447z"/>
	<path fill="#F2F2F2" d="M197.207,366.111h-9.372v29.216h-2.376v-29.216h-9.328v-2.112h21.076V366.111z"/>
	<path fill="#F2F2F2" d="M203.365,395.327h-2.376v-31.328h2.376V395.327z"/>
	<path fill="#F2F2F2" d="M229.238,386.439c-0.499,2.815-1.709,5.045-3.63,6.688c-1.922,1.644-4.262,2.464-7.019,2.464
		c-3.08,0-5.69-1.07-7.832-3.212c-1.319-1.319-2.155-2.903-2.508-4.752c-0.264-1.349-0.396-4.004-0.396-7.964
		s0.132-6.614,0.396-7.964c0.353-1.848,1.188-3.432,2.508-4.752c2.142-2.141,4.752-3.212,7.832-3.212
		c2.787,0,5.133,0.813,7.04,2.441c1.906,1.628,3.109,3.865,3.608,6.71h-2.42c-0.47-2.17-1.431-3.886-2.882-5.147
		c-1.452-1.261-3.234-1.893-5.347-1.893c-2.347,0-4.327,0.808-5.939,2.421c-1.057,1.056-1.746,2.391-2.068,4.004
		c-0.235,1.319-0.352,3.783-0.352,7.392s0.116,6.072,0.352,7.392c0.322,1.614,1.012,2.948,2.068,4.005
		c1.612,1.613,3.593,2.42,5.939,2.42c2.112,0,3.908-0.631,5.391-1.893c1.48-1.261,2.456-2.977,2.926-5.147H229.238z"/>
	<path fill="#F2F2F2" d="M253.834,395.327h-2.552l-2.729-7.612h-14.607l-2.729,7.612h-2.552l11.528-31.328h2.111L253.834,395.327z
		 M247.806,385.604l-6.556-18.437l-6.556,18.437H247.806z"/>
	<path fill="#F2F2F2" d="M276.405,395.327h-19.008v-31.328h2.376v29.216h16.632V395.327z"/>
	<path fill="#F2F2F2" d="M310.021,366.111h-16.632v12.892h14.168v2.112h-14.168v14.212h-2.376v-31.328h19.008V366.111z"/>
	<path fill="#F2F2F2" d="M332.725,395.327h-19.008v-31.328h2.376v29.216h16.632V395.327z"/>
	<path fill="#F2F2F2" d="M338.796,395.327h-2.376v-31.328h2.376V395.327z"/>
	<path fill="#F2F2F2" d="M365.461,373.02c0,2.787-0.88,4.986-2.641,6.6c-1.76,1.613-4.033,2.42-6.819,2.42h-9.108v13.288h-2.376
		v-31.328h11.484c2.786,0,5.06,0.808,6.819,2.42C364.581,368.032,365.461,370.232,365.461,373.02z M363.085,373.02
		c0-2.288-0.689-4.033-2.068-5.236c-1.291-1.114-3.051-1.672-5.28-1.672h-8.844v13.815h8.844c2.229,0,4.012-0.578,5.347-1.737
		C362.417,377.03,363.085,375.308,363.085,373.02z"/>
</g>
<g>
	<rect x="126.297" y="147.879" fill="#00b7f0" stroke="#F2F2F2" stroke-miterlimit="10" width="56.703" height="75.605"/>
	<polygon fill="#00b7f0" stroke="#F2F2F2" stroke-miterlimit="10" points="126.297,147.879 178.275,140.791 178.275,230.572 
		126.297,223.484 	"/>
	<polygon fill="#00b7f0" stroke="#F2F2F2" stroke-miterlimit="10" points="126.297,147.879 152.286,131.34 152.286,237.66 
		126.297,223.484 	"/>
	<rect x="70" y="147.879" fill="#00b7f0" stroke="#F2F2F2" stroke-miterlimit="10" width="56.703" height="75.605"/>
</g>
<g>
	<rect x="247.856" y="184.297" fill="#00b7f0" stroke="#F2F2F2" stroke-miterlimit="10" width="75.605" height="56.703"/>
	<polygon fill="#00b7f0" stroke="#F2F2F2" stroke-miterlimit="10" points="323.462,184.297 330.549,236.275 240.768,236.275 
		247.856,184.297 	"/>
	<polygon fill="#00b7f0" stroke="#F2F2F2" stroke-miterlimit="10" points="323.462,184.297 340,210.285 233.68,210.285 
		247.856,184.297 	"/>
	<rect x="247.856" y="128" fill="#00b7f0" stroke="#F2F2F2" stroke-miterlimit="10" width="75.605" height="56.703"/>
</g>
</svg>
