<?xml version="1.0" encoding="utf-8"?>
<!-- Generator: Adobe Illustrator 16.0.0, SVG Export Plug-In . SVG Version: 6.00 Build 0)  -->
<svg version="1.2" baseProfile="tiny" id="Layer_1" xmlns="http://www.w3.org/2000/svg" xmlns:xlink="http://www.w3.org/1999/xlink"
	 x="0px" y="0px" width="320px" height="116px" viewBox="0 0 320 116" xml:space="preserve">
<g>
	<path fill="#4D4D4D" d="M39.344,22.168c0,4.481-1.527,8.117-4.581,10.907c-3.054,2.791-6.865,4.185-11.434,4.185h-7.052V54H4.745
		V7.077H23.33c4.569,0,8.347,1.362,11.335,4.086C37.784,14.019,39.344,17.687,39.344,22.168z M27.811,22.168
		c0-1.406-0.484-2.548-1.45-3.427c-0.967-0.878-2.153-1.318-3.559-1.318h-6.524v9.49h6.524c1.406,0,2.592-0.438,3.559-1.318
		C27.327,24.717,27.811,23.575,27.811,22.168z"/>
	<path fill="#4D4D4D" d="M79.215,54h-12.06l-2.175-6.986H50.547L48.241,54h-12.06L53.25,7.077h8.897L79.215,54z M61.949,37.392
		L57.995,24.87l-4.218,12.522H61.949z"/>
	<path fill="#4D4D4D" d="M115.594,33.306c0,3.515-0.242,6.305-0.725,8.37c-0.703,2.944-2,5.382-3.888,7.315
		c-3.516,3.603-7.953,5.404-13.312,5.404c-5.229,0-9.579-1.757-13.049-5.272c-2.197-2.241-3.625-5.14-4.284-8.699
		c-0.308-1.845-0.461-5.14-0.461-9.885s0.153-8.04,0.461-9.886c0.659-3.559,2.086-6.458,4.284-8.699
		c3.47-3.514,7.82-5.272,13.049-5.272c3.207,0,5.876,0.418,8.007,1.252c2.13,0.835,4.294,2.351,6.492,4.547l-7.843,7.843
		c-2.241-2.241-4.459-3.361-6.656-3.361c-3.076,0-5.008,1.67-5.799,5.009c-0.308,1.275-0.461,4.13-0.461,8.567
		c0,4.525,0.153,7.404,0.461,8.633c0.791,3.295,2.724,4.943,5.799,4.943c4.306,0,6.458-2.504,6.458-7.513h-6.458v-9.622h17.926
		V33.306z"/>
	<path fill="#4D4D4D" d="M154.147,54H122.25V7.077h31.897v10.281h-20.364V25.2h17.398v10.281h-17.398v8.238h20.364V54z"/>
	<path fill="#4D4D4D" d="M193.029,17.357h-20.364v8.238h17.398v10.281h-17.398V54h-11.533V7.077h31.897V17.357z"/>
	<path fill="#4D4D4D" d="M228.154,54h-31.237V7.077h11.532v36.642h19.705V54z"/>
	<path fill="#4D4D4D" d="M244.629,54h-11.532V7.077h11.532V54z"/>
	<path fill="#4D4D4D" d="M287.729,22.168c0,4.481-1.527,8.117-4.58,10.907c-3.055,2.791-6.865,4.185-11.435,4.185h-7.052V54h-11.532
		V7.077h18.584c4.569,0,8.348,1.362,11.336,4.086C286.17,14.019,287.729,17.687,287.729,22.168z M276.196,22.168
		c0-1.406-0.483-2.548-1.449-3.427c-0.967-0.878-2.153-1.318-3.56-1.318h-6.524v9.49h6.524c1.406,0,2.593-0.438,3.56-1.318
		C275.713,24.717,276.196,23.575,276.196,22.168z"/>
	<path fill="#4D4D4D" d="M318.176,38.644c0,5.888-1.209,10.04-3.624,12.456c-2.241,2.241-5.251,3.361-9.029,3.361
		c-7.557,0-11.621-3.602-12.191-10.808h3.36c0.702,5.229,3.646,7.842,8.831,7.842c2.724,0,4.877-0.791,6.459-2.373
		c1.889-1.888,2.834-5.381,2.834-10.479c0-8.347-2.923-12.521-8.766-12.521c-4.657,0-7.491,1.647-8.501,4.943h-2.966V7.077h22.539
		v2.965h-19.573V26.65c2.02-2.329,4.985-3.493,8.896-3.493c3.383,0,6.019,0.945,7.908,2.834
		C316.901,28.539,318.176,32.757,318.176,38.644z"/>
	<path fill="#4D4D4D" d="M11.101,70.598v8.75h14.051v6.201H11.101V100H4.15V64.397h23.451v6.2H11.101z"/>
	<path fill="#4D4D4D" d="M34.15,100V64.397h23.451v6.2H41.101v8.351h14.051v6.2H41.101v8.65h16.501V100H34.15z"/>
	<path fill="#4D4D4D" d="M85.151,100l-2.1-6.301H70.4L68.25,100H61L73.95,64.397h5.451l13,35.603H85.151z M76.851,74.898l-4.5,12.95
		h8.851L76.851,74.898z"/>
	<path fill="#4D4D4D" d="M107.897,70.598V100h-6.95V70.598h-9.301v-6.2h25.552v6.2H107.897z"/>
	<path fill="#4D4D4D" d="M135.897,100.299c-7.301,0-13.101-4.949-13.101-12.5V64.397h6.951v23.151c0,4.1,2.4,6.551,6.15,6.551
		c3.75,0,6.2-2.451,6.2-6.551V64.397h6.9v23.401C148.998,95.35,143.197,100.299,135.897,100.299z"/>
	<path fill="#4D4D4D" d="M176.147,100l-6.95-14.201h-5.001V100h-6.95V64.397h13.951c7.25,0,11.551,4.95,11.551,10.9
		c0,5.001-3.051,8.101-6.501,9.351L184.198,100H176.147z M170.747,70.598h-6.551v9.4h6.551c3.05,0,5.05-1.949,5.05-4.7
		C175.797,72.548,173.797,70.598,170.747,70.598z"/>
	<path fill="#4D4D4D" d="M190.446,100V64.397h23.451v6.2h-16.501v8.351h14.051v6.2h-14.051v8.65h16.501V100H190.446z"/>
	<path fill="#4D4D4D" d="M230.996,100.299c-5.4,0-9.5-1.149-13-4.699l4.5-4.5c2.25,2.25,5.3,3,8.601,3c4.1,0,6.3-1.551,6.3-4.4
		c0-1.25-0.35-2.301-1.1-3c-0.7-0.65-1.5-1-3.15-1.25l-4.3-0.601c-3.051-0.45-5.301-1.399-6.9-2.95c-1.7-1.7-2.551-4-2.551-7
		c0-6.352,4.7-10.801,12.401-10.801c4.9,0,8.45,1.199,11.5,4.15l-4.399,4.35c-2.251-2.15-4.951-2.45-7.301-2.45
		c-3.7,0-5.5,2.05-5.5,4.501c0,0.899,0.3,1.85,1.05,2.55c0.7,0.649,1.85,1.2,3.3,1.399l4.2,0.601c3.25,0.45,5.301,1.351,6.801,2.75
		c1.9,1.8,2.75,4.4,2.75,7.551C244.197,96.399,238.447,100.299,230.996,100.299z"/>
</g>
</svg>
