<?xml version="1.0" encoding="utf-8"?>
<!-- Generator: Adobe Illustrator 16.0.0, SVG Export Plug-In . SVG Version: 6.00 Build 0)  -->
<svg version="1.2" baseProfile="tiny" id="Layer_1" xmlns="http://www.w3.org/2000/svg" xmlns:xlink="http://www.w3.org/1999/xlink"
	 x="0px" y="0px" width="320px" height="116px" viewBox="0 0 320 116" xml:space="preserve">
<g>
	<path fill="#ECECEC" d="M39.344,22.169c0,4.481-1.527,8.117-4.581,10.907c-3.054,2.791-6.865,4.185-11.434,4.185h-7.052V54H4.745
		V7.077H23.33c4.569,0,8.347,1.362,11.335,4.086C37.784,14.02,39.344,17.688,39.344,22.169z M27.811,22.169
		c0-1.406-0.484-2.548-1.45-3.427c-0.967-0.878-2.153-1.318-3.559-1.318h-6.524v9.49h6.524c1.406,0,2.592-0.438,3.559-1.318
		C27.327,24.717,27.811,23.575,27.811,22.169z"/>
	<path fill="#ECECEC" d="M79.215,54h-12.06l-2.175-6.986H50.547L48.241,54h-12.06L53.25,7.077h8.897L79.215,54z M61.949,37.393
		l-3.954-12.522l-4.218,12.522H61.949z"/>
	<path fill="#ECECEC" d="M115.594,33.307c0,3.515-0.242,6.305-0.725,8.37c-0.703,2.944-2,5.382-3.888,7.315
		c-3.516,3.603-7.953,5.404-13.312,5.404c-5.229,0-9.579-1.757-13.049-5.272c-2.197-2.241-3.625-5.14-4.284-8.699
		c-0.308-1.845-0.461-5.14-0.461-9.885s0.153-8.04,0.461-9.886c0.659-3.559,2.086-6.458,4.284-8.699
		c3.47-3.514,7.82-5.272,13.049-5.272c3.207,0,5.876,0.418,8.007,1.252c2.13,0.835,4.294,2.351,6.492,4.547l-7.843,7.843
		c-2.241-2.241-4.459-3.361-6.656-3.361c-3.076,0-5.008,1.67-5.799,5.009c-0.308,1.275-0.461,4.13-0.461,8.567
		c0,4.525,0.153,7.404,0.461,8.633c0.791,3.295,2.724,4.943,5.799,4.943c4.306,0,6.458-2.504,6.458-7.513h-6.458v-9.622h17.926
		V33.307z"/>
	<path fill="#ECECEC" d="M154.147,54H122.25V7.077h31.897v10.281h-20.364V25.2h17.398v10.281h-17.398v8.238h20.364V54z"/>
	<path fill="#ECECEC" d="M193.029,17.358h-20.365v8.238h17.398v10.281h-17.398V54h-11.532V7.077h31.897V17.358z"/>
	<path fill="#ECECEC" d="M228.154,54h-31.238V7.077h11.533v36.642h19.705V54z"/>
	<path fill="#ECECEC" d="M244.629,54h-11.533V7.077h11.533V54z"/>
	<path fill="#ECECEC" d="M287.729,22.169c0,4.481-1.527,8.117-4.581,10.907c-3.054,2.791-6.865,4.185-11.434,4.185h-7.052V54
		h-11.532V7.077h18.584c4.568,0,8.348,1.362,11.336,4.086C286.17,14.02,287.729,17.688,287.729,22.169z M276.196,22.169
		c0-1.406-0.483-2.548-1.45-3.427c-0.967-0.878-2.152-1.318-3.559-1.318h-6.524v9.49h6.524c1.406,0,2.592-0.438,3.559-1.318
		C275.713,24.717,276.196,23.575,276.196,22.169z"/>
	<path fill="#ECECEC" d="M318.176,38.645c0,5.888-1.209,10.04-3.625,12.456c-2.24,2.241-5.25,3.361-9.028,3.361
		c-7.558,0-11.622-3.602-12.192-10.808h3.361c0.702,5.229,3.646,7.842,8.831,7.842c2.724,0,4.877-0.791,6.458-2.373
		c1.889-1.888,2.834-5.381,2.834-10.479c0-8.347-2.922-12.521-8.765-12.521c-4.657,0-7.491,1.647-8.501,4.943h-2.967V7.077h22.539
		v2.965h-19.572V26.65c2.02-2.329,4.985-3.493,8.896-3.493c3.383,0,6.019,0.945,7.908,2.834
		C316.9,28.54,318.176,32.757,318.176,38.645z"/>
	<path fill="#ECECEC" d="M17.101,100h-5.2L0.15,64.398h7.201l7.15,23.201l7.15-23.201h7.25L17.101,100z"/>
	<path fill="#ECECEC" d="M33.7,100V64.398h6.95V100H33.7z"/>
	<path fill="#ECECEC" d="M71.701,96.6C69.351,98.949,66,100,62.3,100H49.45V64.398H62.3c3.7,0,7.05,1.049,9.401,3.399
		c4,4.001,3.6,8.901,3.6,14.251C75.301,87.399,75.701,92.6,71.701,96.6z M66.851,72.799c-1.2-1.451-2.8-2.201-5.2-2.201H56.4V93.8
		h5.25c2.4,0,4-0.75,5.2-2.2c1.3-1.6,1.5-4.15,1.5-9.551S68.151,74.398,66.851,72.799z"/>
	<path fill="#ECECEC" d="M82.899,100V64.398h23.451v6.199H89.85v8.352H103.9v6.199H89.85V93.8h16.501v6.2H82.899z"/>
	<path fill="#ECECEC" d="M135.201,96.4c-2.5,2.5-5.55,3.899-9.601,3.899s-7.15-1.399-9.651-3.899c-3.6-3.601-3.5-8.051-3.5-14.201
		s-0.1-10.602,3.5-14.201c2.5-2.5,5.601-3.9,9.651-3.9s7.1,1.4,9.601,3.9c3.6,3.6,3.55,8.051,3.55,14.201S138.801,92.8,135.201,96.4
		z M130.05,72.198c-1-1.149-2.55-1.899-4.45-1.899c-1.9,0-3.5,0.75-4.5,1.899c-1.35,1.5-1.7,3.15-1.7,10.001c0,6.85,0.35,8.5,1.7,10
		c1,1.15,2.6,1.9,4.5,1.9c1.9,0,3.45-0.75,4.45-1.9c1.35-1.5,1.75-3.15,1.75-10C131.8,75.349,131.4,73.698,130.05,72.198z"/>
</g>
</svg>
