<?xml version="1.0" encoding="utf-8"?>
<!-- Generator: Adobe Illustrator 16.0.0, SVG Export Plug-In . SVG Version: 6.00 Build 0)  -->
<svg version="1.2" baseProfile="tiny" id="Layer_1" xmlns="http://www.w3.org/2000/svg" xmlns:xlink="http://www.w3.org/1999/xlink"
	 x="0px" y="0px" width="380px" height="32px" viewBox="0 0 380 32" xml:space="preserve">
<g>
	<path fill="#4D4D4D" d="M19.75,11.541H14.5v16.681H9.25V11.541H4V6.862h15.75V11.541z"/>
	<path fill="#4D4D4D" d="M37.15,28.222H22.63V6.862h14.52v4.68h-9.27v3.57h7.92v4.68h-7.92v3.751h9.27V28.222z"/>
	<path fill="#4D4D4D" d="M57.189,28.222h-6l-3.51-6.569l-3.51,6.569h-6l6.66-10.952L38.589,6.86h5.97l3.12,6.03l3.12-6.03h5.97
		l-6.24,10.409L57.189,28.222z"/>
	<path fill="#4D4D4D" d="M74.079,11.541h-5.25v16.681h-5.25V11.541h-5.25V6.862h15.75V11.541z"/>
	<path fill="#4D4D4D" d="M91.328,21.681c0,2.16-0.86,3.859-2.58,5.101c-1.521,1.08-3.41,1.621-5.67,1.621
		c-3.58,0-6.28-0.94-8.1-2.82l3.36-3.36c1,1,2.59,1.5,4.77,1.5c2.04,0,3.06-0.64,3.06-1.918c0-0.541-0.146-0.961-0.435-1.262
		c-0.29-0.3-1.355-0.578-3.195-0.84c-1.98-0.26-3.431-0.709-4.35-1.351c-1.46-1-2.19-2.639-2.19-4.919c0-2.14,0.78-3.83,2.34-5.07
		c1.44-1.12,3.26-1.68,5.46-1.68c3.1,0,5.5,0.851,7.2,2.55l-3.3,3.3c-0.84-0.84-2.07-1.26-3.69-1.26c-1.96,0-2.94,0.66-2.94,1.979
		c0,0.9,0.89,1.479,2.67,1.74c2.5,0.36,4.14,0.76,4.92,1.2C90.438,17.192,91.328,19.022,91.328,21.681z"/>
	<path fill="#4D4D4D" d="M98.589,29.722l-5.22,3.84v-10.56h5.22V29.722z"/>
	<path fill="#4D4D4D" d="M116.168,28.222h-5.25V6.862h5.25V28.222z"/>
	<path fill="#4D4D4D" d="M139.958,28.222h-5.25V17.992l-3.03,5.279h-3.36l-3.03-5.279v10.229h-5.25V6.862h5.16l4.8,9.42l4.8-9.42
		h5.16V28.222L139.958,28.222z"/>
	<path fill="#4D4D4D" d="M161.288,28.222h-5.49l-0.99-3.182h-6.57l-1.05,3.182h-5.49l7.77-21.359h4.05L161.288,28.222z
		 M153.427,20.661l-1.8-5.7l-1.92,5.7H153.427z"/>
	<path fill="#4D4D4D" d="M177.848,18.802c0,1.601-0.11,2.871-0.33,3.811c-0.32,1.341-0.91,2.45-1.77,3.33
		c-1.6,1.64-3.62,2.46-6.06,2.46c-2.38,0-4.36-0.8-5.94-2.399c-1-1.021-1.65-2.341-1.95-3.961c-0.14-0.84-0.21-2.34-0.21-4.5
		c0-2.16,0.07-3.66,0.21-4.5c0.3-1.62,0.95-2.94,1.95-3.96c1.58-1.6,3.56-2.4,5.94-2.4c1.46,0,2.675,0.19,3.645,0.57
		c0.97,0.38,1.955,1.07,2.955,2.07l-3.57,3.57c-1.02-1.02-2.03-1.53-3.03-1.53c-1.4,0-2.28,0.76-2.64,2.28
		c-0.14,0.581-0.21,1.88-0.21,3.9c0,2.062,0.07,3.371,0.21,3.932c0.36,1.5,1.24,2.25,2.64,2.25c1.96,0,2.94-1.142,2.94-3.42h-2.94
		v-4.381h8.16V18.802z"/>
	<path fill="#4D4D4D" d="M195.396,28.222h-14.521V6.862h14.521v4.68h-9.271v3.57h7.919v4.68h-7.919v3.751h9.271V28.222z"/>
	<path fill="#4D4D4D" d="M212.947,21.681c0,2.16-0.861,3.859-2.58,5.101c-1.521,1.08-3.41,1.621-5.67,1.621
		c-3.58,0-6.281-0.94-8.1-2.82l3.357-3.36c1,1,2.59,1.5,4.771,1.5c2.041,0,3.061-0.64,3.061-1.918c0-0.541-0.146-0.961-0.436-1.262
		c-0.289-0.3-1.355-0.578-3.195-0.84c-1.98-0.26-3.43-0.709-4.35-1.351c-1.461-1-2.189-2.639-2.189-4.919
		c0-2.14,0.779-3.83,2.34-5.07c1.439-1.12,3.26-1.68,5.459-1.68c3.1,0,5.5,0.851,7.201,2.55l-3.301,3.3
		c-0.84-0.84-2.07-1.26-3.689-1.26c-1.961,0-2.939,0.66-2.939,1.979c0,0.9,0.891,1.479,2.67,1.74c2.5,0.36,4.141,0.76,4.92,1.2
		C212.057,17.192,212.947,19.022,212.947,21.681z"/>
	<path fill="#4D4D4D" d="M220.207,29.722l-5.221,3.84v-10.56h5.221V29.722z"/>
	<path fill="#4D4D4D" d="M245.857,26.033c-1.58,1.58-3.551,2.369-5.91,2.369c-2.381,0-4.361-0.8-5.941-2.399
		c-1-1.021-1.648-2.341-1.949-3.961c-0.141-0.84-0.209-2.34-0.209-4.5c0-2.16,0.068-3.66,0.209-4.5
		c0.301-1.62,0.949-2.94,1.949-3.96c1.58-1.6,3.561-2.4,5.941-2.4c2.359,0,4.33,0.791,5.91,2.37l-3.48,3.48
		c-0.76-0.78-1.57-1.17-2.43-1.17c-1.381,0-2.262,0.76-2.641,2.28c-0.143,0.6-0.209,1.9-0.209,3.9s0.066,3.301,0.209,3.9
		c0.379,1.521,1.26,2.279,2.641,2.279c0.859,0,1.67-0.391,2.43-1.17L245.857,26.033z"/>
	<path fill="#4D4D4D" d="M262.445,21.681c0,2.16-0.859,3.859-2.578,5.101c-1.521,1.08-3.41,1.621-5.672,1.621
		c-3.58,0-6.279-0.94-8.1-2.82l3.359-3.36c1,1,2.59,1.5,4.771,1.5c2.039,0,3.061-0.64,3.061-1.918c0-0.541-0.146-0.961-0.436-1.262
		c-0.291-0.3-1.355-0.578-3.195-0.84c-1.98-0.26-3.43-0.709-4.35-1.351c-1.463-1-2.189-2.639-2.189-4.919
		c0-2.14,0.779-3.83,2.34-5.07c1.439-1.12,3.26-1.68,5.459-1.68c3.1,0,5.5,0.851,7.201,2.55l-3.301,3.3
		c-0.84-0.84-2.07-1.26-3.689-1.26c-1.961,0-2.941,0.66-2.941,1.979c0,0.9,0.893,1.479,2.67,1.74c2.5,0.36,4.143,0.76,4.92,1.2
		C261.557,17.192,262.445,19.022,262.445,21.681z"/>
	<path fill="#4D4D4D" d="M279.727,21.681c0,2.16-0.859,3.859-2.58,5.101c-1.521,1.08-3.41,1.621-5.67,1.621
		c-3.58,0-6.281-0.94-8.1-2.82l3.359-3.36c1,1,2.59,1.5,4.77,1.5c2.041,0,3.061-0.64,3.061-1.918c0-0.541-0.146-0.961-0.436-1.262
		c-0.289-0.3-1.355-0.578-3.195-0.84c-1.979-0.26-3.43-0.709-4.35-1.351c-1.461-1-2.189-2.639-2.189-4.919
		c0-2.14,0.779-3.83,2.34-5.07c1.439-1.12,3.262-1.68,5.459-1.68c3.102,0,5.5,0.851,7.201,2.55l-3.301,3.3
		c-0.84-0.84-2.07-1.26-3.688-1.26c-1.963,0-2.939,0.66-2.939,1.979c0,0.9,0.891,1.479,2.672,1.74c2.5,0.36,4.139,0.76,4.92,1.2
		C278.836,17.192,279.727,19.022,279.727,21.681z"/>
	<path fill="#4D4D4D" d="M286.986,29.722l-5.221,3.84v-10.56h5.221V29.722z"/>
	<path fill="#4D4D4D" d="M313.535,28.222h-14.219V6.862h5.25v16.681h8.969V28.222z"/>
	<path fill="#4D4D4D" d="M321.035,28.222h-5.25V6.862h5.25V28.222z"/>
	<path fill="#4D4D4D" d="M341.586,28.222h-4.59l-6.84-10.741v10.741h-5.25V6.862h4.59l6.84,10.739V6.862h5.25V28.222z"/>
	<path fill="#4D4D4D" d="M363.484,28.222h-6.119l-4.92-8.76l-1.802,2.07v6.689h-5.188V6.862h5.188v7.56l6.182-7.56h6.42l-7.289,8.64
		L363.484,28.222z"/>
	<path fill="#4D4D4D" d="M380.225,21.681c0,2.16-0.857,3.859-2.58,5.101c-1.52,1.08-3.408,1.621-5.67,1.621
		c-3.58,0-6.279-0.94-8.1-2.82l3.359-3.36c1,1,2.59,1.5,4.77,1.5c2.041,0,3.062-0.64,3.062-1.918c0-0.541-0.146-0.961-0.438-1.262
		c-0.289-0.3-1.354-0.578-3.193-0.84c-1.979-0.26-3.432-0.709-4.352-1.351c-1.459-1-2.189-2.639-2.189-4.919
		c0-2.14,0.779-3.83,2.342-5.07c1.438-1.12,3.26-1.68,5.461-1.68c3.1,0,5.5,0.851,7.197,2.55l-3.301,3.3
		c-0.84-0.84-2.066-1.26-3.688-1.26c-1.961,0-2.939,0.66-2.939,1.979c0,0.9,0.891,1.479,2.67,1.74c2.5,0.36,4.143,0.76,4.92,1.2
		C379.334,17.192,380.225,19.022,380.225,21.681z"/>
</g>
</svg>
