<?xml version="1.0" encoding="utf-8"?>
<!-- Generator: Adobe Illustrator 16.0.0, SVG Export Plug-In . SVG Version: 6.00 Build 0)  -->
<svg version="1.2" baseProfile="tiny" id="Layer_1" xmlns="http://www.w3.org/2000/svg" xmlns:xlink="http://www.w3.org/1999/xlink"
	 x="0px" y="0px" width="320px" height="116px" viewBox="0 0 320 116" xml:space="preserve">
<g>
	<path fill="#333333" d="M29.452,43V22.249l-6.8,13.501h-4.7l-6.851-13.501V43H4.15V7.398H11l9.301,19.251l9.25-19.251h6.851V43
		H29.452z"/>
	<path fill="#333333" d="M45.2,43V7.398h23.451v6.2H52.15v8.351h14.051v6.2H52.15V36.8h16.501V43H45.2z"/>
	<path fill="#333333" d="M75.95,43V7.398h23.451v6.2H82.9v8.351h14.051v6.2H82.9V36.8h16.501V43H75.95z"/>
	<path fill="#333333" d="M120.3,13.598V43h-6.95V13.598h-9.301v-6.2h25.552v6.2H120.3z"/>
	<path fill="#333333" d="M39.344,68.285c0,4.481-1.527,8.117-4.581,10.906c-3.054,2.791-6.865,4.186-11.434,4.186h-7.052v16.739
		H4.745V53.193H23.33c4.569,0,8.347,1.362,11.335,4.086C37.784,60.136,39.344,63.804,39.344,68.285z M27.811,68.285
		c0-1.406-0.484-2.548-1.45-3.428c-0.967-0.878-2.153-1.317-3.559-1.317h-6.524v9.489h6.524c1.406,0,2.592-0.438,3.559-1.317
		C27.327,70.834,27.811,69.691,27.811,68.285z"/>
	<path fill="#333333" d="M79.215,100.116h-12.06l-2.175-6.985H50.547l-2.307,6.985h-12.06L53.25,53.193h8.897L79.215,100.116z
		 M61.949,83.509l-3.954-12.522l-4.218,12.522H61.949z"/>
	<path fill="#333333" d="M115.594,79.423c0,3.515-0.242,6.305-0.725,8.37c-0.703,2.943-2,5.382-3.888,7.314
		c-3.516,3.604-7.953,5.404-13.312,5.404c-5.229,0-9.579-1.757-13.049-5.272c-2.197-2.241-3.625-5.14-4.284-8.699
		c-0.308-1.845-0.461-5.14-0.461-9.886c0-4.744,0.153-8.039,0.461-9.885c0.659-3.559,2.086-6.459,4.284-8.7
		c3.47-3.514,7.82-5.272,13.049-5.272c3.207,0,5.876,0.418,8.007,1.252c2.13,0.835,4.294,2.351,6.492,4.547l-7.843,7.842
		c-2.241-2.24-4.459-3.361-6.656-3.361c-3.076,0-5.008,1.671-5.799,5.01c-0.308,1.274-0.461,4.13-0.461,8.566
		c0,4.525,0.153,7.404,0.461,8.634c0.791,3.295,2.724,4.942,5.799,4.942c4.306,0,6.458-2.504,6.458-7.513h-6.458v-9.622h17.926
		V79.423z"/>
	<path fill="#333333" d="M154.147,100.116H122.25V53.193h31.897v10.281h-20.364v7.842h17.398v10.281h-17.398v8.238h20.364V100.116z"
		/>
	<path fill="#333333" d="M193.029,63.475h-20.365v8.237h17.398v10.28h-17.398v18.124h-11.532V53.193h31.897V63.475z"/>
	<path fill="#333333" d="M228.154,100.116h-31.238V53.193h11.533v36.643h19.705V100.116z"/>
	<path fill="#333333" d="M244.629,100.116h-11.533V53.193h11.533V100.116z"/>
	<path fill="#333333" d="M287.729,68.285c0,4.481-1.527,8.117-4.581,10.906c-3.054,2.791-6.865,4.186-11.434,4.186h-7.052v16.739
		h-11.532V53.193h18.584c4.568,0,8.348,1.362,11.336,4.086C286.17,60.136,287.729,63.804,287.729,68.285z M276.196,68.285
		c0-1.406-0.483-2.548-1.45-3.428c-0.967-0.878-2.152-1.317-3.559-1.317h-6.524v9.489h6.524c1.406,0,2.592-0.438,3.559-1.317
		C275.713,70.834,276.196,69.691,276.196,68.285z"/>
	<path fill="#333333" d="M318.176,84.761c0,5.888-1.209,10.04-3.625,12.456c-2.24,2.24-5.25,3.361-9.028,3.361
		c-7.558,0-11.622-3.603-12.192-10.809h3.361c0.702,5.229,3.646,7.842,8.831,7.842c2.724,0,4.877-0.79,6.458-2.372
		c1.889-1.888,2.834-5.382,2.834-10.479c0-8.347-2.922-12.521-8.765-12.521c-4.657,0-7.491,1.647-8.501,4.942h-2.967V53.193h22.539
		v2.965h-19.572v16.608c2.02-2.329,4.985-3.493,8.896-3.493c3.383,0,6.019,0.945,7.908,2.834
		C316.9,74.656,318.176,78.873,318.176,84.761z"/>
</g>
</svg>
