<?xml version="1.0" encoding="utf-8"?>
<!-- Generator: Adobe Illustrator 16.0.0, SVG Export Plug-In . SVG Version: 6.00 Build 0)  -->
<svg version="1.2" baseProfile="tiny" id="Layer_1" xmlns="http://www.w3.org/2000/svg" xmlns:xlink="http://www.w3.org/1999/xlink"
	 x="0px" y="0px" width="320px" height="160px" viewBox="0 0 320 160" xml:space="preserve">
<g>
	<path fill="#4D4D4D" d="M39.344,22.171c0,4.481-1.527,8.117-4.581,10.907c-3.054,2.791-6.865,4.185-11.434,4.185h-7.052v16.739
		H4.745V7.079H23.33c4.569,0,8.347,1.362,11.335,4.086C37.784,14.021,39.344,17.689,39.344,22.171z M27.811,22.171
		c0-1.406-0.484-2.548-1.45-3.427c-0.967-0.878-2.153-1.318-3.559-1.318h-6.524v9.49h6.524c1.406,0,2.592-0.438,3.559-1.318
		C27.327,24.719,27.811,23.577,27.811,22.171z"/>
	<path fill="#4D4D4D" d="M79.215,54.002h-12.06l-2.175-6.986H50.547l-2.307,6.986h-12.06L53.25,7.079h8.897L79.215,54.002z
		 M61.949,37.395l-3.954-12.522l-4.218,12.522H61.949z"/>
	<path fill="#4D4D4D" d="M115.594,33.309c0,3.515-0.242,6.305-0.725,8.37c-0.703,2.944-2,5.382-3.888,7.315
		c-3.516,3.603-7.953,5.404-13.312,5.404c-5.229,0-9.579-1.757-13.049-5.272c-2.197-2.241-3.625-5.14-4.284-8.699
		c-0.308-1.845-0.461-5.14-0.461-9.885s0.153-8.04,0.461-9.886c0.659-3.559,2.086-6.458,4.284-8.699
		c3.47-3.514,7.82-5.272,13.049-5.272c3.207,0,5.876,0.418,8.007,1.252c2.13,0.835,4.294,2.351,6.492,4.547l-7.843,7.843
		c-2.241-2.241-4.459-3.361-6.656-3.361c-3.076,0-5.008,1.67-5.799,5.009c-0.308,1.275-0.461,4.13-0.461,8.567
		c0,4.525,0.153,7.404,0.461,8.633c0.791,3.295,2.724,4.943,5.799,4.943c4.306,0,6.458-2.504,6.458-7.513h-6.458v-9.622h17.926
		V33.309z"/>
	<path fill="#4D4D4D" d="M154.147,54.002H122.25V7.079h31.897V17.36h-20.364v7.842h17.398v10.281h-17.398v8.238h20.364V54.002z"/>
	<path fill="#4D4D4D" d="M193.028,17.36h-20.364v8.238h17.398v10.281h-17.398v18.124h-11.532V7.079h31.896V17.36z"/>
	<path fill="#4D4D4D" d="M228.154,54.002h-31.238V7.079h11.533v36.642h19.705V54.002z"/>
	<path fill="#4D4D4D" d="M244.629,54.002h-11.533V7.079h11.533V54.002z"/>
	<path fill="#4D4D4D" d="M287.729,22.171c0,4.481-1.527,8.117-4.581,10.907c-3.054,2.791-6.865,4.185-11.434,4.185h-7.052v16.739
		H253.13V7.079h18.585c4.568,0,8.347,1.362,11.335,4.086C286.169,14.021,287.729,17.689,287.729,22.171z M276.196,22.171
		c0-1.406-0.484-2.548-1.45-3.427c-0.967-0.878-2.153-1.318-3.559-1.318h-6.524v9.49h6.524c1.405,0,2.592-0.438,3.559-1.318
		C275.712,24.719,276.196,23.577,276.196,22.171z"/>
	<path fill="#4D4D4D" d="M318.176,38.646c0,5.888-1.209,10.04-3.625,12.456c-2.24,2.241-5.25,3.361-9.028,3.361
		c-7.558,0-11.622-3.602-12.192-10.808h3.361c0.702,5.229,3.646,7.842,8.831,7.842c2.724,0,4.877-0.791,6.458-2.373
		c1.889-1.888,2.834-5.381,2.834-10.479c0-8.347-2.922-12.521-8.765-12.521c-4.658,0-7.491,1.647-8.502,4.943h-2.966V7.079h22.539
		v2.965h-19.573v16.608c2.021-2.329,4.986-3.493,8.897-3.493c3.382,0,6.019,0.945,7.908,2.834
		C316.9,28.542,318.176,32.759,318.176,38.646z"/>
	<path fill="#4D4D4D" d="M24.401,100.002l-2.1-6.301H9.65l-2.15,6.301H0.25l12.951-35.603h5.451l13,35.603H24.401z M16.101,74.9
		l-4.5,12.95h8.851L16.101,74.9z"/>
	<path fill="#4D4D4D" d="M57.601,100.002L43.5,78.15v21.852h-6.95V64.399h6.2l14.101,21.802V64.399h6.95v35.603H57.601z"/>
	<path fill="#4D4D4D" d="M72.6,100.002V64.399h6.95v35.603H72.6z"/>
	<path fill="#4D4D4D" d="M113.65,100.002V79.25l-6.8,13.501h-4.7L95.299,79.25v20.752h-6.95V64.399h6.85L104.5,83.65l9.25-19.251
		h6.851v35.603H113.65z"/>
	<path fill="#4D4D4D" d="M149.649,100.002l-2.1-6.301h-12.651l-2.15,6.301h-7.25l12.951-35.603h5.451l13,35.603H149.649z
		 M141.349,74.9l-4.5,12.95h8.851L141.349,74.9z"/>
	<path fill="#4D4D4D" d="M172.396,70.6v29.402h-6.95V70.6h-9.301v-6.2h25.552v6.2H172.396z"/>
	<path fill="#4D4D4D" d="M187.845,100.002V64.399h6.95v35.603H187.845z"/>
	<path fill="#4D4D4D" d="M225.146,96.401c-2.5,2.5-5.55,3.9-9.601,3.9c-4.05,0-7.15-1.4-9.65-3.9c-3.601-3.6-3.5-8.051-3.5-14.201
		s-0.101-10.601,3.5-14.2c2.5-2.5,5.601-3.9,9.65-3.9c4.051,0,7.101,1.4,9.601,3.9c3.601,3.6,3.551,8.05,3.551,14.2
		S228.746,92.802,225.146,96.401z M219.995,72.2c-1-1.15-2.55-1.9-4.45-1.9s-3.5,0.75-4.5,1.9c-1.351,1.5-1.7,3.15-1.7,10
		c0,6.851,0.35,8.501,1.7,10.001c1,1.15,2.6,1.9,4.5,1.9s3.45-0.75,4.45-1.9c1.351-1.5,1.75-3.15,1.75-10.001
		C221.745,75.351,221.346,73.7,219.995,72.2z"/>
	<path fill="#4D4D4D" d="M257.346,100.002L243.244,78.15v21.852h-6.95V64.399h6.2l14.102,21.802V64.399h6.95v35.603H257.346z"/>
	<path fill="#4D4D4D" d="M282.145,100.302c-5.4,0-9.501-1.15-13.001-4.7l4.5-4.5c2.251,2.25,5.301,3,8.601,3
		c4.101,0,6.301-1.551,6.301-4.4c0-1.25-0.35-2.3-1.101-3c-0.699-0.65-1.5-1-3.149-1.25l-4.301-0.601c-3.05-0.45-5.3-1.399-6.9-2.95
		c-1.7-1.7-2.55-4-2.55-7c0-6.351,4.7-10.801,12.4-10.801c4.9,0,8.451,1.2,11.501,4.15l-4.4,4.35c-2.25-2.149-4.95-2.45-7.301-2.45
		c-3.7,0-5.5,2.051-5.5,4.501c0,0.899,0.3,1.85,1.05,2.55c0.7,0.65,1.851,1.2,3.301,1.4l4.2,0.6c3.25,0.45,5.3,1.351,6.8,2.75
		c1.9,1.801,2.751,4.4,2.751,7.551C295.346,96.401,289.595,100.302,282.145,100.302z"/>
	<path fill="#4D4D4D" d="M26.552,146.002l-2.6-3.101c-1.65,1.3-4.101,3.4-9.201,3.4C6.9,146.302,3,142.201,3,135.501
		c0-4.55,3.3-7.5,6.4-9.551c-1.45-1.649-3.55-4.15-3.55-7.55c0-4.851,3.55-8.301,9.5-8.301c5.6,0,9.101,3.55,9.101,8.4
		c0,2.75-1.45,4.601-3.65,6.2c0,0-1.65,1.25-2.55,1.851l6,7.101c1.15-1.551,1.7-3.7,1.8-6.251h6.15
		c-0.25,4.601-1.3,8.251-3.8,11.051l6.4,7.551H26.552z M12.901,129.951c-2.15,1.5-3.6,2.899-3.6,5.45c0,2.95,2.4,5,5.4,5
		c2.1,0,3.65-0.65,5.3-2.101L12.901,129.951z M15.351,115.649c-1.95,0-2.95,1.251-2.95,2.9c0,1.301,1.1,2.551,2.35,4
		c0.5-0.3,1.5-1,1.5-1c1.15-0.8,2.05-1.75,2.05-3C18.301,116.9,17.201,115.649,15.351,115.649z"/>
	<path fill="#4D4D4D" d="M52.8,146.002v-35.603h23.451v6.2H59.75v8.351h14.051v6.2H59.75v8.651h16.501v6.2H52.8z"/>
	<path fill="#4D4D4D" d="M96.5,146.002h-5.2l-11.751-35.603h7.201l7.15,23.201l7.15-23.201h7.25L96.5,146.002z"/>
	<path fill="#4D4D4D" d="M113.099,146.002v-35.603h23.451v6.2h-16.501v8.351H134.1v6.2h-14.051v8.651h16.501v6.2H113.099z"/>
	<path fill="#4D4D4D" d="M164.9,146.002l-14.101-21.852v21.852h-6.95v-35.603h6.2l14.101,21.802v-21.802h6.95v35.603H164.9z"/>
	<path fill="#4D4D4D" d="M193.499,116.6v29.402h-6.95V116.6h-9.301v-6.2H202.8v6.2H193.499z"/>
	<path fill="#4D4D4D" d="M218.749,146.302c-5.4,0-9.501-1.15-13.001-4.7l4.5-4.5c2.251,2.25,5.301,3,8.601,3
		c4.101,0,6.301-1.551,6.301-4.4c0-1.25-0.35-2.3-1.101-3c-0.699-0.65-1.5-1-3.149-1.25l-4.301-0.601c-3.05-0.45-5.3-1.399-6.9-2.95
		c-1.7-1.7-2.55-4-2.55-7c0-6.351,4.7-10.801,12.4-10.801c4.9,0,8.451,1.2,11.501,4.15l-4.4,4.35c-2.25-2.149-4.95-2.45-7.301-2.45
		c-3.7,0-5.5,2.051-5.5,4.501c0,0.899,0.3,1.85,1.05,2.55c0.7,0.65,1.851,1.2,3.301,1.4l4.2,0.6c3.25,0.45,5.3,1.351,6.8,2.75
		c1.9,1.801,2.751,4.4,2.751,7.551C231.95,142.401,226.199,146.302,218.749,146.302z"/>
</g>
</svg>
