<?xml version="1.0" encoding="utf-8"?>
<!-- Generator: Adobe Illustrator 16.0.4, SVG Export Plug-In . SVG Version: 6.00 Build 0)  -->
<svg version="1.2" baseProfile="tiny" id="Layer_1" xmlns="http://www.w3.org/2000/svg" xmlns:xlink="http://www.w3.org/1999/xlink"
	 x="0px" y="0px" width="320px" height="160px" viewBox="0 0 320 160" overflow="visible" xml:space="preserve">
<g>
	<path fill="#4D4D4D" d="M38.344,22.294c0,4.481-1.527,8.117-4.581,10.906c-3.054,2.791-6.865,4.186-11.434,4.186h-7.052v16.739
		H3.745V7.202H22.33c4.569,0,8.347,1.362,11.335,4.086C36.784,14.145,38.344,17.812,38.344,22.294z M26.811,22.294
		c0-1.406-0.484-2.548-1.45-3.428c-0.967-0.878-2.153-1.317-3.559-1.317h-6.524v9.489h6.524c1.406,0,2.592-0.438,3.559-1.317
		C26.327,24.842,26.811,23.7,26.811,22.294z"/>
	<path fill="#4D4D4D" d="M78.215,54.125h-12.06l-2.175-6.986H49.547l-2.307,6.986h-12.06L52.25,7.202h8.897L78.215,54.125z
		 M60.949,37.518l-3.954-12.522l-4.218,12.522H60.949z"/>
	<path fill="#4D4D4D" d="M114.594,33.432c0,3.515-0.242,6.305-0.725,8.369c-0.703,2.944-2,5.383-3.888,7.315
		c-3.516,3.603-7.953,5.404-13.312,5.404c-5.229,0-9.579-1.757-13.049-5.272c-2.197-2.241-3.625-5.141-4.284-8.699
		c-0.308-1.846-0.461-5.141-0.461-9.886s0.153-8.04,0.461-9.886c0.659-3.559,2.086-6.458,4.284-8.699
		c3.47-3.514,7.82-5.271,13.049-5.271c3.207,0,5.876,0.418,8.007,1.252c2.13,0.835,4.294,2.351,6.492,4.547l-7.843,7.843
		c-2.241-2.24-4.459-3.361-6.656-3.361c-3.076,0-5.008,1.671-5.799,5.009c-0.308,1.275-0.461,4.131-0.461,8.567
		c0,4.525,0.153,7.404,0.461,8.634c0.791,3.295,2.724,4.942,5.799,4.942c4.306,0,6.458-2.504,6.458-7.513h-6.458v-9.622h17.926
		V33.432z"/>
	<path fill="#4D4D4D" d="M153.147,54.125H121.25V7.202h31.897v10.28h-20.364v7.843h17.398v10.281h-17.398v8.237h20.364V54.125z"/>
	<path fill="#4D4D4D" d="M192.028,17.482h-20.364v8.238h17.398v10.28h-17.398v18.124h-11.532V7.202h31.896V17.482z"/>
	<path fill="#4D4D4D" d="M227.154,54.125h-31.238V7.202h11.533v36.642h19.705V54.125z"/>
	<path fill="#4D4D4D" d="M243.629,54.125h-11.533V7.202h11.533V54.125z"/>
	<path fill="#4D4D4D" d="M286.729,22.294c0,4.481-1.527,8.117-4.581,10.906c-3.054,2.791-6.865,4.186-11.434,4.186h-7.052v16.739
		H252.13V7.202h18.585c4.568,0,8.347,1.362,11.335,4.086C285.169,14.145,286.729,17.812,286.729,22.294z M275.196,22.294
		c0-1.406-0.484-2.548-1.45-3.428c-0.967-0.878-2.153-1.317-3.559-1.317h-6.524v9.489h6.524c1.405,0,2.592-0.438,3.559-1.317
		C274.712,24.842,275.196,23.7,275.196,22.294z"/>
	<path fill="#4D4D4D" d="M317.176,38.77c0,5.888-1.209,10.04-3.625,12.455c-2.24,2.241-5.25,3.361-9.028,3.361
		c-7.558,0-11.622-3.602-12.192-10.808h3.361c0.702,5.229,3.646,7.842,8.831,7.842c2.724,0,4.877-0.79,6.458-2.372
		c1.889-1.889,2.834-5.382,2.834-10.479c0-8.348-2.922-12.521-8.765-12.521c-4.658,0-7.491,1.647-8.502,4.942h-2.966V7.202h22.539
		v2.965h-19.573v16.608c2.021-2.329,4.986-3.493,8.897-3.493c3.382,0,6.019,0.945,7.908,2.834
		C315.9,28.664,317.176,32.882,317.176,38.77z"/>
	<path fill="#4D4D4D" d="M25.401,96.725c-2.35,2.35-5.7,3.4-9.4,3.4H3.15V64.522h12.851c3.7,0,7.05,1.05,9.4,3.4
		c4,4,3.601,8.9,3.601,14.251S29.402,92.725,25.401,96.725z M20.551,72.923c-1.2-1.45-2.8-2.2-5.2-2.2h-5.25v23.202h5.25
		c2.4,0,4-0.75,5.2-2.2c1.3-1.601,1.5-4.15,1.5-9.551S21.852,74.523,20.551,72.923z"/>
	<path fill="#4D4D4D" d="M36.6,100.125V64.522h23.451v6.2H43.55v8.351h14.051v6.2H43.55v8.651h16.501v6.2H36.6z"/>
	<path fill="#4D4D4D" d="M80.301,100.125h-5.2L63.35,64.522h7.201l7.15,23.201l7.15-23.201h7.25L80.301,100.125z"/>
	<path fill="#4D4D4D" d="M96.9,100.125V64.522h23.451v6.2H103.85v8.351h14.051v6.2H103.85v8.651h16.501v6.2H96.9z"/>
	<path fill="#4D4D4D" d="M127.649,100.125V64.522h6.95v29.402h16.151v6.2H127.649z"/>
	<path fill="#4D4D4D" d="M177.145,96.524c-2.5,2.5-5.551,3.9-9.601,3.9c-4.051,0-7.15-1.4-9.651-3.9c-3.6-3.6-3.5-8.051-3.5-14.201
		s-0.1-10.601,3.5-14.2c2.5-2.5,5.6-3.9,9.651-3.9c4.05,0,7.101,1.4,9.601,3.9c3.6,3.6,3.55,8.05,3.55,14.2
		S180.744,92.925,177.145,96.524z M171.994,72.323c-1-1.15-2.551-1.9-4.45-1.9c-1.9,0-3.501,0.75-4.501,1.9
		c-1.35,1.5-1.7,3.15-1.7,10c0,6.851,0.351,8.501,1.7,10.001c1,1.15,2.601,1.9,4.501,1.9c1.899,0,3.45-0.75,4.45-1.9
		c1.35-1.5,1.75-3.15,1.75-10.001C173.744,75.474,173.344,73.823,171.994,72.323z"/>
	<path fill="#4D4D4D" d="M202.094,86.724h-6.851v13.401h-6.95V64.522h13.801c7.351,0,11.75,5.051,11.75,11.101
		C213.844,81.674,209.444,86.724,202.094,86.724z M201.743,70.723h-6.5v9.751h6.5c3.15,0,5.15-1.95,5.15-4.851
		S204.894,70.723,201.743,70.723z"/>
	<path fill="#4D4D4D" d="M220.192,100.125V64.522h23.451v6.2h-16.501v8.351h14.051v6.2h-14.051v8.651h16.501v6.2H220.192z"/>
	<path fill="#4D4D4D" d="M269.843,100.125l-6.95-14.201h-5v14.201h-6.95V64.522h13.95c7.251,0,11.551,4.95,11.551,10.9
		c0,5.001-3.05,8.101-6.5,9.351l7.95,15.352H269.843z M264.442,70.723h-6.55v9.401h6.55c3.051,0,5.051-1.95,5.051-4.701
		C269.493,72.673,267.493,70.723,264.442,70.723z"/>
	<path fill="#4D4D4D" d="M10.101,116.723v8.751h14.051v6.2H10.101v14.451H3.15v-35.603h23.451v6.2H10.101z"/>
	<path fill="#4D4D4D" d="M33.15,146.125v-35.603h23.451v6.2H40.101v8.351h14.051v6.2H40.101v8.651h16.501v6.2H33.15z"/>
	<path fill="#4D4D4D" d="M84.151,146.125l-2.1-6.301H69.4l-2.15,6.301H60l12.951-35.603h5.451l13,35.603H84.151z M75.851,121.023
		l-4.5,12.95h8.851L75.851,121.023z"/>
	<path fill="#4D4D4D" d="M106.897,116.723v29.402h-6.95v-29.402h-9.301v-6.2h25.552v6.2H106.897z"/>
	<path fill="#4D4D4D" d="M134.897,146.425c-7.301,0-13.101-4.95-13.101-12.501v-23.401h6.951v23.151c0,4.101,2.4,6.551,6.15,6.551
		c3.75,0,6.2-2.45,6.2-6.551v-23.151h6.9v23.401C147.998,141.475,142.197,146.425,134.897,146.425z"/>
	<path fill="#4D4D4D" d="M175.146,146.125l-6.95-14.201h-5v14.201h-6.95v-35.603h13.95c7.251,0,11.551,4.95,11.551,10.9
		c0,5.001-3.05,8.101-6.5,9.351l7.95,15.352H175.146z M169.746,116.723h-6.55v9.401h6.55c3.051,0,5.051-1.95,5.051-4.701
		C174.797,118.673,172.797,116.723,169.746,116.723z"/>
	<path fill="#4D4D4D" d="M189.445,146.125v-35.603h23.451v6.2h-16.501v8.351h14.051v6.2h-14.051v8.651h16.501v6.2H189.445z"/>
	<path fill="#4D4D4D" d="M229.996,146.425c-5.4,0-9.501-1.15-13.001-4.7l4.5-4.5c2.251,2.25,5.301,3,8.601,3
		c4.101,0,6.301-1.551,6.301-4.4c0-1.25-0.35-2.3-1.101-3c-0.699-0.65-1.5-1-3.149-1.25l-4.301-0.601c-3.05-0.45-5.3-1.399-6.9-2.95
		c-1.7-1.7-2.55-4-2.55-7c0-6.351,4.7-10.801,12.4-10.801c4.9,0,8.451,1.2,11.501,4.15l-4.4,4.35c-2.25-2.149-4.95-2.45-7.301-2.45
		c-3.7,0-5.5,2.051-5.5,4.501c0,0.899,0.3,1.85,1.05,2.55c0.7,0.65,1.851,1.2,3.301,1.4l4.2,0.6c3.25,0.45,5.3,1.351,6.8,2.75
		c1.9,1.801,2.751,4.4,2.751,7.551C243.197,142.524,237.446,146.425,229.996,146.425z"/>
</g>
</svg>
