<?xml version="1.0" encoding="utf-8"?>
<!-- Generator: Adobe Illustrator 16.0.0, SVG Export Plug-In . SVG Version: 6.00 Build 0)  -->
<svg version="1.2" baseProfile="tiny" xmlns="http://www.w3.org/2000/svg" xmlns:xlink="http://www.w3.org/1999/xlink" x="0px"
	 y="0px" width="109px" height="41px" viewBox="0 0 109 41" xml:space="preserve">
<g id="Layer_1">
	<path fill="#4D4D4D" d="M88.439,0H20.551C9.219,0,0,9.196,0,20.5S9.219,41,20.551,41h67.889c11.332,0,20.551-9.196,20.551-20.5
		S99.771,0,88.439,0z"/>
	<g>
		<path fill="#F2F2F2" d="M24.914,16.848h-5.818v2.354h4.971v2.937h-4.971v5.18H15.8V13.911h9.114V16.848z"/>
		<path fill="#F2F2F2" d="M34.95,27.318h-8.926V13.911h3.296v10.47h5.63V27.318z"/>
		<path fill="#F2F2F2" d="M39.658,27.318h-3.296V13.911h3.296V27.318z"/>
		<path fill="#F2F2F2" d="M51.974,18.223c0,1.28-0.44,2.319-1.318,3.117c-0.879,0.797-1.965,1.195-3.258,1.195h-2.015v4.783h-3.296
			V13.911h5.311c1.293,0,2.373,0.39,3.239,1.167C51.527,15.894,51.974,16.942,51.974,18.223z M48.678,18.223
			c0-0.39-0.138-0.713-0.414-0.97c-0.276-0.258-0.615-0.387-1.017-0.387h-1.864v2.712h1.864c0.401,0,0.74-0.129,1.017-0.386
			C48.54,18.935,48.678,18.612,48.678,18.223z"/>
		<path fill="#F2F2F2" d="M63.441,18.223c0,1.28-0.44,2.319-1.318,3.117c-0.879,0.797-1.965,1.195-3.258,1.195h-2.015v4.783h-3.296
			V13.911h5.311c1.293,0,2.373,0.39,3.239,1.167C62.995,15.894,63.441,16.942,63.441,18.223z M60.146,18.223
			c0-0.39-0.138-0.713-0.414-0.97c-0.276-0.258-0.615-0.387-1.017-0.387h-1.864v2.712h1.864c0.401,0,0.74-0.129,1.017-0.386
			C60.008,18.935,60.146,18.612,60.146,18.223z"/>
		<path fill="#F2F2F2" d="M68.092,27.318h-3.296V13.911h3.296V27.318z"/>
		<path fill="#F2F2F2" d="M80.99,27.318h-2.881l-4.293-6.742v6.742h-3.296V13.911h2.882l4.293,6.741v-6.741h3.295V27.318z"/>
		<path fill="#F2F2F2" d="M93.324,21.461c0,3.98-1.751,5.971-5.254,5.971c-1.507,0-2.749-0.502-3.729-1.508
			c-0.628-0.639-1.035-1.469-1.224-2.484c-0.088-0.541-0.132-1.482-0.132-2.826c0-1.343,0.044-2.284,0.132-2.824
			c0.188-1.017,0.598-1.846,1.227-2.485c0.98-1.004,2.226-1.507,3.735-1.507c1.434,0,2.615,0.39,3.546,1.168s1.497,1.87,1.698,3.276
			h-3.323c-0.252-1.004-0.894-1.507-1.926-1.507c-1.196,0-1.794,0.992-1.794,2.976v1.846c0,0.854,0.094,1.5,0.281,1.939
			c0.274,0.664,0.78,0.998,1.518,0.998c1.312,0,1.968-0.717,1.968-2.148H88.07v-2.749h5.254V21.461z"/>
	</g>
</g>
<g id="Layer_2">
</g>
</svg>
