<?xml version="1.0" encoding="utf-8"?>
<!-- Generator: Adobe Illustrator 16.0.0, SVG Export Plug-In . SVG Version: 6.00 Build 0)  -->
<svg version="1.2" baseProfile="tiny" xmlns="http://www.w3.org/2000/svg" xmlns:xlink="http://www.w3.org/1999/xlink" x="0px"
	 y="0px" width="109px" height="41px" viewBox="0 0 109 41" xml:space="preserve">
<g id="Layer_1">
	<path fill="#4D4D4D" d="M88.439,0H20.551C9.219,0,0,9.196,0,20.5S9.219,41,20.551,41h67.889c11.332,0,20.551-9.196,20.551-20.5
		S99.771,0,88.439,0z"/>
	<g>
		<path fill="#F2F2F2" d="M25.573,20.614v0.583c0,1.08-0.069,1.922-0.207,2.523c-0.188,0.879-0.571,1.613-1.148,2.203
			c-0.979,1.006-2.229,1.508-3.748,1.508c-1.506,0-2.755-0.502-3.747-1.508c-0.628-0.639-1.029-1.469-1.205-2.484
			c-0.101-0.541-0.15-1.482-0.15-2.826c0-1.343,0.05-2.284,0.15-2.824c0.176-1.017,0.577-1.846,1.205-2.485
			c0.979-1.004,2.229-1.507,3.747-1.507c1.507,0,2.756,0.503,3.748,1.507c0.627,0.64,1.028,1.469,1.205,2.485
			C25.522,18.342,25.573,19.284,25.573,20.614z M22.277,19.56c0-1.884-0.603-2.825-1.808-2.825c-0.74,0-1.255,0.333-1.544,0.998
			c-0.176,0.452-0.264,1.111-0.264,1.978c0,0.126-0.006,0.364-0.019,0.716s-0.019,0.628-0.019,0.828c0,2.16,0.614,3.24,1.845,3.24
			c0.741,0,1.256-0.346,1.545-1.037c0.175-0.439,0.263-1.098,0.263-1.977V19.56z"/>
		<path fill="#F2F2F2" d="M38.133,27.318h-2.881l-4.293-6.742v6.742h-3.296V13.911h2.882l4.293,6.741v-6.741h3.295V27.318z"/>
		<path fill="#F2F2F2" d="M55.155,16.848h-3.296v10.47h-3.295v-10.47h-3.296v-2.938h9.887V16.848z"/>
		<path fill="#F2F2F2" d="M66.397,20.614v0.583c0,1.08-0.069,1.922-0.207,2.523c-0.188,0.879-0.571,1.613-1.148,2.203
			c-0.979,1.006-2.229,1.508-3.748,1.508c-1.506,0-2.755-0.502-3.747-1.508c-0.628-0.639-1.029-1.469-1.205-2.484
			c-0.101-0.541-0.15-1.482-0.15-2.826c0-1.343,0.05-2.284,0.15-2.824c0.176-1.017,0.577-1.846,1.205-2.485
			c0.979-1.004,2.229-1.507,3.747-1.507c1.507,0,2.756,0.503,3.748,1.507c0.627,0.64,1.028,1.469,1.205,2.485
			C66.347,18.342,66.397,19.284,66.397,20.614z M63.102,19.56c0-1.884-0.603-2.825-1.808-2.825c-0.74,0-1.255,0.333-1.544,0.998
			c-0.176,0.452-0.264,1.111-0.264,1.978c0,0.126-0.006,0.364-0.019,0.716s-0.019,0.628-0.019,0.828c0,2.16,0.614,3.24,1.845,3.24
			c0.741,0,1.256-0.346,1.545-1.037c0.175-0.439,0.263-1.098,0.263-1.977V19.56z"/>
		<path fill="#F2F2F2" d="M78.374,18.223c0,1.28-0.44,2.319-1.318,3.117c-0.879,0.797-1.965,1.195-3.258,1.195h-2.015v4.783h-3.296
			V13.911h5.311c1.293,0,2.373,0.39,3.239,1.167C77.928,15.894,78.374,16.942,78.374,18.223z M75.078,18.223
			c0-0.39-0.138-0.713-0.414-0.97c-0.276-0.258-0.615-0.387-1.017-0.387h-1.864v2.712h1.864c0.401,0,0.74-0.129,1.017-0.386
			C74.94,18.935,75.078,18.612,75.078,18.223z"/>
	</g>
</g>
<g id="Layer_2">
</g>
</svg>
