<?xml version="1.0" encoding="utf-8"?>
<!-- Generator: Adobe Illustrator 16.0.0, SVG Export Plug-In . SVG Version: 6.00 Build 0)  -->
<svg version="1.2" baseProfile="tiny" id="Layer_1" xmlns="http://www.w3.org/2000/svg" xmlns:xlink="http://www.w3.org/1999/xlink"
	 x="0px" y="0px" width="109px" height="41px" viewBox="0 0 109 41" xml:space="preserve">
<path fill="#4D4D4D" d="M88.439,0H20.551C9.219,0,0,9.196,0,20.5S9.219,41,20.551,41h67.889c11.332,0,20.551-9.196,20.551-20.5
	S99.771,0,88.439,0z"/>
<g>
	<path fill="#F2F2F2" d="M25.762,13.911l-4.444,13.408h-2.448l-4.425-13.408h3.408l2.26,7.494l2.222-7.494H25.762z"/>
	<path fill="#F2F2F2" d="M30.318,27.318h-3.296V13.911h3.296V27.318z"/>
	<path fill="#F2F2F2" d="M41.768,23.213c0,1.355-0.54,2.424-1.62,3.201c-0.954,0.678-2.141,1.018-3.559,1.018
		c-2.247,0-3.942-0.59-5.084-1.771l2.108-2.107c0.641,0.627,1.639,0.941,2.994,0.941c1.28,0,1.921-0.402,1.921-1.205
		c0-0.654-0.553-1.068-1.657-1.244c-1.657-0.289-2.681-0.533-3.069-0.734c-1.104-0.577-1.657-1.669-1.657-3.276
		c0-1.344,0.49-2.404,1.469-3.183c0.904-0.703,2.046-1.055,3.428-1.055c1.945,0,3.452,0.534,4.519,1.601l-2.071,2.071
		c-0.526-0.527-1.299-0.791-2.315-0.791c-1.23,0-1.846,0.415-1.846,1.243c0,0.565,0.559,0.93,1.676,1.092
		c1.569,0.239,2.599,0.49,3.088,0.754C41.208,20.395,41.768,21.543,41.768,23.213z"/>
	<path fill="#F2F2F2" d="M47.04,27.318h-3.296V13.911h3.296V27.318z"/>
	<path fill="#F2F2F2" d="M59.486,23.363c0,1.23-0.387,2.197-1.158,2.9c-0.772,0.703-1.779,1.055-3.022,1.055h-5.838V13.911h5.556
		c1.28,0,2.297,0.32,3.05,0.96c0.816,0.69,1.225,1.664,1.225,2.919c0,1.104-0.49,1.99-1.469,2.655
		C58.934,21.109,59.486,22.082,59.486,23.363z M56.002,17.959c0-0.729-0.396-1.093-1.186-1.093h-2.053v2.185h2.053
		C55.606,19.051,56.002,18.687,56.002,17.959z M56.19,23.176c0-0.779-0.401-1.168-1.205-1.168h-2.222v2.354h2.222
		C55.789,24.361,56.19,23.967,56.19,23.176z"/>
	<path fill="#F2F2F2" d="M70.634,27.318h-8.926V13.911h3.296v10.47h5.63V27.318z"/>
	<path fill="#F2F2F2" d="M81.16,27.318h-9.114V13.911h9.114v2.938h-5.818v2.241h4.971v2.938h-4.971v2.354h5.818V27.318z"/>
</g>
</svg>
