<?xml version="1.0" encoding="utf-8"?>
<!-- Generator: Adobe Illustrator 16.0.0, SVG Export Plug-In . SVG Version: 6.00 Build 0)  -->
<svg version="1.2" baseProfile="tiny" xmlns="http://www.w3.org/2000/svg" xmlns:xlink="http://www.w3.org/1999/xlink" x="0px"
	 y="0px" width="109px" height="41px" viewBox="0 0 109 41" xml:space="preserve">
<g id="Layer_1">
	<path fill="#4D4D4D" d="M88.439,0H20.551C9.219,0,0,9.196,0,20.5S9.219,41,20.551,41h67.889c11.332,0,20.551-9.196,20.551-20.5
		S99.771,0,88.439,0z"/>
	<g>
		<path fill="#F2F2F2" d="M24.104,27.318h-9.096v-2.561l5.142-7.91h-4.915v-2.938h8.869v2.561l-5.16,7.91h5.16V27.318z"/>
		<path fill="#F2F2F2" d="M35.647,20.614v0.583c0,1.08-0.069,1.922-0.207,2.523c-0.188,0.879-0.571,1.613-1.148,2.203
			c-0.979,1.006-2.229,1.508-3.748,1.508c-1.506,0-2.755-0.502-3.747-1.508c-0.628-0.639-1.029-1.469-1.205-2.484
			c-0.101-0.541-0.15-1.482-0.15-2.826c0-1.343,0.05-2.284,0.15-2.824c0.176-1.017,0.577-1.846,1.205-2.485
			c0.979-1.004,2.229-1.507,3.747-1.507c1.507,0,2.756,0.503,3.748,1.507c0.627,0.64,1.028,1.469,1.205,2.485
			C35.597,18.342,35.647,19.284,35.647,20.614z M32.352,19.56c0-1.884-0.603-2.825-1.808-2.825c-0.74,0-1.255,0.333-1.544,0.998
			c-0.176,0.452-0.264,1.111-0.264,1.978c0,0.126-0.006,0.364-0.019,0.716s-0.019,0.628-0.019,0.828c0,2.16,0.614,3.24,1.845,3.24
			c0.741,0,1.256-0.346,1.545-1.037c0.175-0.439,0.263-1.098,0.263-1.977V19.56z"/>
		<path fill="#F2F2F2" d="M47.511,20.614v0.583c0,1.08-0.069,1.922-0.207,2.523c-0.188,0.879-0.571,1.613-1.148,2.203
			c-0.979,1.006-2.229,1.508-3.748,1.508c-1.506,0-2.755-0.502-3.747-1.508c-0.628-0.639-1.029-1.469-1.205-2.484
			c-0.101-0.541-0.15-1.482-0.15-2.826c0-1.343,0.05-2.284,0.15-2.824c0.176-1.017,0.577-1.846,1.205-2.485
			c0.979-1.004,2.229-1.507,3.747-1.507c1.507,0,2.756,0.503,3.748,1.507c0.627,0.64,1.028,1.469,1.205,2.485
			C47.46,18.342,47.511,19.284,47.511,20.614z M44.215,19.56c0-1.884-0.603-2.825-1.808-2.825c-0.74,0-1.255,0.333-1.544,0.998
			c-0.176,0.452-0.264,1.111-0.264,1.978c0,0.126-0.006,0.364-0.019,0.716s-0.019,0.628-0.019,0.828c0,2.16,0.614,3.24,1.845,3.24
			c0.741,0,1.256-0.346,1.545-1.037c0.175-0.439,0.263-1.098,0.263-1.977V19.56z"/>
		<path fill="#F2F2F2" d="M62.104,27.318h-3.296v-6.421l-1.901,3.314h-2.109l-1.901-3.314v6.421h-3.296V13.911h3.239l3.013,5.913
			l3.013-5.913h3.239V27.318z"/>
		<path fill="#F2F2F2" d="M73.647,27.318h-9.114V13.911h9.114v2.938h-5.818v2.241H72.8v2.938h-4.971v2.354h5.818V27.318z"/>
		<path fill="#F2F2F2" d="M85.623,21.707c0,3.74-1.67,5.611-5.009,5.611h-4.972V13.911h4.972c3.339,0,5.009,1.871,5.009,5.611
			V21.707z M82.347,19.616c0-0.865-0.113-1.506-0.339-1.92c-0.289-0.565-0.829-0.848-1.62-0.848h-1.449v7.533h1.449
			c0.791,0,1.331-0.283,1.62-0.848c0.226-0.414,0.339-1.049,0.339-1.902V19.616z"/>
	</g>
</g>
<g id="Layer_2">
</g>
</svg>
