<?xml version="1.0" encoding="utf-8"?>
<!-- Generator: Adobe Illustrator 16.0.0, SVG Export Plug-In . SVG Version: 6.00 Build 0)  -->
<svg version="1.2" baseProfile="tiny" id="Layer_1" xmlns="http://www.w3.org/2000/svg" xmlns:xlink="http://www.w3.org/1999/xlink"
	 x="0px" y="0px" width="450px" height="600px" viewBox="0 0 450 600" xml:space="preserve">
<rect fill="#EC9600" width="450" height="600"/>
<g fill="#FFFFFF" style="opacity: 0.15;">
	<path d="M144.478,152.761c0,0.024,0,0.046,0,0.071v-0.144C144.478,152.714,144.478,152.736,144.478,152.761z"/>
	<path d="M297.238,158.282"/>
	<path d="M450,447.238c0-0.023,0-0.046,0-0.07v0.144C450,447.285,450,447.264,450,447.238z"/>
	<path d="M427.064,600h16.45c2.207-2.113,4.372-4.274,6.485-6.484v-16.447
		C442.982,585.316,435.312,592.983,427.064,600z"/>
	<path d="M144.478,524.299v22.068c13.934,21.402,32.229,39.696,53.626,53.633h22.072
		C187.585,583.493,160.977,556.885,144.478,524.299z"/>
	<path d="M374.31,600h22.063c21.388-13.933,39.692-32.23,53.627-53.621v-22.065
		C433.492,556.893,406.884,583.496,374.31,600z"/>
	<path d="M144.478,577.062v16.445c2.113,2.211,4.277,4.375,6.492,6.492h16.441
		C159.165,592.979,151.494,585.312,144.478,577.062z"/>
	<rect x="149.999" y="447.238" width="0" height="0"/>
	<line x1="144.478" y1="152.833" x2="144.478" y2="152.688"/>
	<path d="M297.238,158.282"/>
	<path d="M450,155.485v12.478c-14.811-8.135-30.397-14.994-46.51-20.724h29.643
		C438.841,149.838,444.471,152.577,450,155.485z"/>
	<path d="M144.478,152.688v152.753h152.761v0.08c78.143,0,141.718,63.576,141.718,141.717
		c0,78.143-63.575,141.719-141.718,141.719s-141.718-63.576-141.718-141.719c0-1.861,0.209-3.673,0.28-5.521h-11.044
		c-0.064,1.848-0.279,3.659-0.279,5.521c0,84.232,68.529,152.762,152.761,152.762c84.21,0,152.717-68.49,152.762-152.688v-0.144
		c-0.045-84.199-68.552-152.689-152.762-152.689v-0.079H155.521V152.688v0.073v-0.073V11.042H450V0H144.478V152.688"/>
	<path d="M297.238,323.848H144.478v11.043h152.761v0.078c61.907,0,112.27,50.366,112.27,112.27
		c0,61.905-50.362,112.271-112.27,112.271c-61.902,0-112.271-50.366-112.271-112.271c0-1.861,0.188-3.68,0.281-5.521h-11.044
		c-0.078,1.841-0.279,3.659-0.279,5.521c0,67.994,55.321,123.314,123.312,123.314c67.998,0,123.312-55.32,123.312-123.314
		s-55.314-123.312-123.312-123.312V323.848z"/>
	<path d="M297.238,353.295H144.478v11.043h152.761v0.08c45.667,0,82.822,37.154,82.822,82.82
		c0,45.668-37.155,82.822-82.822,82.822c-45.668,0-82.821-37.154-82.821-82.822c0-1.861,0.156-3.688,0.278-5.521h-11.042
		c-0.107,1.837-0.281,3.659-0.281,5.521c0,51.758,42.11,93.865,93.866,93.865c51.757,0,93.865-42.107,93.865-93.865
		c0-51.756-42.108-93.864-93.865-93.864V353.295z"/>
	<path d="M297.238,382.742H144.478v11.043h152.761v0.08c29.433,0,53.374,23.943,53.374,53.373
		s-23.941,53.375-53.374,53.375c-29.427,0-53.375-23.945-53.375-53.375c0-1.865,0.101-3.705,0.288-5.521h-11.05
		c-0.158,1.822-0.28,3.659-0.28,5.521c0,35.521,28.901,64.418,64.417,64.418c35.522,0,64.417-28.897,64.417-64.418
		c0-35.519-28.895-64.416-64.417-64.416V382.742z"/>
	<path d="M297.238,412.19H144.478v11.044h152.761v0.078c13.191,0,23.927,10.734,23.927,23.926
		c0,13.193-10.735,23.928-23.927,23.928c-13.192,0-23.927-10.734-23.927-23.928c0-1.908,0.28-3.741,0.706-5.521h-11.188
		c-0.287,1.812-0.561,3.63-0.561,5.521c0,19.283,15.688,34.971,34.97,34.971s34.969-15.688,34.969-34.971
		c0-19.281-15.687-34.969-34.969-34.969V412.19z"/>
	<path d="M291.717,447.238c0,3.049,2.473,5.522,5.521,5.522s5.522-2.474,5.522-5.522
		c0-3.047-2.474-5.521-5.522-5.521v-0.079h-5.521v5.521V447.238z"/>
	<path d="M173.926,152.688v123.306l123.312,0.015v0.065c66.668,0,124.514,38.331,152.762,94.091V348.1
		c-32.533-49.952-88.834-83.068-152.762-83.068v-0.065l-112.271-0.014V152.688v0.073v-0.073V40.491H450V29.447H173.926V152.688
		v0.073V152.688z"/>
	<path d="M203.372,152.688v93.858l93.866,0.015v0.065c61.139,0,115.93,27.517,152.762,70.783v-16.446
		c-38.558-40.247-92.758-65.38-152.762-65.38v-0.065l-82.821-0.015v-82.814v0.073v-0.073v-82.75H450V58.896H203.372V152.688v0.073
		V152.688z"/>
	<path d="M232.821,152.688v64.41l64.417,0.014v0.065c58.587,0,112.098,22.046,152.762,58.234V260.85
		c-41.621-34.171-94.828-54.715-152.762-54.715v-0.065l-53.375-0.014v-53.367v0.073v-0.073V99.386H450V88.344H232.821V152.688v0.073
		V152.688z"/>
	<path d="M262.269,152.688v34.962l34.97,0.008v0.072c57.075,0,109.869,18.563,152.762,49.905V224.09
		c-43.505-29.875-96.116-47.403-152.762-47.403v-0.072l-23.927-0.007v-23.919v0.073v-0.073v-23.854H450v-11.043H262.269V152.688
		v0.073V152.688z"/>
	<path d="M297.238,158.21h-5.521v-5.521v0.073v-0.073v-5.45h5.521c55.762,0,107.984,15.339,152.762,41.95v12.934
		c-44.354-27.74-96.699-43.841-152.762-43.841"/>
</g>
<rect x="356" y="529" fill="#27B5F4" width="94" height="71"/>
<g>
	<path fill="#FFFFFF" d="M384,551.23c0,2.38-0.061,3.939-0.18,4.68c-0.26,1.64-0.92,2.99-1.98,4.05c-1.36,1.36-3.24,2.04-5.64,2.04
		h-7.71v-21.36h7.71c2.399,0,4.279,0.681,5.64,2.04c1.061,1.061,1.721,2.381,1.98,3.96C383.939,547.36,384,548.89,384,551.23z
		 M379.83,551.23c0-1.721-0.051-2.93-0.15-3.631c-0.119-0.819-0.37-1.459-0.75-1.92c-0.72-0.88-1.76-1.319-3.119-1.319h-3.15v13.92
		h3.15c1.359,0,2.399-0.44,3.119-1.32c0.38-0.46,0.631-1.13,0.75-2.01C379.779,554.21,379.83,552.97,379.83,551.23z"/>
</g>
<g>
	<path fill="#FFFFFF" d="M403.77,562h-4.83l-4.17-8.52h-3V562h-4.17v-21.36h8.369c2.12,0,3.82,0.641,5.101,1.92
		c1.22,1.221,1.83,2.761,1.83,4.62c0,1.421-0.39,2.641-1.17,3.66c-0.7,0.9-1.61,1.551-2.729,1.95L403.77,562z M398.729,547.165
		c0-0.835-0.28-1.512-0.841-2.029c-0.56-0.517-1.289-0.775-2.189-0.775h-3.93v5.609h3.93c0.9,0,1.63-0.258,2.189-0.775
		C398.449,548.677,398.729,548.001,398.729,547.165z"/>
</g>
<g>
	<path fill="#FFFFFF" d="M422.939,562h-4.35l-1.261-3.78h-7.59l-1.29,3.78h-4.35l7.77-21.36h3.27L422.939,562z M416.219,554.71
		l-2.609-7.77l-2.7,7.77H416.219z"/>
</g>
<g>
	<path fill="#FFFFFF" d="M439.08,553.157c0,2.988-0.66,5.174-1.98,6.557c-1.58,1.645-3.57,2.466-5.97,2.466
		c-2.28,0-4.2-0.779-5.76-2.34c-0.96-0.96-1.58-2.189-1.86-3.689c-0.16-0.88-0.24-2.49-0.24-4.83s0.08-3.95,0.24-4.83
		c0.28-1.5,0.9-2.73,1.86-3.69c1.56-1.56,3.479-2.34,5.76-2.34c1.44,0,2.659,0.21,3.66,0.63c0.94,0.42,1.899,1.12,2.88,2.101
		l-2.82,2.819c-0.66-0.66-1.22-1.119-1.68-1.38c-0.58-0.3-1.26-0.45-2.04-0.45c-1.101,0-1.99,0.381-2.67,1.141
		c-0.521,0.6-0.84,1.56-0.96,2.88c-0.041,0.359-0.061,1.4-0.061,3.12s0.02,2.76,0.061,3.12c0.12,1.34,0.439,2.31,0.96,2.909
		c0.66,0.74,1.55,1.11,2.67,1.11c1.159,0,2.11-0.399,2.851-1.2c0.619-0.68,0.93-1.649,0.93-2.91v-0.75h-3.78v-3.51h7.95V553.157z"/>
</g>
<g>
	<path fill="#FFFFFF" d="M384.061,588h-4.17v-8.94h-7.23V588h-4.17v-21.36h4.17v8.73h7.23v-8.73h4.17V588z"/>
</g>
<g>
	<path fill="#FFFFFF" d="M401.971,588H387.9v-21.36h14.07v3.721h-9.9v5.01h8.43v3.72h-8.43v5.19h9.9V588z"/>
</g>
<g>
	<path fill="#FFFFFF" d="M420.93,588h-4.83l-4.17-8.52h-3V588h-4.17v-21.36h8.369c2.12,0,3.82,0.641,5.101,1.92
		c1.22,1.221,1.83,2.761,1.83,4.62c0,1.421-0.39,2.641-1.17,3.66c-0.7,0.9-1.61,1.551-2.729,1.95L420.93,588z M415.89,573.165
		c0-0.835-0.28-1.512-0.841-2.029c-0.56-0.517-1.289-0.775-2.189-0.775h-3.93v5.609h3.93c0.9,0,1.63-0.258,2.189-0.775
		C415.609,574.677,415.89,574.001,415.89,573.165z"/>
</g>
<g>
	<path fill="#FFFFFF" d="M437.67,588H423.6v-21.36h14.07v3.721h-9.9v5.01h8.43v3.72h-8.43v5.19h9.9V588z"/>
</g>
<g>
	<g>
		<path fill="#666666" stroke="#4D4D4D" stroke-miterlimit="10" d="M197.553,498.414c0,6.492-5.264,11.754-11.754,11.754h-379.045
			c-6.492,0-11.754-5.262-11.754-11.754V231.025c0-6.492,5.262-11.753,11.754-11.753h379.045c6.49,0,11.754,5.262,11.754,11.753
			V498.414z"/>
		<rect x="-191.777" y="232.495" stroke="#4D4D4D" stroke-miterlimit="10" width="376.107" height="235.067"/>
		<rect x="-72.775" y="545.428" fill="#666666" stroke="#4D4D4D" stroke-miterlimit="10" width="145.448" height="8.814"/>
		<path fill="#4D4D4D" stroke="#4D4D4D" stroke-miterlimit="10" d="M-72.775,545.428c0,0,19.101-1.469,20.57-35.26h104.31
			c1.47,33.791,20.569,35.26,20.569,35.26H-72.775z"/>
	</g>
	<g fill="#000000" style="opacity: 0.15;"><rect x="133" y="467" width="9" height="44"/></g>
	<g>
		<path fill="#666666" stroke="#4D4D4D" stroke-miterlimit="10" d="M266.604,548.365c0,3.246-2.631,5.877-5.877,5.877H143.193
			c-3.246,0-5.877-2.631-5.877-5.877V372.064c0-3.244,2.631-5.875,5.877-5.875h117.534c3.244,0,5.877,2.631,5.877,5.875V548.365
			L266.604,548.365z"/>
		<rect x="146.131" y="385.288" stroke="#4D4D4D" stroke-miterlimit="10" width="111.657" height="149.854"/>
	</g>
	<g fill="#000000" style="opacity: 0.15;"><rect x="213" y="510" width="9" height="44"/></g>
	<g>
		<path fill="#666666" stroke="#4D4D4D" stroke-miterlimit="10" d="M331.247,498.414c3.245,0,5.876,2.631,5.876,5.877v44.074
			c0,3.246-2.631,5.877-5.876,5.877H222.528c-3.245,0-5.877-2.631-5.877-5.877v-44.074c0-3.246,2.632-5.877,5.877-5.877H331.247
			L331.247,498.414z"/>
		<rect x="235.75" y="502.822" stroke="#4D4D4D" stroke-miterlimit="10" width="82.274" height="47.013"/>
	</g>
	<rect y="283.711" fill="#E5E5E5" width="101.865" height="135.822"/>
	<polygon fill="#CBCBCB" points="0,283.711 93.378,270.978 93.378,432.267 0,419.533 	"/>
	<polygon fill="#B2B2B2" points="0,283.711 46.688,254 46.688,445 0,419.533 	"/>
</g>
</svg>
