<?xml version="1.0" encoding="utf-8"?>
<!-- Generator: Adobe Illustrator 16.0.0, SVG Export Plug-In . SVG Version: 6.00 Build 0)  -->
<svg version="1.2" baseProfile="tiny" id="Layer_1" xmlns="http://www.w3.org/2000/svg" xmlns:xlink="http://www.w3.org/1999/xlink"
	 x="0px" y="0px" width="450px" height="600px" viewBox="0 0 450 600" xml:space="preserve">
<path fill="#E5E5E5" stroke="#989898" stroke-miterlimit="10" d="M647.553,498.143c0,6.491-5.264,11.754-11.754,11.754H256.754
	c-6.492,0-11.754-5.263-11.754-11.754v-267.39c0-6.491,5.262-11.753,11.754-11.753h379.045c6.49,0,11.754,5.262,11.754,11.753
	V498.143L647.553,498.143z"/>
<rect x="258.223" y="232.223" fill="#F1F1F1" stroke="#989898" stroke-miterlimit="10" width="376.107" height="235.067"/>
<rect x="377.226" y="545.155" fill="#E5E5E5" stroke="#989898" stroke-miterlimit="10" width="145.448" height="8.814"/>
<path fill="#E5E5E5" stroke="#989898" stroke-miterlimit="10" d="M377.226,545.155c0,0,19.101-1.47,20.569-35.261h104.312
	c1.469,33.791,20.567,35.261,20.567,35.261H377.226z"/>
<g>
	<polyline fill="#F1F1F1" points="450,419.533 348.135,419.533 348.135,283.711 450,283.711 	"/>
	<g>
		<line fill="none" stroke="#CBCBCB" stroke-width="4" stroke-miterlimit="10" x1="450" y1="419.533" x2="446" y2="419.533"/>
		
			<line fill="none" stroke="#CBCBCB" stroke-width="4" stroke-miterlimit="10" stroke-dasharray="8.5332,8.5332" x1="437.467" y1="419.533" x2="356.401" y2="419.533"/>
		<polyline fill="none" stroke="#CBCBCB" stroke-width="4" stroke-miterlimit="10" points="352.135,419.533 348.135,419.533 
			348.135,415.533 		"/>
		
			<line fill="none" stroke="#CBCBCB" stroke-width="4" stroke-miterlimit="10" stroke-dasharray="7.519,7.519" x1="348.135" y1="408.016" x2="348.135" y2="291.47"/>
		<polyline fill="none" stroke="#CBCBCB" stroke-width="4" stroke-miterlimit="10" points="348.135,287.711 348.135,283.711 
			352.135,283.711 		"/>
		
			<line fill="none" stroke="#CBCBCB" stroke-width="4" stroke-miterlimit="10" stroke-dasharray="8.5332,8.5332" x1="360.668" y1="283.711" x2="441.733" y2="283.711"/>
		<line fill="none" stroke="#CBCBCB" stroke-width="4" stroke-miterlimit="10" x1="446" y1="283.711" x2="450" y2="283.711"/>
	</g>
</g>
<g>
	<path fill="#CBCBCB" d="M227.889,58h-4.634V37.578l-7.037,14.888h-3.432l-7.208-14.888V58h-4.634V27.452h4.634l8.924,19.007
		l8.752-19.007h4.635V58L227.889,58z"/>
	<path fill="#CBCBCB" d="M255.947,58h-4.934l-2.104-6.135h-12.057L234.752,58h-4.934l11.197-30.548h3.733L255.947,58z
		 M247.624,47.918L242.99,34.36l-4.764,13.558H247.624z"/>
	<path fill="#CBCBCB" d="M282.548,58H277.1l-8.582-15.06l-5.147,6.178V58h-4.634V27.452h4.634v15.36l12.485-15.36h5.664
		l-9.912,11.971L282.548,58z"/>
	<path fill="#CBCBCB" d="M305.803,58h-19.521V27.452h19.521v4.162h-14.889v8.924h12.7V44.7h-12.7v9.139h14.889V58z"/>
	<path fill="#CBCBCB" d="M339.911,27.452l-9.14,17.977V58h-4.634V45.429L317,27.452h5.062l6.393,13.429l6.393-13.429H339.911z"/>
	<path fill="#CBCBCB" d="M363.938,44.314c0,2.632-0.113,4.534-0.344,5.706c-0.399,2.002-1.258,3.662-2.574,4.977
		c-2.174,2.174-4.861,3.261-8.064,3.261c-3.175,0-5.852-1.086-8.023-3.261c-1.458-1.458-2.374-3.375-2.745-5.749
		c-0.145-1.001-0.215-3.175-0.215-6.522c0-3.346,0.07-5.52,0.215-6.521c0.371-2.374,1.287-4.291,2.745-5.749
		c2.174-2.173,4.85-3.261,8.023-3.261c3.203,0,5.892,1.087,8.064,3.261c1.316,1.316,2.175,2.975,2.574,4.977
		c0.229,1.173,0.344,3.075,0.344,5.706V44.314z M359.304,42.726c0-3.632-0.229-6.121-0.687-7.465
		c-0.857-2.603-2.746-3.904-5.663-3.904s-4.806,1.302-5.663,3.904c-0.459,1.345-0.688,3.833-0.688,7.465
		c0,3.633,0.229,6.122,0.688,7.466c0.857,2.603,2.746,3.904,5.663,3.904s4.806-1.301,5.663-3.904
		C359.074,48.848,359.304,46.359,359.304,42.726z"/>
	<path fill="#CBCBCB" d="M390.539,47.703c0,3.118-1.045,5.657-3.133,7.616s-4.705,2.939-7.853,2.939
		c-3.146,0-5.757-0.979-7.83-2.939c-2.073-1.959-3.11-4.498-3.11-7.616V27.452h4.635v20.037c0,1.974,0.564,3.568,1.694,4.784
		c1.13,1.216,2.667,1.824,4.611,1.824c1.945,0,3.489-0.607,4.635-1.824c1.144-1.215,1.716-2.81,1.716-4.784V27.452h4.635V47.703
		L390.539,47.703z"/>
	<path fill="#CBCBCB" d="M418.126,58h-5.405l-6.437-12.872h-5.792V58h-4.634V27.452H407.7c2.745,0,5.005,0.787,6.778,2.36
		c1.803,1.659,2.702,3.847,2.702,6.564c0,1.974-0.543,3.69-1.63,5.148c-1.087,1.459-2.574,2.446-4.462,2.96L418.126,58z
		 M412.549,36.419c0-1.516-0.486-2.696-1.459-3.54c-0.973-0.843-2.217-1.266-3.731-1.266h-6.865v9.568h6.865
		c1.516,0,2.76-0.414,3.731-1.244C412.062,39.108,412.549,37.936,412.549,36.419z"/>
	<path fill="#CBCBCB" d="M321.163,84.087c0,5.607-1.845,10.097-5.535,13.472c-3.688,3.376-8.366,5.062-14.03,5.062h-13.899v24.027
		h-9.269V65.552h23.168c5.664,0,10.342,1.688,14.03,5.063C319.318,73.991,321.163,78.481,321.163,84.087z M311.896,84.129
		c0-3.216-1.002-5.729-3.004-7.539c-2.004-1.81-4.604-2.715-7.809-2.715h-13.387v20.422h13.387c3.203,0,5.805-0.89,7.809-2.67
		C310.895,89.847,311.896,87.348,311.896,84.129z"/>
	<path fill="#CBCBCB" d="M371.361,98.76c0,8.752-1.403,15.332-4.205,19.736c-3.49,5.436-9.411,8.152-17.765,8.152h-21.45V65.552
		h21.45c8.182,0,14.044,2.604,17.593,7.809c2.918,4.348,4.377,10.756,4.377,19.222V98.76L371.361,98.76z M362.094,95.671
		c0-7.264-0.545-12.213-1.631-14.845c-1.832-4.633-5.836-6.95-12.014-6.95h-11.24v44.449h11.24c6.293,0,10.354-2.459,12.186-7.379
		C361.606,108.314,362.094,103.222,362.094,95.671z"/>
	<path fill="#CBCBCB" d="M420.701,73.875h-29.775v18.621h25.398v8.324h-25.398v25.829h-9.268V65.552h39.043V73.875z"/>
	<path fill="#CBCBCB" d="M280.395,149.427c-0.34,2.022-1.186,3.624-2.537,4.805c-1.352,1.182-3.049,1.772-5.092,1.772
		c-2.222,0-4.094-0.761-5.615-2.283c-1.021-1.021-1.661-2.362-1.922-4.024c-0.102-0.701-0.149-2.222-0.149-4.565
		c0-2.343,0.049-3.864,0.149-4.565c0.261-1.662,0.9-3.003,1.922-4.025c1.521-1.521,3.395-2.282,5.615-2.282
		c2.043,0,3.734,0.585,5.076,1.757c1.342,1.172,2.192,2.778,2.553,4.82h-3.303c-0.582-2.442-2.023-3.664-4.326-3.664
		c-2.021,0-3.344,0.912-3.964,2.733c-0.319,0.941-0.479,2.684-0.479,5.226c0,2.543,0.16,4.285,0.479,5.226
		c0.62,1.822,1.942,2.733,3.964,2.733c2.323,0,3.774-1.221,4.355-3.664H280.395z"/>
	<path fill="#CBCBCB" d="M297.333,146.243c0,1.842-0.08,3.173-0.24,3.994c-0.28,1.402-0.881,2.563-1.802,3.484
		c-1.521,1.522-3.404,2.283-5.646,2.283c-2.223,0-4.095-0.761-5.615-2.283c-1.021-1.021-1.662-2.362-1.922-4.024
		c-0.102-0.701-0.15-2.222-0.15-4.565c0-2.343,0.05-3.864,0.15-4.565c0.26-1.662,0.9-3.003,1.922-4.025
		c1.521-1.521,3.394-2.282,5.615-2.282c2.242,0,4.125,0.761,5.646,2.282c0.921,0.921,1.521,2.083,1.802,3.484
		c0.16,0.821,0.24,2.153,0.24,3.995V146.243z M294.09,145.132c0-2.542-0.16-4.285-0.48-5.226c-0.602-1.821-1.922-2.733-3.965-2.733
		c-2.041,0-3.362,0.912-3.965,2.733c-0.32,0.941-0.479,2.684-0.479,5.226c0,2.543,0.159,4.285,0.479,5.226
		c0.603,1.822,1.924,2.733,3.965,2.733c2.043,0,3.363-0.911,3.965-2.733C293.93,149.417,294.09,147.675,294.09,145.132z"/>
	<path fill="#CBCBCB" d="M319.799,155.824h-3.244v-14.296l-4.926,10.421h-2.402l-5.046-10.421v14.296h-3.242V134.44h3.242
		l6.247,13.305l6.127-13.305h3.244V155.824L319.799,155.824z"/>
	<path fill="#CBCBCB" d="M337.367,155.824h-13.666V134.44h13.666v2.913h-10.422v6.247h8.891v2.913h-8.891v6.397h10.422V155.824z"/>
	<path fill="#CBCBCB" d="M363.586,155.824h-3.454l-1.472-4.295h-8.439l-1.471,4.295h-3.455l7.84-21.384h2.612L363.586,155.824z
		 M357.76,148.766l-3.244-9.49l-3.334,9.49H357.76z"/>
	<path fill="#CBCBCB" d="M379.083,155.824h-13.546V134.44h3.244v18.471h10.302V155.824z"/>
	<path fill="#CBCBCB" d="M384.338,155.824h-3.243V134.44h3.243V155.824z"/>
	<path fill="#CBCBCB" d="M402.238,134.44l-7.088,21.384h-2.522L385.6,134.44h3.364l4.925,15.557l4.927-15.557H402.238z"/>
	<path fill="#CBCBCB" d="M418.188,155.824h-13.665V134.44h13.665v2.913h-10.423v6.247h8.891v2.913h-8.891v6.397h10.423V155.824z"/>
	<path fill="#CBCBCB" d="M209.439,193.58h-4.634v-30.548h4.634V193.58z"/>
	<path fill="#CBCBCB" d="M238.014,193.58h-4.248l-14.115-21.496v21.496h-4.634v-30.548h4.248l14.116,21.453v-21.453h4.635v30.548
		H238.014z"/>
	<path fill="#CBCBCB" d="M282.033,193.58h-4.635v-20.423l-7.035,14.888h-3.434l-7.207-14.888v20.423h-4.635v-30.548h4.635
		l8.924,19.007l8.752-19.007h4.635V193.58L282.033,193.58z"/>
	<path fill="#CBCBCB" d="M292.244,193.58h-4.635v-30.548h4.635V193.58z"/>
	<path fill="#CBCBCB" d="M320.818,193.58h-4.247l-14.116-21.496v21.496h-4.633v-30.548h4.247l14.115,21.453v-21.453h4.634V193.58z"
		/>
	<path fill="#CBCBCB" d="M347.849,183.283c0,3.118-1.045,5.657-3.132,7.616c-2.089,1.959-4.706,2.939-7.852,2.939
		c-3.147,0-5.758-0.979-7.83-2.939c-2.074-1.959-3.111-4.498-3.111-7.616v-20.251h4.634v20.037c0,1.974,0.564,3.568,1.694,4.784
		s2.668,1.824,4.613,1.824c1.943,0,3.488-0.607,4.633-1.824c1.145-1.215,1.717-2.81,1.717-4.784v-20.037h4.634V183.283
		L347.849,183.283z"/>
	<path fill="#CBCBCB" d="M371.918,167.193h-8.41v26.387h-4.633v-26.387h-8.41v-4.162h21.453V167.193z"/>
	<path fill="#CBCBCB" d="M394.914,193.58h-19.521v-30.548h19.521v4.162h-14.887v8.924h12.698v4.162h-12.698v9.139h14.887V193.58z"/>
	<path fill="#CBCBCB" d="M417.482,184.871c0,2.917-1.132,5.191-3.391,6.822c-2.003,1.431-4.534,2.145-7.595,2.145
		c-4.547,0-8.151-1.344-10.812-4.033l3.09-3.046c1.944,1.945,4.549,2.917,7.809,2.917c1.772,0,3.203-0.329,4.291-0.987
		c1.344-0.829,2.017-2.06,2.017-3.69c0-2.288-1.4-3.761-4.204-4.419c-2.574-0.543-5.164-1.101-7.767-1.673
		c-2.804-1.202-4.204-3.589-4.204-7.166c0-2.86,1-5.105,3.003-6.736c1.858-1.487,4.262-2.231,7.208-2.231
		c3.832,0,6.994,1.158,9.482,3.475l-2.961,2.917c-1.659-1.573-3.876-2.36-6.65-2.36c-1.573,0-2.875,0.386-3.904,1.159
		c-1.114,0.858-1.674,2.06-1.674,3.604c0,2.117,1.402,3.49,4.205,4.119c5.177,1.173,7.794,1.774,7.853,1.802
		C416.08,178.75,417.482,181.209,417.482,184.871z"/>
</g>
<path fill="#F84C60" d="M157.473,257.727h-72C79.688,257.727,75,262.416,75,268.2v162.328C75,436.311,79.688,441,85.473,441h123.055
	c5.784,0,10.473-4.689,10.473-10.473V319.254L157.473,257.727z"/>
<g>
	<path fill="#FFFFFF" d="M115.404,402.592c0,3.4-1.167,6.158-3.5,8.275s-5.217,3.174-8.65,3.174h-5.35v12.701h-8.75v-35.602h14.1
		c3.433,0,6.3,1.034,8.6,3.102C114.22,396.408,115.404,399.191,115.404,402.592z M106.654,402.592c0-1.033-0.367-1.892-1.1-2.574
		c-0.733-0.684-1.634-1.024-2.7-1.024h-4.95v7.198h4.95c1.066,0,1.967-0.342,2.7-1.024
		C106.287,404.484,106.654,403.625,106.654,402.592z"/>
	<path fill="#FFFFFF" d="M146.104,411.842c0,9.935-4.434,14.9-13.3,14.9h-13.2v-35.602h13.2c8.867,0,13.3,4.969,13.3,14.899V411.842
		z M137.404,406.291c0-2.299-0.3-4-0.9-5.1c-0.767-1.5-2.2-2.25-4.3-2.25h-3.85v20h3.85c2.1,0,3.533-0.75,4.3-2.25
		c0.6-1.101,0.9-2.783,0.9-5.051V406.291z"/>
	<path fill="#FFFFFF" d="M176.153,398.941h-15.45v6.25h13.2v7.801h-13.2v13.75h-8.75v-35.602h24.2V398.941z"/>
</g>
<path fill="#D9D9D9" d="M157.473,308.781c0,5.785,4.688,10.473,10.473,10.473H219l-61.527-61.527V308.781L157.473,308.781z"/>
<polygon fill="#27B5F4" points="370,351.621 310.58,292.202 310.58,321.516 229.367,321.516 229.367,381.729 310.58,381.729 
	310.58,411.041 "/>
<rect fill="none" width="450" height="600"/>
</svg>
