<?xml version="1.0" encoding="utf-8"?>
<!-- Generator: Adobe Illustrator 16.0.0, SVG Export Plug-In . SVG Version: 6.00 Build 0)  -->
<svg version="1.2" baseProfile="tiny" id="Layer_1" xmlns="http://www.w3.org/2000/svg" xmlns:xlink="http://www.w3.org/1999/xlink"
	 x="0px" y="0px" width="450px" height="600px" viewBox="0 0 450 600" xml:space="preserve">
<path fill="#4D4D4D" d="M8,600h12h12h418V0H32H20H8C3.582,0,0,3.582,0,8v584C0,596.418,3.582,600,8,600z"/>
<g>
	<path fill="#ECECEC" d="M67.344,57.169c0,4.481-1.527,8.117-4.581,10.907c-3.054,2.791-6.865,4.185-11.434,4.185h-7.052V89H32.745
		V42.077H51.33c4.569,0,8.347,1.362,11.335,4.086C65.784,49.02,67.344,52.688,67.344,57.169z M55.811,57.169
		c0-1.406-0.484-2.548-1.45-3.427c-0.967-0.878-2.153-1.318-3.559-1.318h-6.524v9.49h6.524c1.406,0,2.592-0.438,3.559-1.318
		C55.327,59.717,55.811,58.575,55.811,57.169z"/>
	<path fill="#ECECEC" d="M107.742,69.361c0,13.093-5.844,19.639-17.53,19.639H72.813V42.077h17.398
		c11.687,0,17.53,6.547,17.53,19.639V69.361z M96.209,65.539c0-4.613-0.154-7.49-0.461-8.633c-0.835-3.032-2.944-4.547-6.327-4.547
		h-5.075v26.361h5.075c3.383,0,5.492-1.516,6.327-4.547C96.055,73.03,96.209,70.152,96.209,65.539z"/>
	<path fill="#ECECEC" d="M147.151,52.358h-20.364v8.238h17.398v10.281h-17.398V89h-11.533V42.077h31.897V52.358z"/>
	<path fill="#ECECEC" d="M45.751,105.598V135h-6.95v-29.402H29.5v-6.2h25.552v6.2H45.751z"/>
	<path fill="#ECECEC" d="M81.75,131.4c-2.5,2.5-5.55,3.9-9.601,3.9s-7.15-1.4-9.651-3.9c-3.6-3.6-3.5-8.051-3.5-14.201
		s-0.1-10.601,3.5-14.201c2.5-2.5,5.601-3.9,9.651-3.9s7.1,1.4,9.601,3.9c3.6,3.6,3.55,8.05,3.55,14.201S85.351,127.8,81.75,131.4z
		 M76.6,107.198c-1-1.15-2.55-1.9-4.45-1.9c-1.9,0-3.5,0.75-4.5,1.9c-1.35,1.5-1.7,3.15-1.7,10c0,6.851,0.35,8.5,1.7,10.001
		c1,1.15,2.6,1.9,4.5,1.9c1.9,0,3.45-0.75,4.45-1.9c1.35-1.5,1.75-3.15,1.75-10.001C78.35,110.349,77.95,108.698,76.6,107.198z"/>
	<path fill="#ECECEC" d="M118.8,121.599h-6.851V135h-6.95V99.398H118.8c7.351,0,11.75,5.05,11.75,11.101
		S126.15,121.599,118.8,121.599z M118.45,105.598h-6.5v9.75h6.5c3.15,0,5.15-1.95,5.15-4.85
		C123.6,107.598,121.6,105.598,118.45,105.598z"/>
	<path fill="#ECECEC" d="M154.647,135l-2.1-6.3h-12.651l-2.15,6.3h-7.25l12.951-35.602h5.451l13,35.602H154.647z M146.347,109.898
		l-4.5,12.951h8.851L146.347,109.898z"/>
	<path fill="#ECECEC" d="M188.246,131.25c-2.85,2.95-6.25,4.05-10.051,4.05c-3.9,0-7.1-1.4-9.601-3.9c-3.6-3.6-3.5-8.051-3.5-14.201
		s-0.1-10.601,3.5-14.201c2.5-2.5,5.601-3.9,9.601-3.9c8.25,0,12.451,5.4,13.401,11.401h-7c-0.8-3.35-2.85-5.2-6.4-5.2
		c-1.9,0-3.45,0.75-4.45,1.9c-1.35,1.5-1.7,3.15-1.7,10c0,6.851,0.35,8.551,1.7,10.051c1,1.15,2.55,1.85,4.45,1.85
		c2.1,0,3.8-0.75,4.951-2c1.15-1.3,1.6-2.9,1.6-4.75v-1.35h-6.551v-5.8h13.451v5.2C191.646,125.549,190.746,128.649,188.246,131.25z
		"/>
	<path fill="#ECECEC" d="M199.194,135V99.398h23.451v6.2h-16.501v8.351h14.051v6.2h-14.051v8.651h16.501v6.2H199.194z"/>
	<path fill="#ECECEC" d="M236.895,105.598v8.75h14.051v6.201h-14.051V135h-6.95V99.398h23.451v6.2H236.895z"/>
	<path fill="#ECECEC" d="M259.944,135V99.398h6.95V128.8h16.15v6.2H259.944z"/>
	<path fill="#ECECEC" d="M289.193,135V99.398h6.951V135H289.193z"/>
	<path fill="#ECECEC" d="M318.744,121.599h-6.85V135h-6.951V99.398h13.801c7.352,0,11.751,5.05,11.751,11.101
		S326.096,121.599,318.744,121.599z M318.395,105.598h-6.5v9.75h6.5c3.15,0,5.15-1.95,5.15-4.85
		C323.545,107.598,321.545,105.598,318.395,105.598z"/>
	<path fill="#ECECEC" d="M352.494,132.8c-1.65,1.65-3.9,2.55-6.851,2.55c-2.899,0-5.3-0.8-6.851-2.4c-1.35-1.35-2.199-3.25-2.4-5.8
		h2.551c0.5,3.8,2.55,5.951,6.7,5.951c1.95,0,3.751-0.65,4.9-1.8c2.101-2.1,2.15-5.3,2.15-7.951c0-4.45-0.8-9.5-6.651-9.5
		c-3.25,0-5.699,1.35-6.449,3.75h-2.25V99.398h17.101v2.25h-14.851v12.601c1.55-1.8,3.85-2.65,6.75-2.65c2.551,0,4.6,0.75,6,2.15
		c2.5,2.5,2.9,6.25,2.9,9.601C355.244,126.75,355.045,130.25,352.494,132.8z"/>
	<path fill="#ECECEC" d="M44.051,181.3c-3.9,0-7.1-1.4-9.601-3.9c-3.6-3.6-3.5-8.051-3.5-14.201s-0.1-10.601,3.5-14.201
		c2.5-2.5,5.701-3.9,9.601-3.9c6.65,0,11.851,3.8,13.101,11.251h-7.05c-0.7-2.85-2.5-5.05-6-5.05c-1.9,0-3.45,0.7-4.45,1.85
		c-1.35,1.5-1.75,3.2-1.75,10.05c0,6.851,0.4,8.551,1.75,10.051c1,1.15,2.55,1.85,4.45,1.85c3.5,0,5.3-2.2,6-5.05h7.05
		C55.902,177.5,50.651,181.3,44.051,181.3z"/>
	<path fill="#ECECEC" d="M85.202,177.4c-2.5,2.5-5.55,3.9-9.601,3.9s-7.15-1.4-9.651-3.9c-3.6-3.6-3.5-8.051-3.5-14.201
		s-0.1-10.601,3.5-14.201c2.5-2.5,5.601-3.9,9.651-3.9s7.1,1.4,9.601,3.9c3.6,3.6,3.55,8.05,3.55,14.201S88.802,173.8,85.202,177.4z
		 M80.051,153.198c-1-1.15-2.55-1.9-4.45-1.9c-1.9,0-3.5,0.75-4.5,1.9c-1.35,1.5-1.7,3.15-1.7,10c0,6.851,0.35,8.5,1.7,10.001
		c1,1.15,2.6,1.9,4.5,1.9c1.9,0,3.45-0.75,4.45-1.9c1.35-1.5,1.75-3.15,1.75-10.001C81.801,156.349,81.401,154.698,80.051,153.198z"
		/>
	<path fill="#ECECEC" d="M117.401,181L103.3,159.148V181h-6.95v-35.602h6.2l14.101,21.801v-21.801h6.95V181H117.401z"/>
	<path fill="#ECECEC" d="M145.351,181h-5.2l-11.751-35.602h7.201l7.15,23.201l7.15-23.201h7.25L145.351,181z"/>
	<path fill="#ECECEC" d="M161.95,181v-35.602h23.451v6.2H168.9v8.351h14.051v6.2H168.9v8.651h16.501v6.2H161.95z"/>
	<path fill="#ECECEC" d="M211.6,181l-6.95-14.201h-5V181h-6.95v-35.602h13.951c7.25,0,11.551,4.95,11.551,10.9
		c0,5-3.05,8.101-6.5,9.351L219.651,181H211.6z M206.2,151.598h-6.55v9.401h6.55c3.05,0,5.05-1.95,5.05-4.701
		C211.25,153.548,209.25,151.598,206.2,151.598z"/>
	<path fill="#ECECEC" d="M239.5,151.598V181h-6.951v-29.402h-9.3v-6.2h25.552v6.2H239.5z"/>
	<path fill="#ECECEC" d="M254.949,181v-35.602H278.4v6.2h-16.502v8.351h14.051v6.2h-14.051v8.651H278.4v6.2H254.949z"/>
	<path fill="#ECECEC" d="M304.6,181l-6.95-14.201h-5.001V181h-6.949v-35.602h13.95c7.251,0,11.551,4.95,11.551,10.9
		c0,5-3.05,8.101-6.501,9.351L312.65,181H304.6z M299.199,151.598h-6.551v9.401h6.551c3.051,0,5.051-1.95,5.051-4.701
		C304.25,153.548,302.25,151.598,299.199,151.598z"/>
</g>
<path fill="#4D4D4D" stroke="#CBCBCB" stroke-miterlimit="10" d="M403.5,528.944c0,4.173-3.386,7.556-7.562,7.556H152.062
	c-4.178,0-7.562-3.383-7.562-7.556V357.056c0-4.173,3.385-7.556,7.562-7.556h243.875c4.177,0,7.562,3.383,7.562,7.556V528.944z"/>
<rect x="153.5" y="357.5" fill="#666666" stroke="#CBCBCB" stroke-miterlimit="10" width="241" height="151"/>
<rect x="227.5" y="559.5" fill="#4D4D4D" stroke="#CBCBCB" stroke-miterlimit="10" width="93" height="6"/>
<path fill="#4D4D4D" stroke="#CBCBCB" stroke-miterlimit="10" d="M227.5,559.5c0,0,12.213-0.958,13.152-23h66.696
	c0.94,22.042,13.151,23,13.151,23H227.5z"/>
<g>
	<polyline fill="none" stroke="#CBCBCB" stroke-width="4" stroke-miterlimit="10" points="337,473 337,477 333,477 	"/>
	
		<line fill="none" stroke="#CBCBCB" stroke-width="4" stroke-miterlimit="10" stroke-dasharray="7.8667,7.8667" x1="325.134" y1="477" x2="218.933" y2="477"/>
	<polyline fill="none" stroke="#CBCBCB" stroke-width="4" stroke-miterlimit="10" points="215,477 211,477 211,473 	"/>
	
		<line fill="none" stroke="#CBCBCB" stroke-width="4" stroke-miterlimit="10" stroke-dasharray="7.2727,7.2727" x1="211" y1="465.728" x2="211" y2="396.637"/>
	<polyline fill="none" stroke="#CBCBCB" stroke-width="4" stroke-miterlimit="10" points="211,393 211,389 215,389 	"/>
	
		<line fill="none" stroke="#CBCBCB" stroke-width="4" stroke-miterlimit="10" stroke-dasharray="7.8667,7.8667" x1="222.867" y1="389" x2="329.066" y2="389"/>
	<polyline fill="none" stroke="#CBCBCB" stroke-width="4" stroke-miterlimit="10" points="333,389 337,389 337,393 	"/>
	
		<line fill="none" stroke="#CBCBCB" stroke-width="4" stroke-miterlimit="10" stroke-dasharray="7.2727,7.2727" x1="337" y1="400.272" x2="337" y2="469.363"/>
</g>
<g>
	<path fill="#F84C60" d="M86.928,375.105H40.721c-3.712,0-6.721,3.01-6.721,6.721v104.176c0,3.711,3.009,6.721,6.721,6.721h78.972
		c3.712,0,6.722-3.01,6.722-6.721v-71.411L86.928,375.105z"/>
	<g>
		<path fill="#FFFFFF" d="M59.93,468.074c0,2.182-0.749,3.952-2.246,5.311s-3.348,2.037-5.551,2.037h-3.434v8.15h-5.615v-22.847
			h9.049c2.203,0,4.043,0.663,5.519,1.989C59.17,464.105,59.93,465.892,59.93,468.074z M54.314,468.074
			c0-0.663-0.235-1.214-0.706-1.653c-0.471-0.438-1.048-0.657-1.732-0.657h-3.177v4.62h3.177c0.685,0,1.262-0.219,1.732-0.657
			S54.314,468.737,54.314,468.074z"/>
		<path fill="#FFFFFF" d="M79.633,474.01c0,6.375-2.846,9.562-8.536,9.562h-8.471v-22.847h8.471c5.69,0,8.536,3.188,8.536,9.562
			V474.01z M74.049,470.448c0-1.476-0.192-2.567-0.577-3.272c-0.492-0.963-1.412-1.444-2.76-1.444h-2.471v12.835h2.471
			c1.348,0,2.268-0.481,2.76-1.443c0.385-0.706,0.577-1.786,0.577-3.241V470.448z"/>
		<path fill="#FFFFFF" d="M98.916,465.731h-9.915v4.011h8.471v5.006h-8.471v8.824h-5.615v-22.847h15.53V465.731z"/>
	</g>
	<path fill="#D9D9D9" d="M86.928,407.87c0,3.713,3.009,6.721,6.721,6.721h32.766l-39.486-39.485V407.87z"/>
</g>
<polygon fill="#F1F1F1" points="223.319,433.342 185.186,395.209 185.186,414.021 133.066,414.021 133.066,452.662 185.186,452.662 
	185.186,471.475 "/>
</svg>
