<?xml version="1.0" encoding="utf-8"?>
<!-- Generator: Adobe Illustrator 16.0.0, SVG Export Plug-In . SVG Version: 6.00 Build 0)  -->
<svg version="1.2" baseProfile="tiny" id="Layer_1" xmlns="http://www.w3.org/2000/svg" xmlns:xlink="http://www.w3.org/1999/xlink"
	 x="0px" y="0px" width="48px" height="40px" viewBox="0 0 48 40" xml:space="preserve">
<path fill-rule="evenodd" fill="#F1F1F1" d="M27.308,24.895c-0.793,3.342-1.573,6.564-3.272,9.107
	c-0.517,0.777-1.042,1.757-1.927,2.177c-1.316-6.489,1.426-11.955,2.515-17.411c-1.387-2.708-0.524-7.3,2.434-7.817
	c4.287-0.757,3.16,4.216,2.431,6.528c-0.398,1.266-1.117,2.479-1.007,3.87c0.236,2.93,4.074,3.118,6.036,1.611
	c2.817-2.161,3.628-6.329,3.355-9.755c-0.417-5.214-6.562-7.808-11.989-5.724c-2.796,1.077-5.337,3.547-5.704,7.175
	c-0.195,1.913,0.224,3.438,1.004,4.515c0.121,0.163,0.529,0.451,0.588,0.886c0.122,0.885-0.425,1.839-0.922,2.499
	c-2.78-0.771-4.216-3.169-4.444-6.205C15.881,9.441,21.779,4.184,28.73,3.694c7.412-0.521,13.293,3.594,13.838,9.593
	c0.404,4.46-1.239,8.95-3.856,11.364c-1.963,1.813-6.144,3.591-9.559,1.854C28.395,26.119,28.061,25.649,27.308,24.895z"/>
</svg>
