<?xml version="1.0" encoding="utf-8"?>
<!-- Generator: Adobe Illustrator 16.0.0, SVG Export Plug-In . SVG Version: 6.00 Build 0)  -->
<svg version="1.2" baseProfile="tiny" id="Layer_1" xmlns="http://www.w3.org/2000/svg" xmlns:xlink="http://www.w3.org/1999/xlink"
	 x="0px" y="0px" width="48px" height="40px" viewBox="0 0 48 40" xml:space="preserve">
<path fill="#F1F1F1" d="M46.152,18.87c-1.275,0-2.508-0.178-3.673-0.504c0-0.04,0-0.079,0-0.12c0.204,0.026,0.416,0.04,0.631,0.04
	c1.709,0,3.215-0.827,4.114-2.087c-0.806,0.324-1.688,0.502-2.613,0.502c-0.828,0-1.622-0.144-2.353-0.404
	c-0.188-0.865-0.494-1.71-0.931-2.516c-3.164-5.854-8.122-5.229-8.122-5.229s3.651-0.71,3.479-1.678
	c-0.171-0.972-3.544,0.531-3.544,0.531s1.872-1.013,1.608-1.441c-0.25-0.408-3.03,1.264-3.03,1.264s0.457-0.647,0.282-0.835
	c-0.176-0.188-2.392,1.671-4.087,4.424c-1.697,2.754-2.371,5.276-2.371,5.276s-0.873-1.068-2.848-2.398
	c-2.109-1.419-11.086-4.713-11.086-4.713s-0.344,1.116,0.924,3.076c0.797,1.236,2.559,1.955,2.559,1.955s-0.726,0-1.289,0.078
	c-0.523,0.074-1.157,0.22-1.157,0.22s-0.18,1.454,1.47,2.707c1.647,1.252,3.078,1.378,3.078,1.378s-0.896,0.064-1.575,0.296
	c-0.702,0.241-1.209,0.846-1.209,0.846s0.538,1.044,1.667,1.794c1.49,0.99,3.423,0.677,3.423,0.677s-1.731,0.444-1.618,1.804
	c0.162,1.996,3.086,1.593,3.086,1.593c-2.008,2.087-4.904,3.302-8.098,3.302c-2.888,0-5.539-0.974-7.499-2.724
	c0,0,11.074,14.647,29.726,4.164c3.816-2.146,6.475-5.84,7.191-9.667c0.336,0.064,0.686,0.101,1.041,0.101
	c1.586,0,3.004-0.684,3.957-1.757C46.91,18.852,46.533,18.87,46.152,18.87z"/>
</svg>
