<?xml version="1.0" encoding="utf-8"?>
<!-- Generator: Adobe Illustrator 16.0.0, SVG Export Plug-In . SVG Version: 6.00 Build 0)  -->
<svg version="1.2" baseProfile="tiny" id="Layer_1" xmlns="http://www.w3.org/2000/svg" xmlns:xlink="http://www.w3.org/1999/xlink"
	 x="0px" y="0px" width="768px" height="768px" viewBox="0 0 768 768" xml:space="preserve">
<path fill="#ffffff" opacity="0.3" d="M768,384C768,193.333,629.037,35.124,446.865,5.123c171.739,39.374,295.211,197.84,284.926,379.678
	C721.489,566.943,565.482,706.246,383.34,695.941c-163.384-9.24-288.343-149.182-279.1-312.566
	c8.292-146.561,133.82-258.65,280.38-250.359c131.467,7.436,232.018,120.041,224.58,251.508
	c-6.671,117.93-107.68,208.123-225.609,201.453c-105.785-5.984-186.69-96.59-180.707-202.377
	c5.367-94.893,86.643-167.467,181.536-162.1c85.12,4.814,150.221,77.723,145.405,162.842
	c-4.318,76.355-69.717,134.754-146.071,130.434c-68.493-3.873-120.876-62.537-117.003-131.031
	c3.476-61.438,56.1-108.428,117.537-104.953c55.113,3.119,97.266,50.32,94.146,105.434c-2.797,49.438-45.141,87.25-94.575,84.451
	c-44.347-2.508-78.265-40.488-75.757-84.836c2.25-39.779,36.321-70.205,76.102-67.953c35.684,2.018,62.977,32.58,60.957,68.262
	c-1.811,32.008-29.226,56.492-61.234,54.682c-28.713-1.623-50.672-26.217-49.05-54.93c1.458-25.756,23.517-45.457,49.272-43.998
	c23.104,1.305,40.774,21.094,39.468,44.197c-1.171,20.727-18.921,36.578-39.646,35.406c-18.59-1.055-32.811-16.975-31.759-35.564
	c0.942-16.676,15.225-29.432,31.9-28.49c14.959,0.848,26.402,13.658,25.556,28.617c-0.759,13.418-12.25,23.684-25.668,22.924
	c-12.037-0.68-21.245-10.988-20.563-23.025c0.609-10.797,9.854-19.057,20.653-18.447c9.686,0.547,17.096,8.842,16.547,18.527
	c-0.491,8.689-7.93,15.336-16.619,14.844c-7.793-0.441-13.755-7.113-13.314-14.906c0.396-6.992,6.38-12.342,13.371-11.947
	c6.271,0.357,11.07,5.725,10.715,11.998c-0.317,5.623-5.133,9.93-10.759,9.611c-5.047-0.285-8.909-4.605-8.622-9.65
	c0.255-4.527,4.13-7.992,8.657-7.736c4.059,0.23,7.169,3.705,6.939,7.766c-0.206,3.643-3.322,6.432-6.966,6.227
	c-3.269-0.186-5.771-2.982-5.585-6.248c0.165-2.932,2.673-5.178,5.604-5.012c2.629,0.148,4.643,2.398,4.495,5.027
	c-0.134,2.357-2.151,4.166-4.51,4.033c-2.114-0.121-3.737-1.93-3.618-4.045c0.107-1.896,1.73-3.354,3.627-3.246
	c1.703,0.096,3.011,1.551,2.913,3.254c-0.085,1.527-1.39,2.699-2.918,2.613c-1.37-0.078-2.422-1.246-2.345-2.617
	c0.069-1.229,1.119-2.174,2.348-2.104c1.103,0.062,1.95,1.002,1.887,2.105c-0.055,0.988-0.898,1.75-1.887,1.693
	c0,0-0.75,0.039-1.255-0.52c-0.438-0.484-0.484-1.469-0.125-2.062s1.292-0.848,1.292-0.848c-0.988-0.055-1.831,0.707-1.888,1.693
	c-0.062,1.105,0.784,2.045,1.888,2.105c1.229,0.072,2.279-0.873,2.348-2.104c0.077-1.369-0.973-2.539-2.344-2.617
	c-1.528-0.086-2.832,1.088-2.918,2.615c-0.099,1.701,1.209,3.156,2.912,3.252c1.897,0.107,3.52-1.348,3.627-3.246
	c0.12-2.115-1.503-3.924-3.619-4.045c-2.359-0.131-4.375,1.678-4.509,4.035c-0.147,2.627,1.867,4.877,4.495,5.025
	c2.933,0.166,5.439-2.08,5.604-5.01c0.186-3.268-2.317-6.062-5.585-6.248c-3.643-0.205-6.76,2.582-6.965,6.225
	c-0.23,4.061,2.88,7.537,6.939,7.766c4.527,0.258,8.4-3.207,8.657-7.734c0.286-5.047-3.577-9.365-8.622-9.652
	c-5.627-0.316-10.442,3.988-10.76,9.613c-0.355,6.271,4.443,11.641,10.715,11.996c6.992,0.395,12.977-4.955,13.371-11.947
	c0.441-7.793-5.521-14.465-13.313-14.906c-8.688-0.49-16.129,6.154-16.62,14.844c-0.549,9.686,6.861,17.979,16.548,18.529
	c10.797,0.609,20.044-7.65,20.653-18.449c0.681-12.035-8.526-22.344-20.564-23.023c-13.417-0.762-24.909,9.506-25.667,22.922
	c-0.847,14.959,10.597,27.771,25.554,28.619c16.677,0.941,30.959-11.814,31.902-28.49c1.052-18.592-13.169-34.514-31.759-35.564
	c-20.725-1.172-38.476,14.68-39.647,35.404c-1.306,23.104,16.365,42.893,39.469,44.199c25.757,1.457,47.815-18.244,49.271-43.998
	c1.625-28.713-20.335-53.307-49.049-54.932c-32.009-1.811-59.424,22.674-61.234,54.682c-2.019,35.684,25.275,66.246,60.957,68.264
	c39.78,2.25,73.852-28.174,76.102-67.955c2.508-44.344-31.41-82.326-75.756-84.836c-49.438-2.797-91.779,35.016-94.576,84.453
	c-3.117,55.111,39.033,102.314,94.146,105.432c61.438,3.477,114.062-43.514,117.537-104.953
	c3.874-68.492-48.51-127.156-117.003-131.031c-76.354-4.318-141.753,54.078-146.071,130.434
	c-4.815,85.119,60.285,158.027,145.404,162.842c94.895,5.367,176.172-67.205,181.537-162.1
	C571.115,278.6,490.21,187.992,384.425,182.01c-117.93-6.67-218.938,83.523-225.609,201.451
	c-7.436,131.469,93.111,244.072,224.58,251.51c146.56,8.289,272.09-103.801,280.38-250.359
	C673.019,221.227,548.06,81.285,384.675,72.043c-182.141-10.305-338.148,129-348.45,311.141
	c-10.29,181.922,113.297,340.448,285.159,379.733C341.761,766.259,362.677,768,384,768C596.078,768,768,596.077,768,384z"/>
</svg>
