<?xml version="1.0" encoding="utf-8"?>
<!-- Generator: Adobe Illustrator 16.0.0, SVG Export Plug-In . SVG Version: 6.00 Build 0)  -->
<svg version="1.2" baseProfile="tiny" id="Layer_1" xmlns="http://www.w3.org/2000/svg" xmlns:xlink="http://www.w3.org/1999/xlink"
	 x="0px" y="0px" width="450px" height="600px" viewBox="0 0 450 600" xml:space="preserve">
<g style="opacity: 0.2">
	<path fill="#4D4D4D" d="M32,0H20H8C3.582,0,0,3.582,0,8v584c0,4.418,3.582,8,8,8h12h12h418V0H32z M374.335,474.335
	c-12.888,12.887-33.781,12.887-46.67,0L76.666,223.334c-12.889-12.887-12.888-33.781,0-46.668c12.887-12.889,33.781-12.889,46.668,0
	l251.001,250.999C387.222,440.554,387.222,461.446,374.335,474.335z"/>
	<path fill="#27B5F4" d="M123.334,176.666c-12.887-12.889-33.781-12.889-46.668,0c-12.888,12.887-12.889,33.781,0,46.668
	l250.999,251.001c12.889,12.887,33.782,12.887,46.67,0c12.887-12.889,12.887-33.781,0-46.67L123.334,176.666z"/>
</g>
</svg>
