<?xml version="1.0" encoding="utf-8"?>
<!-- Generator: Adobe Illustrator 16.0.0, SVG Export Plug-In . SVG Version: 6.00 Build 0)  -->
<svg version="1.2" baseProfile="tiny" id="Layer_1" xmlns="http://www.w3.org/2000/svg" xmlns:xlink="http://www.w3.org/1999/xlink"
	 x="0px" y="0px" width="450px" height="600px" viewBox="0 0 450 600" xml:space="preserve">
<g>
	<rect fill="#FFFFFF" width="25" height="25"/>
	<rect x="25" y="25" fill="#FFFFFF" width="25" height="25"/>
	<rect x="50" fill="#FFFFFF" width="25" height="25"/>
	<rect x="75" y="25" fill="#FFFFFF" width="25" height="25"/>
	<rect x="100" fill="#FFFFFF" width="25" height="25"/>
	<rect x="125" y="25" fill="#FFFFFF" width="25" height="25"/>
	<rect x="150" fill="#FFFFFF" width="25" height="25"/>
	<rect x="175" y="25" fill="#FFFFFF" width="25" height="25"/>
	<rect x="200" fill="#FFFFFF" width="25" height="25"/>
	<rect x="225" y="25" fill="#FFFFFF" width="25" height="25"/>
	<rect x="250" fill="#FFFFFF" width="25" height="25"/>
	<rect x="275" y="25" fill="#FFFFFF" width="25" height="25"/>
	<rect x="300" fill="#FFFFFF" width="25" height="25"/>
	<rect x="325" y="25" fill="#FFFFFF" width="25" height="25"/>
	<rect x="350" fill="#FFFFFF" width="25" height="25"/>
	<rect x="375" y="25" fill="#FFFFFF" width="25" height="25"/>
	<rect x="400" fill="#FFFFFF" width="25" height="25"/>
	<rect x="425" y="25" fill="#FFFFFF" width="25" height="25"/>
	<rect y="50" fill="#FFFFFF" width="25" height="25"/>
	<rect x="25" y="75" fill="#FFFFFF" width="25" height="25"/>
	<rect x="50" y="50" fill="#FFFFFF" width="25" height="25"/>
	<rect x="75" y="75" fill="#FFFFFF" width="25" height="25"/>
	<rect x="100" y="50" fill="#FFFFFF" width="25" height="25"/>
	<rect x="125" y="75" fill="#FFFFFF" width="25" height="25"/>
	<rect x="150" y="50" fill="#FFFFFF" width="25" height="25"/>
	<rect x="175" y="75" fill="#FFFFFF" width="25" height="25"/>
	<rect x="200" y="50" fill="#FFFFFF" width="25" height="25"/>
	<rect x="225" y="75" fill="#FFFFFF" width="25" height="25"/>
	<rect x="250" y="50" fill="#FFFFFF" width="25" height="25"/>
	<rect x="275" y="75" fill="#FFFFFF" width="25" height="25"/>
	<rect x="300" y="50" fill="#FFFFFF" width="25" height="25"/>
	<rect x="325" y="75" fill="#FFFFFF" width="25" height="25"/>
	<rect x="350" y="50" fill="#FFFFFF" width="25" height="25"/>
	<rect x="375" y="75" fill="#FFFFFF" width="25" height="25"/>
	<rect x="400" y="50" fill="#FFFFFF" width="25" height="25"/>
	<rect x="425" y="75" fill="#FFFFFF" width="25" height="25"/>
	<rect y="100" fill="#FFFFFF" width="25" height="25"/>
	<rect x="25" y="125" fill="#FFFFFF" width="25" height="25"/>
	<rect x="50" y="100" fill="#FFFFFF" width="25" height="25"/>
	<rect x="75" y="125" fill="#FFFFFF" width="25" height="25"/>
	<rect x="100" y="100" fill="#FFFFFF" width="25" height="25"/>
	<rect x="125" y="125" fill="#FFFFFF" width="25" height="25"/>
	<rect x="150" y="100" fill="#FFFFFF" width="25" height="25"/>
	<rect x="175" y="125" fill="#FFFFFF" width="25" height="25"/>
	<rect x="200" y="100" fill="#FFFFFF" width="25" height="25"/>
	<rect x="225" y="125" fill="#FFFFFF" width="25" height="25"/>
	<rect x="250" y="100" fill="#FFFFFF" width="25" height="25"/>
	<rect x="275" y="125" fill="#FFFFFF" width="25" height="25"/>
	<rect x="300" y="100" fill="#FFFFFF" width="25" height="25"/>
	<rect x="325" y="125" fill="#FFFFFF" width="25" height="25"/>
	<rect x="350" y="100" fill="#FFFFFF" width="25" height="25"/>
	<rect x="375" y="125" fill="#FFFFFF" width="25" height="25"/>
	<rect x="400" y="100" fill="#FFFFFF" width="25" height="25"/>
	<rect x="425" y="125" fill="#FFFFFF" width="25" height="25"/>
	<rect y="150" fill="#FFFFFF" width="25" height="25"/>
	<rect x="25" y="175" fill="#FFFFFF" width="25" height="25"/>
	<rect x="50" y="150" fill="#FFFFFF" width="25" height="25"/>
	<rect x="75" y="175" fill="#FFFFFF" width="25" height="25"/>
	<rect x="100" y="150" fill="#FFFFFF" width="25" height="25"/>
	<rect x="125" y="175" fill="#FFFFFF" width="25" height="25"/>
	<rect x="150" y="150" fill="#FFFFFF" width="25" height="25"/>
	<rect x="175" y="175" fill="#FFFFFF" width="25" height="25"/>
	<rect x="200" y="150" fill="#FFFFFF" width="25" height="25"/>
	<rect x="225" y="175" fill="#FFFFFF" width="25" height="25"/>
	<rect x="250" y="150" fill="#FFFFFF" width="25" height="25"/>
	<rect x="275" y="175" fill="#FFFFFF" width="25" height="25"/>
	<rect x="300" y="150" fill="#FFFFFF" width="25" height="25"/>
	<rect x="325" y="175" fill="#FFFFFF" width="25" height="25"/>
	<rect x="350" y="150" fill="#FFFFFF" width="25" height="25"/>
	<rect x="375" y="175" fill="#FFFFFF" width="25" height="25"/>
	<rect x="400" y="150" fill="#FFFFFF" width="25" height="25"/>
	<rect x="425" y="175" fill="#FFFFFF" width="25" height="25"/>
	<rect y="200" fill="#FFFFFF" width="25" height="25"/>
	<rect x="25" y="225" fill="#FFFFFF" width="25" height="25"/>
	<rect x="50" y="200" fill="#FFFFFF" width="25" height="25"/>
	<rect x="75" y="225" fill="#FFFFFF" width="25" height="25"/>
	<rect x="100" y="200" fill="#FFFFFF" width="25" height="25"/>
	<rect x="125" y="225" fill="#FFFFFF" width="25" height="25"/>
	<rect x="150" y="200" fill="#FFFFFF" width="25" height="25"/>
	<rect x="175" y="225" fill="#FFFFFF" width="25" height="25"/>
	<rect x="200" y="200" fill="#FFFFFF" width="25" height="25"/>
	<rect x="225" y="225" fill="#FFFFFF" width="25" height="25"/>
	<rect x="250" y="200" fill="#FFFFFF" width="25" height="25"/>
	<rect x="275" y="225" fill="#FFFFFF" width="25" height="25"/>
	<rect x="300" y="200" fill="#FFFFFF" width="25" height="25"/>
	<rect x="325" y="225" fill="#FFFFFF" width="25" height="25"/>
	<rect x="350" y="200" fill="#FFFFFF" width="25" height="25"/>
	<rect x="375" y="225" fill="#FFFFFF" width="25" height="25"/>
	<rect x="400" y="200" fill="#FFFFFF" width="25" height="25"/>
	<rect x="425" y="225" fill="#FFFFFF" width="25" height="25"/>
	<rect y="250" fill="#FFFFFF" width="25" height="25"/>
	<rect x="25" y="275" fill="#FFFFFF" width="25" height="25"/>
	<rect x="50" y="250" fill="#FFFFFF" width="25" height="25"/>
	<rect x="75" y="275" fill="#FFFFFF" width="25" height="25"/>
	<rect x="100" y="250" fill="#FFFFFF" width="25" height="25"/>
	<rect x="125" y="275" fill="#FFFFFF" width="25" height="25"/>
	<rect x="150" y="250" fill="#FFFFFF" width="25" height="25"/>
	<rect x="175" y="275" fill="#FFFFFF" width="25" height="25"/>
	<rect x="200" y="250" fill="#FFFFFF" width="25" height="25"/>
	<rect x="225" y="275" fill="#FFFFFF" width="25" height="25"/>
	<rect x="250" y="250" fill="#FFFFFF" width="25" height="25"/>
	<rect x="275" y="275" fill="#FFFFFF" width="25" height="25"/>
	<rect x="300" y="250" fill="#FFFFFF" width="25" height="25"/>
	<rect x="325" y="275" fill="#FFFFFF" width="25" height="25"/>
	<rect x="350" y="250" fill="#FFFFFF" width="25" height="25"/>
	<rect x="375" y="275" fill="#FFFFFF" width="25" height="25"/>
	<rect x="400" y="250" fill="#FFFFFF" width="25" height="25"/>
	<rect x="425" y="275" fill="#FFFFFF" width="25" height="25"/>
	<rect y="300" fill="#FFFFFF" width="25" height="25"/>
	<rect x="25" y="325" fill="#FFFFFF" width="25" height="25"/>
	<rect x="50" y="300" fill="#FFFFFF" width="25" height="25"/>
	<rect x="75" y="325" fill="#FFFFFF" width="25" height="25"/>
	<rect x="100" y="300" fill="#FFFFFF" width="25" height="25"/>
	<rect x="125" y="325" fill="#FFFFFF" width="25" height="25"/>
	<rect x="150" y="300" fill="#FFFFFF" width="25" height="25"/>
	<rect x="175" y="325" fill="#FFFFFF" width="25" height="25"/>
	<rect x="200" y="300" fill="#FFFFFF" width="25" height="25"/>
	<rect x="225" y="325" fill="#FFFFFF" width="25" height="25"/>
	<rect x="250" y="300" fill="#FFFFFF" width="25" height="25"/>
	<rect x="275" y="325" fill="#FFFFFF" width="25" height="25"/>
	<rect x="300" y="300" fill="#FFFFFF" width="25" height="25"/>
	<rect x="325" y="325" fill="#FFFFFF" width="25" height="25"/>
	<rect x="350" y="300" fill="#FFFFFF" width="25" height="25"/>
	<rect x="375" y="325" fill="#FFFFFF" width="25" height="25"/>
	<rect x="400" y="300" fill="#FFFFFF" width="25" height="25"/>
	<rect x="425" y="325" fill="#FFFFFF" width="25" height="25"/>
	<rect y="350" fill="#FFFFFF" width="25" height="25"/>
	<rect x="25" y="375" fill="#FFFFFF" width="25" height="25"/>
	<rect x="50" y="350" fill="#FFFFFF" width="25" height="25"/>
	<rect x="75" y="375" fill="#FFFFFF" width="25" height="25"/>
	<rect x="100" y="350" fill="#FFFFFF" width="25" height="25"/>
	<rect x="125" y="375" fill="#FFFFFF" width="25" height="25"/>
	<rect x="150" y="350" fill="#FFFFFF" width="25" height="25"/>
	<rect x="175" y="375" fill="#FFFFFF" width="25" height="25"/>
	<rect x="200" y="350" fill="#FFFFFF" width="25" height="25"/>
	<rect x="225" y="375" fill="#FFFFFF" width="25" height="25"/>
	<rect x="250" y="350" fill="#FFFFFF" width="25" height="25"/>
	<rect x="275" y="375" fill="#FFFFFF" width="25" height="25"/>
	<rect x="300" y="350" fill="#FFFFFF" width="25" height="25"/>
	<rect x="325" y="375" fill="#FFFFFF" width="25" height="25"/>
	<rect x="350" y="350" fill="#FFFFFF" width="25" height="25"/>
	<rect x="375" y="375" fill="#FFFFFF" width="25" height="25"/>
	<rect x="400" y="350" fill="#FFFFFF" width="25" height="25"/>
	<rect x="425" y="375" fill="#FFFFFF" width="25" height="25"/>
	<rect y="400" fill="#FFFFFF" width="25" height="25"/>
	<rect x="25" y="425" fill="#FFFFFF" width="25" height="25"/>
	<rect x="50" y="400" fill="#FFFFFF" width="25" height="25"/>
	<rect x="75" y="425" fill="#FFFFFF" width="25" height="25"/>
	<rect x="100" y="400" fill="#FFFFFF" width="25" height="25"/>
	<rect x="125" y="425" fill="#FFFFFF" width="25" height="25"/>
	<rect x="150" y="400" fill="#FFFFFF" width="25" height="25"/>
	<rect x="175" y="425" fill="#FFFFFF" width="25" height="25"/>
	<rect x="200" y="400" fill="#FFFFFF" width="25" height="25"/>
	<rect x="225" y="425" fill="#FFFFFF" width="25" height="25"/>
	<rect x="250" y="400" fill="#FFFFFF" width="25" height="25"/>
	<rect x="275" y="425" fill="#FFFFFF" width="25" height="25"/>
	<rect x="300" y="400" fill="#FFFFFF" width="25" height="25"/>
	<rect x="325" y="425" fill="#FFFFFF" width="25" height="25"/>
	<rect x="350" y="400" fill="#FFFFFF" width="25" height="25"/>
	<rect x="375" y="425" fill="#FFFFFF" width="25" height="25"/>
	<rect x="400" y="400" fill="#FFFFFF" width="25" height="25"/>
	<rect x="425" y="425" fill="#FFFFFF" width="25" height="25"/>
	<rect y="450" fill="#FFFFFF" width="25" height="25"/>
	<rect x="25" y="475" fill="#FFFFFF" width="25" height="25"/>
	<rect x="50" y="450" fill="#FFFFFF" width="25" height="25"/>
	<rect x="75" y="475" fill="#FFFFFF" width="25" height="25"/>
	<rect x="100" y="450" fill="#FFFFFF" width="25" height="25"/>
	<rect x="125" y="475" fill="#FFFFFF" width="25" height="25"/>
	<rect x="150" y="450" fill="#FFFFFF" width="25" height="25"/>
	<rect x="175" y="475" fill="#FFFFFF" width="25" height="25"/>
	<rect x="200" y="450" fill="#FFFFFF" width="25" height="25"/>
	<rect x="225" y="475" fill="#FFFFFF" width="25" height="25"/>
	<rect x="250" y="450" fill="#FFFFFF" width="25" height="25"/>
	<rect x="275" y="475" fill="#FFFFFF" width="25" height="25"/>
	<rect x="300" y="450" fill="#FFFFFF" width="25" height="25"/>
	<rect x="325" y="475" fill="#FFFFFF" width="25" height="25"/>
	<rect x="350" y="450" fill="#FFFFFF" width="25" height="25"/>
	<rect x="375" y="475" fill="#FFFFFF" width="25" height="25"/>
	<rect x="400" y="450" fill="#FFFFFF" width="25" height="25"/>
	<rect x="425" y="475" fill="#FFFFFF" width="25" height="25"/>
	<rect y="500" fill="#FFFFFF" width="25" height="25"/>
	<rect x="25" y="525" fill="#FFFFFF" width="25" height="25"/>
	<rect x="50" y="500" fill="#FFFFFF" width="25" height="25"/>
	<rect x="75" y="525" fill="#FFFFFF" width="25" height="25"/>
	<rect x="100" y="500" fill="#FFFFFF" width="25" height="25"/>
	<rect x="125" y="525" fill="#FFFFFF" width="25" height="25"/>
	<rect x="150" y="500" fill="#FFFFFF" width="25" height="25"/>
	<rect x="175" y="525" fill="#FFFFFF" width="25" height="25"/>
	<rect x="200" y="500" fill="#FFFFFF" width="25" height="25"/>
	<rect x="225" y="525" fill="#FFFFFF" width="25" height="25"/>
	<rect x="250" y="500" fill="#FFFFFF" width="25" height="25"/>
	<rect x="275" y="525" fill="#FFFFFF" width="25" height="25"/>
	<rect x="300" y="500" fill="#FFFFFF" width="25" height="25"/>
	<rect x="325" y="525" fill="#FFFFFF" width="25" height="25"/>
	<rect x="350" y="500" fill="#FFFFFF" width="25" height="25"/>
	<rect x="375" y="525" fill="#FFFFFF" width="25" height="25"/>
	<rect x="400" y="500" fill="#FFFFFF" width="25" height="25"/>
	<rect x="425" y="525" fill="#FFFFFF" width="25" height="25"/>
	<rect y="550" fill="#FFFFFF" width="25" height="25"/>
	<rect x="25" y="575" fill="#FFFFFF" width="25" height="25"/>
	<rect x="50" y="550" fill="#FFFFFF" width="25" height="25"/>
	<rect x="75" y="575" fill="#FFFFFF" width="25" height="25"/>
	<rect x="100" y="550" fill="#FFFFFF" width="25" height="25"/>
	<rect x="125" y="575" fill="#FFFFFF" width="25" height="25"/>
	<rect x="150" y="550" fill="#FFFFFF" width="25" height="25"/>
	<rect x="175" y="575" fill="#FFFFFF" width="25" height="25"/>
	<rect x="200" y="550" fill="#FFFFFF" width="25" height="25"/>
	<rect x="225" y="575" fill="#FFFFFF" width="25" height="25"/>
	<rect x="250" y="550" fill="#FFFFFF" width="25" height="25"/>
	<rect x="275" y="575" fill="#FFFFFF" width="25" height="25"/>
	<rect x="300" y="550" fill="#FFFFFF" width="25" height="25"/>
	<rect x="325" y="575" fill="#FFFFFF" width="25" height="25"/>
	<rect x="350" y="550" fill="#FFFFFF" width="25" height="25"/>
	<rect x="375" y="575" fill="#FFFFFF" width="25" height="25"/>
	<rect x="400" y="550" fill="#FFFFFF" width="25" height="25"/>
	<rect x="425" y="575" fill="#FFFFFF" width="25" height="25"/>
</g>
</svg>
