<?xml version="1.0" encoding="utf-8"?>
<!-- Generator: Adobe Illustrator 16.0.0, SVG Export Plug-In . SVG Version: 6.00 Build 0)  -->
<svg version="1.2" baseProfile="tiny" id="Layer_1" xmlns="http://www.w3.org/2000/svg" xmlns:xlink="http://www.w3.org/1999/xlink"
	 x="0px" y="0px" width="450px" height="600px" viewBox="0 0 450 600" xml:space="preserve">
<g>
	<path fill="#4D4D4D" d="M67.344,58.169c0,4.481-1.527,8.117-4.581,10.907c-3.054,2.791-6.865,4.185-11.434,4.185h-7.052V90H32.745
		V43.077H51.33c4.569,0,8.347,1.362,11.335,4.086C65.784,50.02,67.344,53.688,67.344,58.169z M55.811,58.169
		c0-1.406-0.484-2.548-1.45-3.427c-0.967-0.878-2.153-1.318-3.559-1.318h-6.524v9.49h6.524c1.406,0,2.592-0.438,3.559-1.318
		C55.327,60.717,55.811,59.575,55.811,58.169z"/>
	<path fill="#4D4D4D" d="M107.215,90h-12.06l-2.175-6.986H78.547L76.241,90h-12.06L81.25,43.077h8.897L107.215,90z M89.949,73.393
		l-3.954-12.522l-4.218,12.522H89.949z"/>
	<path fill="#4D4D4D" d="M143.594,69.307c0,3.515-0.242,6.305-0.725,8.37c-0.703,2.944-2,5.382-3.888,7.315
		c-3.516,3.603-7.953,5.404-13.312,5.404c-5.229,0-9.579-1.757-13.049-5.272c-2.197-2.241-3.625-5.14-4.284-8.699
		c-0.308-1.845-0.461-5.14-0.461-9.885s0.153-8.04,0.461-9.886c0.659-3.559,2.086-6.458,4.284-8.699
		c3.47-3.514,7.82-5.272,13.049-5.272c3.207,0,5.876,0.418,8.007,1.252c2.13,0.835,4.294,2.351,6.492,4.547l-7.843,7.843
		c-2.241-2.241-4.459-3.361-6.656-3.361c-3.076,0-5.008,1.67-5.799,5.009c-0.308,1.275-0.461,4.13-0.461,8.567
		c0,4.525,0.153,7.404,0.461,8.633c0.791,3.295,2.724,4.943,5.799,4.943c4.306,0,6.458-2.504,6.458-7.513h-6.458v-9.622h17.926
		V69.307z"/>
	<path fill="#4D4D4D" d="M182.147,90H150.25V43.077h31.897v10.281h-20.364V61.2h17.398v10.281h-17.398v8.238h20.364V90z"/>
	<path fill="#4D4D4D" d="M221.029,53.358h-20.364v8.238h17.398v10.281h-17.398V90h-11.533V43.077h31.897V53.358z"/>
	<path fill="#4D4D4D" d="M256.154,90h-31.238V43.077h11.533v36.642h19.705V90z"/>
	<path fill="#4D4D4D" d="M272.629,90h-11.533V43.077h11.533V90z"/>
	<path fill="#4D4D4D" d="M315.729,58.169c0,4.481-1.527,8.117-4.581,10.907c-3.054,2.791-6.865,4.185-11.434,4.185h-7.052V90
		h-11.532V43.077h18.584c4.568,0,8.348,1.362,11.336,4.086C314.17,50.02,315.729,53.688,315.729,58.169z M304.196,58.169
		c0-1.406-0.483-2.548-1.45-3.427c-0.967-0.878-2.152-1.318-3.559-1.318h-6.524v9.49h6.524c1.406,0,2.592-0.438,3.559-1.318
		C303.713,60.717,304.196,59.575,304.196,58.169z"/>
	<path fill="#4D4D4D" d="M346.176,74.645c0,5.888-1.209,10.04-3.625,12.456c-2.24,2.241-5.25,3.361-9.028,3.361
		c-7.558,0-11.622-3.602-12.192-10.808h3.361c0.702,5.229,3.646,7.842,8.831,7.842c2.724,0,4.877-0.791,6.458-2.373
		c1.889-1.888,2.834-5.381,2.834-10.479c0-8.347-2.922-12.521-8.765-12.521c-4.657,0-7.491,1.647-8.501,4.943h-2.967V43.077h22.539
		v2.965h-19.572V62.65c2.02-2.329,4.985-3.493,8.896-3.493c3.383,0,6.019,0.945,7.908,2.834
		C344.9,64.54,346.176,68.757,346.176,74.645z"/>
	<path fill="#4D4D4D" d="M45.751,106.598V136h-6.95v-29.402H29.5v-6.2h25.552v6.2H45.751z"/>
	<path fill="#4D4D4D" d="M80.101,136l-6.95-14.201h-5V136H61.2v-35.602h13.951c7.25,0,11.551,4.95,11.551,10.9
		c0,5-3.05,8.101-6.5,9.351L88.152,136H80.101z M74.701,106.598h-6.55v9.401h6.55c3.05,0,5.05-1.95,5.05-4.701
		C79.751,108.548,77.751,106.598,74.701,106.598z"/>
	<path fill="#4D4D4D" d="M114.651,136l-2.1-6.3H99.9l-2.15,6.3H90.5l12.951-35.602h5.451l13,35.602H114.651z M106.351,110.898
		l-4.5,12.951h8.851L106.351,110.898z"/>
	<path fill="#4D4D4D" d="M147.851,136l-14.101-21.852V136h-6.95v-35.602h6.2l14.101,21.801v-21.801h6.95V136H147.851z"/>
	<path fill="#4D4D4D" d="M172.649,136.3c-5.4,0-9.5-1.15-13-4.7l4.5-4.5c2.25,2.25,5.3,3,8.601,3c4.1,0,6.3-1.55,6.3-4.4
		c0-1.25-0.35-2.3-1.1-3c-0.7-0.65-1.5-1-3.15-1.25l-4.3-0.6c-3.05-0.45-5.3-1.4-6.9-2.95c-1.7-1.7-2.55-4-2.55-7
		c0-6.351,4.7-10.801,12.401-10.801c4.9,0,8.451,1.2,11.5,4.15l-4.4,4.35c-2.25-2.15-4.951-2.45-7.301-2.45c-3.7,0-5.5,2.05-5.5,4.5
		c0,0.9,0.3,1.85,1.05,2.55c0.7,0.65,1.85,1.2,3.3,1.4l4.2,0.6c3.25,0.45,5.3,1.35,6.8,2.75c1.9,1.8,2.75,4.4,2.75,7.551
		C185.851,132.4,180.1,136.3,172.649,136.3z"/>
	<path fill="#4D4D4D" d="M206.699,122.599h-6.851V136h-6.95v-35.602h13.801c7.351,0,11.75,5.05,11.75,11.101
		S214.05,122.599,206.699,122.599z M206.349,106.598h-6.5v9.75h6.5c3.15,0,5.15-1.95,5.15-4.85
		C211.5,108.598,209.5,106.598,206.349,106.598z"/>
	<path fill="#4D4D4D" d="M242.547,136l-2.101-6.3h-12.651l-2.149,6.3h-7.25l12.951-35.602h5.451l13,35.602H242.547z
		 M234.246,110.898l-4.5,12.951h8.85L234.246,110.898z"/>
	<path fill="#4D4D4D" d="M273.596,136l-6.95-14.201h-5.001V136h-6.949v-35.602h13.95c7.251,0,11.551,4.95,11.551,10.9
		c0,5-3.05,8.101-6.501,9.351L281.646,136H273.596z M268.195,106.598h-6.551v9.401h6.551c3.051,0,5.051-1.95,5.051-4.701
		C273.246,108.548,271.246,106.598,268.195,106.598z"/>
	<path fill="#4D4D4D" d="M287.895,136v-35.602h23.451v6.2h-16.501v8.351h14.051v6.2h-14.051v8.651h16.501v6.2H287.895z"/>
	<path fill="#4D4D4D" d="M339.695,136l-14.102-21.852V136h-6.949v-35.602h6.199l14.102,21.801v-21.801h6.95V136H339.695z"/>
	<path fill="#4D4D4D" d="M366.595,136.3c-3.899,0-7.101-1.4-9.601-3.9c-3.6-3.6-3.5-8.051-3.5-14.201s-0.1-10.601,3.5-14.201
		c2.5-2.5,5.701-3.9,9.601-3.9c6.65,0,11.851,3.8,13.101,11.251h-7.05c-0.7-2.85-2.501-5.05-6.001-5.05c-1.9,0-3.449,0.7-4.449,1.85
		c-1.351,1.5-1.751,3.2-1.751,10.05c0,6.851,0.4,8.551,1.751,10.051c1,1.15,2.549,1.85,4.449,1.85c3.5,0,5.301-2.2,6.001-5.05h7.05
		C378.445,132.5,373.195,136.3,366.595,136.3z"/>
	<path fill="#4D4D4D" d="M399.294,121.399V136h-6.9v-14.601l-10.7-21.001h7.551l6.65,14.351l6.55-14.351h7.55L399.294,121.399z"/>
</g>
<g>
	<g>
		<path fill="#4D4D4D" d="M55.575,182h3.3v21.649c0,4.934-0.417,8.301-1.25,10.101c-1.334,2.899-4.167,4.35-8.5,4.35
			c-3.567,0-6.2-0.883-7.9-2.649c-1.566-1.667-2.449-4.283-2.649-7.851l3.399-0.8c0,0.667,0,1.184,0,1.55
			c0,4.534,2.442,6.8,7.327,6.8c2.542,0,4.282-0.832,5.22-2.5c0.602-1.166,0.937-3.149,1.004-5.949c0.032-1.767,0.05-3.667,0.05-5.7
			V182z"/>
	</g>
	<g>
		<path fill="#4D4D4D" d="M113.375,214.2v3.1h-22.9v-35.35h3.4v32.25H113.375z"/>
	</g>
	<g>
		<path fill="#4D4D4D" d="M164.3,198.8v18.5H161.4v-5.9c-1.634,4.534-5.2,6.801-10.7,6.801c-4.9,0-8.7-1.867-11.4-5.601
			c-2.399-3.333-3.6-7.55-3.6-12.649c0-5.367,1.267-9.75,3.8-13.15c2.833-3.8,6.833-5.7,12-5.7c6.267,0,10.616,2.983,13.05,8.95
			l-3.149,1.7c-0.534-2.433-1.65-4.342-3.351-5.726c-1.699-1.383-3.8-2.074-6.3-2.074c-4.134,0-7.317,1.667-9.55,5
			c-1.967,2.867-2.95,6.467-2.95,10.8c0,4.267,0.851,7.783,2.55,10.55c2.066,3.3,5.101,4.95,9.101,4.95c3.5,0,6.2-1.316,8.1-3.95
			c1.667-2.3,2.467-5.267,2.4-8.9v-0.5h-13v-3.1H164.3z"/>
	</g>
	<g>
		<path fill="#4D4D4D" d="M216.3,215.85l-2.1,2.3L209.75,214c-2.733,2.767-6.2,4.149-10.4,4.149c-5,0-8.867-1.847-11.6-5.542
			c-2.468-3.295-3.7-7.507-3.7-12.634c0-5.226,1.25-9.569,3.75-13.031c2.833-3.895,6.767-5.843,11.8-5.843
			c4.866,0,8.65,1.867,11.351,5.601c2.399,3.3,3.6,7.483,3.6,12.55c0,4.767-1,8.85-3,12.25L216.3,215.85z M211.149,199.774
			c0-4.259-0.867-7.804-2.6-10.633c-2.067-3.428-5.084-5.142-9.05-5.142c-4,0-7.084,1.73-9.25,5.191
			c-1.8,2.896-2.7,6.474-2.7,10.732c0,4.194,0.883,7.688,2.65,10.483c2.1,3.296,5.133,4.942,9.1,4.942c4.033,0,7.1-1.664,9.2-4.992
			C210.267,207.596,211.149,204.068,211.149,199.774z"/>
	</g>
	<g>
		<path fill="#4D4D4D" d="M271.125,182l-10.1,35.3h-2.7l-8.45-28.55l-8.4,28.55h-2.649l-10.45-35.3h3.6l8.301,29.3l8.399-29.3h2.3
			l8.7,29.3l8.05-29.3H271.125z"/>
	</g>
	<g>
		<path fill="#4D4D4D" d="M295.817,217.3h-9.167V182h9.417c4.574,0,7.764,0.35,9.567,1.05c2.938,1.167,5.209,3.45,6.812,6.85
			c1.369,2.934,2.055,6.15,2.055,9.65c0,3-0.484,5.783-1.453,8.35c-1.102,2.934-2.722,5.218-4.859,6.851
			c-1.603,1.233-3.572,2.017-5.91,2.35C301.21,217.233,299.056,217.3,295.817,217.3z M290.051,185.1v29.2h6.5
			c3.833,0,6.532-0.35,8.1-1.05c2.167-0.967,3.833-2.9,5-5.8c0.967-2.434,1.45-5.017,1.45-7.75c0-2.867-0.5-5.5-1.5-7.9
			c-1.2-2.9-2.934-4.85-5.2-5.85c-1.267-0.566-3.649-0.851-7.149-0.851H290.051z"/>
	</g>
	<g>
		<path fill="#4D4D4D" d="M365.801,182v35.3h-3.25l0.25-29.95l-11.55,29.95h-2.3l-11.75-29.95l0.399,29.95h-3.25V182h3.95
			l11.95,29.95L361.65,182H365.801z"/>
	</g>
	<g>
		<path fill="#4D4D4D" d="M412.45,188.85l-3.1,1.7c-1.468-4.467-4.518-6.7-9.15-6.7c-2.267,0-4.149,0.468-5.649,1.4
			c-1.768,1.134-2.65,2.767-2.65,4.899c0,2.734,1.833,4.734,5.5,6c3.4,1.067,6.816,2.134,10.25,3.2c3.666,1.733,5.5,4.5,5.5,8.3
			c0,3.334-1.417,5.984-4.25,7.95c-2.5,1.733-5.483,2.601-8.95,2.601s-6.317-0.784-8.55-2.351c-2.434-1.666-3.95-4.149-4.55-7.45
			l3.35-1.75c0.101,2.9,1.033,5.084,2.8,6.551c1.667,1.399,3.983,2.1,6.95,2.1c2.633,0,4.851-0.583,6.65-1.75
			c2.1-1.366,3.149-3.283,3.149-5.75c0-2.967-1.816-5.116-5.449-6.45c-3.4-1.032-6.801-2.05-10.2-3.05c-3.634-1.633-5.45-4.3-5.45-8
			c0-3.133,1.217-5.5,3.65-7.1c2.066-1.4,4.732-2.101,8-2.101C406.301,181.1,410.351,183.684,412.45,188.85z"/>
	</g>
	<g>
		<path fill="#4D4D4D" d="M121.125,232l-10.1,35.3h-2.7l-8.45-28.55l-8.4,28.55h-2.649L78.375,232h3.6l8.301,29.3l8.399-29.3h2.3
			l8.7,29.3l8.05-29.3H121.125z"/>
	</g>
	<g>
		<path fill="#4D4D4D" d="M151.801,232v35.3h-3.4V232H151.801z"/>
	</g>
	<g>
		<path fill="#4D4D4D" d="M201.2,234.95v32.35h-3.4v-32.35h-11.1V232h25.6v2.95H201.2z"/>
	</g>
	<g>
		<path fill="#4D4D4D" d="M264.301,232v35.3h-3.4v-16.55h-21.7v16.55h-3.3V232h3.3v15.8h21.7V232H264.301z"/>
	</g>
	<g>
		<path fill="#4D4D4D" d="M314.976,249.399c0,5.2-1.184,9.518-3.551,12.95c-2.699,3.9-6.55,5.851-11.55,5.851
			c-4.967,0-8.833-1.917-11.6-5.75c-2.468-3.4-3.7-7.684-3.7-12.851c0-5.2,1.217-9.482,3.65-12.85
			c2.766-3.767,6.649-5.65,11.649-5.65c5.033,0,8.883,1.851,11.55,5.55C313.792,239.95,314.976,244.2,314.976,249.399z
			 M311.375,249.45c0-4.167-0.85-7.65-2.55-10.45c-2.067-3.333-5.05-5-8.95-5c-3.967,0-7,1.684-9.1,5.05
			c-1.768,2.834-2.65,6.367-2.65,10.6c0,4.2,0.866,7.7,2.601,10.5c2.066,3.367,5.066,5.051,9,5.051c3.966,0,6.982-1.717,9.05-5.15
			C310.508,257.217,311.375,253.684,311.375,249.45z"/>
	</g>
	<g>
		<path fill="#4D4D4D" d="M337.2,232h3.3v21c0,2.2,0.05,3.717,0.15,4.55c0.232,1.7,0.75,3.1,1.55,4.2
			c1.633,2.233,4.366,3.35,8.2,3.35c3.666,0,6.267-0.982,7.8-2.95c1.333-1.732,2-4.482,2-8.25V232h3.4v18
			c0,4.033-0.067,6.567-0.2,7.6c-0.368,2.968-1.304,5.25-2.806,6.851c-2.372,2.5-5.729,3.75-10.069,3.75
			c-2.939,0-5.477-0.584-7.614-1.75c-2.404-1.333-4.041-3.301-4.909-5.9c-0.435-1.3-0.702-2.9-0.802-4.8c0-0.267,0-1.883,0-4.851
			V232z"/>
	</g>
	<g>
		<path fill="#4D4D4D" d="M401.2,234.95v32.35h-3.4v-32.35h-11.1V232h25.6v2.95H401.2z"/>
	</g>
	<g>
		<path fill="#4D4D4D" d="M41.55,251.399v15.9h-3.15V232h13.5c4.233,0,7.017,0.317,8.351,0.95c3.166,1.5,4.75,4.399,4.75,8.699
			c0,5.034-2.25,8.117-6.75,9.25c-1.334,0.334-4.284,0.5-8.851,0.5H41.55z M41.55,234.8v13.65h9.149c3.7,0,6.2-0.25,7.5-0.75
			c2.367-0.934,3.551-2.967,3.551-6.101c0-2.566-0.851-4.45-2.551-5.649c-0.867-0.633-2.167-1-3.899-1.101
			c-0.3-0.032-1.7-0.05-4.2-0.05H41.55z"/>
	</g>
	<g>
		<path fill="#4D4D4D" d="M64.125,314.2v3.1h-24.3V282h23.05v3.1H43.226v12.55h17.8v3.101h-17.8v13.45H64.125z"/>
	</g>
	<g>
		<path fill="#4D4D4D" d="M113.375,314.3v3h-25.95v-2.197l21.8-30.003h-20.5V282h24.95v2.35l-21.5,29.95H113.375z"/>
	</g>
	<g>
		<path fill="#4D4D4D" d="M143.625,299.8v17.5h-3.25V282h23.101v2.95h-19.851v11.949h17.8v2.9H143.625z"/>
	</g>
	<g>
		<path fill="#4D4D4D" d="M215.801,282v35.3h-3.25l0.25-29.95l-11.55,29.95h-2.3l-11.75-29.95l0.399,29.95h-3.25V282h3.95
			l11.95,29.95L211.65,282H215.801z"/>
	</g>
	<g>
		<path fill="#4D4D4D" d="M264.976,299.399c0,5.2-1.184,9.518-3.551,12.95c-2.699,3.9-6.55,5.851-11.55,5.851
			c-4.967,0-8.833-1.917-11.6-5.75c-2.468-3.4-3.7-7.684-3.7-12.851c0-5.2,1.217-9.482,3.65-12.85
			c2.766-3.767,6.649-5.65,11.649-5.65c5.033,0,8.883,1.851,11.55,5.55C263.792,289.95,264.976,294.2,264.976,299.399z
			 M261.375,299.45c0-4.167-0.85-7.65-2.55-10.45c-2.067-3.333-5.05-5-8.95-5c-3.967,0-7,1.684-9.1,5.05
			c-1.768,2.834-2.65,6.367-2.65,10.6c0,4.2,0.866,7.7,2.601,10.5c2.066,3.367,5.066,5.051,9,5.051c3.966,0,6.982-1.717,9.05-5.15
			C260.508,307.217,261.375,303.684,261.375,299.45z"/>
	</g>
	<g>
		<path fill="#4D4D4D" d="M287.2,282h3.3v21c0,2.2,0.05,3.717,0.15,4.55c0.232,1.7,0.75,3.1,1.55,4.2
			c1.633,2.233,4.366,3.35,8.2,3.35c3.666,0,6.267-0.982,7.8-2.95c1.333-1.732,2-4.482,2-8.25V282h3.4v18
			c0,4.033-0.067,6.567-0.2,7.6c-0.368,2.968-1.304,5.25-2.806,6.851c-2.372,2.5-5.729,3.75-10.069,3.75
			c-2.939,0-5.477-0.584-7.614-1.75c-2.404-1.333-4.041-3.301-4.909-5.9c-0.435-1.3-0.702-2.9-0.802-4.8c0-0.267,0-1.883,0-4.851
			V282z"/>
	</g>
	<g>
		<path fill="#4D4D4D" d="M362.45,288.85l-3.1,1.7c-1.468-4.467-4.518-6.7-9.15-6.7c-2.267,0-4.149,0.468-5.649,1.4
			c-1.768,1.134-2.65,2.767-2.65,4.899c0,2.734,1.833,4.734,5.5,6c3.4,1.067,6.816,2.134,10.25,3.2c3.666,1.733,5.5,4.5,5.5,8.3
			c0,3.334-1.417,5.984-4.25,7.95c-2.5,1.733-5.483,2.601-8.95,2.601s-6.317-0.784-8.55-2.351c-2.434-1.666-3.95-4.149-4.55-7.45
			l3.35-1.75c0.101,2.9,1.033,5.084,2.8,6.551c1.667,1.399,3.983,2.1,6.95,2.1c2.633,0,4.851-0.583,6.65-1.75
			c2.1-1.366,3.149-3.283,3.149-5.75c0-2.967-1.816-5.116-5.449-6.45c-3.4-1.032-6.801-2.05-10.2-3.05c-3.634-1.633-5.45-4.3-5.45-8
			c0-3.133,1.217-5.5,3.65-7.1c2.066-1.4,4.732-2.101,8-2.101C356.301,281.1,360.351,283.684,362.45,288.85z"/>
	</g>
	<g>
		<path fill="#4D4D4D" d="M414.125,314.2v3.1h-24.3V282h23.05v3.1h-19.649v12.55h17.8v3.101h-17.8v13.45H414.125z"/>
	</g>
	<g>
		<path fill="#4D4D4D" d="M64.3,348.8v18.5H61.4v-5.9c-1.634,4.534-5.2,6.801-10.7,6.801c-4.9,0-8.7-1.867-11.4-5.601
			c-2.399-3.333-3.6-7.55-3.6-12.649c0-5.367,1.267-9.75,3.8-13.15c2.833-3.8,6.833-5.7,12-5.7c6.267,0,10.616,2.983,13.05,8.95
			l-3.149,1.7c-0.534-2.433-1.65-4.342-3.351-5.726c-1.699-1.383-3.8-2.074-6.3-2.074c-4.134,0-7.317,1.667-9.55,5
			c-1.967,2.867-2.95,6.467-2.95,10.8c0,4.267,0.851,7.783,2.55,10.55c2.066,3.3,5.101,4.95,9.101,4.95c3.5,0,6.2-1.316,8.1-3.95
			c1.667-2.3,2.467-5.267,2.4-8.9v-0.5h-13v-3.1H64.3z"/>
	</g>
	<g>
		<path fill="#4D4D4D" d="M114.125,364.2v3.1h-24.3V332h23.05v3.1H93.226v12.55h17.8v3.101h-17.8v13.45H114.125z"/>
	</g>
	<g>
		<path fill="#4D4D4D" d="M151.2,334.95v32.35h-3.4v-32.35h-11.1V332h25.6v2.95H151.2z"/>
	</g>
	<g>
		<path fill="#4D4D4D" d="M213.375,364.3v3h-25.95v-2.197l21.8-30.003h-20.5V332h24.95v2.35l-21.5,29.95H213.375z"/>
	</g>
	<g>
		<path fill="#4D4D4D" d="M251.801,332v35.3h-3.4V332H251.801z"/>
	</g>
	<g>
		<path fill="#4D4D4D" d="M291.55,351.399v15.9h-3.15V332h13.5c4.233,0,7.017,0.317,8.351,0.95c3.166,1.5,4.75,4.399,4.75,8.699
			c0,5.034-2.25,8.117-6.75,9.25c-1.334,0.334-4.284,0.5-8.851,0.5H291.55z M291.55,334.8v13.65h9.149c3.7,0,6.2-0.25,7.5-0.75
			c2.367-0.934,3.551-2.967,3.551-6.101c0-2.566-0.851-4.45-2.551-5.649c-0.867-0.633-2.167-1-3.899-1.101
			c-0.3-0.032-1.7-0.05-4.2-0.05H291.55z"/>
	</g>
	<g>
		<path fill="#4D4D4D" d="M351.801,332v35.3h-3.4V332H351.801z"/>
	</g>
	<g>
		<path fill="#4D4D4D" d="M401.2,334.95v32.35h-3.4v-32.35h-11.1V332h25.6v2.95H401.2z"/>
	</g>
	<g>
		<path fill="#4D4D4D" d="M51.801,382v35.3h-3.4V382H51.801z"/>
	</g>
	<g>
		<path fill="#4D4D4D" d="M113.725,382v35.3h-3.3l-20.75-30.5v30.5h-3.25V382h3.25l21.05,30.2l-0.3-30.2H113.725z"/>
	</g>
	<g>
		<path fill="#4D4D4D" d="M164.125,414.2v3.1h-24.3V382h23.05v3.1h-19.649v12.55h17.8v3.101h-17.8v13.45H164.125z"/>
	</g>
	<g>
		<path fill="#4D4D4D" d="M201.2,384.95v32.35h-3.4v-32.35h-11.1V382h25.6v2.95H201.2z"/>
	</g>
	<g>
		<path fill="#4D4D4D" d="M262.45,388.85l-3.1,1.7c-1.468-4.467-4.518-6.7-9.15-6.7c-2.267,0-4.149,0.468-5.649,1.4
			c-1.768,1.134-2.65,2.767-2.65,4.899c0,2.734,1.833,4.734,5.5,6c3.4,1.067,6.816,2.134,10.25,3.2c3.666,1.733,5.5,4.5,5.5,8.3
			c0,3.334-1.417,5.984-4.25,7.95c-2.5,1.733-5.483,2.601-8.95,2.601s-6.317-0.784-8.55-2.351c-2.434-1.666-3.95-4.149-4.55-7.45
			l3.35-1.75c0.101,2.9,1.033,5.084,2.8,6.551c1.667,1.399,3.983,2.1,6.95,2.1c2.633,0,4.851-0.583,6.65-1.75
			c2.1-1.366,3.149-3.283,3.149-5.75c0-2.967-1.816-5.116-5.449-6.45c-3.4-1.032-6.801-2.05-10.2-3.05c-3.634-1.633-5.45-4.3-5.45-8
			c0-3.133,1.217-5.5,3.65-7.1c2.066-1.4,4.732-2.101,8-2.101C256.301,381.1,260.351,383.684,262.45,388.85z"/>
	</g>
	<g>
		<path fill="#4D4D4D" d="M301.2,384.95v32.35h-3.4v-32.35h-11.1V382h25.6v2.95H301.2z"/>
	</g>
	<g>
		<path fill="#4D4D4D" d="M361.875,407.7l3.1,1.899c-2.6,5.733-6.967,8.601-13.1,8.601c-5.234,0-9.184-1.801-11.851-5.4
			c-2.367-3.2-3.55-7.5-3.55-12.9c0-5.366,1.133-9.716,3.4-13.05c2.666-3.833,6.566-5.75,11.699-5.75c3.5,0,6.316,0.75,8.45,2.25
			c2,1.4,3.733,3.7,5.2,6.9l-3.35,1.75c-1.2-5.3-4.584-7.95-10.15-7.95c-4.1,0-7.167,1.6-9.2,4.8c-1.7,2.667-2.55,6.184-2.55,10.55
			c0,10.534,4.1,15.801,12.3,15.801C357.308,415.2,360.508,412.7,361.875,407.7z"/>
	</g>
	<g>
		<path fill="#4D4D4D" d="M411.875,407.7l3.1,1.899c-2.6,5.733-6.967,8.601-13.1,8.601c-5.234,0-9.184-1.801-11.851-5.4
			c-2.367-3.2-3.55-7.5-3.55-12.9c0-5.366,1.133-9.716,3.4-13.05c2.666-3.833,6.566-5.75,11.699-5.75c3.5,0,6.316,0.75,8.45,2.25
			c2,1.4,3.733,3.7,5.2,6.9l-3.35,1.75c-1.2-5.3-4.584-7.95-10.15-7.95c-4.1,0-7.167,1.6-9.2,4.8c-1.7,2.667-2.55,6.184-2.55,10.55
			c0,10.534,4.1,15.801,12.3,15.801C407.308,415.2,410.508,412.7,411.875,407.7z"/>
	</g>
	<g>
		<path fill="#4D4D4D" d="M51.2,434.95v32.35h-3.4v-32.35H36.7V432h25.6v2.95H51.2z"/>
	</g>
	<g>
		<path fill="#4D4D4D" d="M91.55,451.399v15.9h-3.15V432h13.5c4.233,0,7.017,0.317,8.351,0.95c3.166,1.5,4.75,4.399,4.75,8.699
			c0,5.034-2.25,8.117-6.75,9.25c-1.334,0.334-4.284,0.5-8.851,0.5H91.55z M91.55,434.8v13.65h9.149c3.7,0,6.2-0.25,7.5-0.75
			c2.367-0.934,3.551-2.967,3.551-6.101c0-2.566-0.851-4.45-2.551-5.649c-0.867-0.633-2.167-1-3.899-1.101
			c-0.3-0.032-1.7-0.05-4.2-0.05H91.55z"/>
	</g>
	<g>
		<path fill="#4D4D4D" d="M151.801,432v35.3h-3.4V432H151.801z"/>
	</g>
	<g>
		<path fill="#4D4D4D" d="M203.199,451.649l11.45,15.65h-4.191l-11.126-15.65h-8.282v15.65h-3.4v-35.35h11
			c4.467,0,7.4,0.267,8.8,0.8c4.133,1.567,6.2,4.684,6.2,9.35C213.649,447.934,210.166,451.117,203.199,451.649z M191.05,434.95
			v13.8h8.278c3.523,0,6.001-0.283,7.431-0.851c2.394-0.966,3.591-2.949,3.591-5.949c0-3.167-1.181-5.233-3.541-6.2
			c-1.33-0.533-3.824-0.8-7.48-0.8H191.05z"/>
	</g>
	<g>
		<path fill="#4D4D4D" d="M261.875,457.7l3.1,1.899c-2.6,5.733-6.967,8.601-13.1,8.601c-5.234,0-9.184-1.801-11.851-5.4
			c-2.367-3.2-3.55-7.5-3.55-12.9c0-5.366,1.133-9.716,3.4-13.05c2.666-3.833,6.566-5.75,11.699-5.75c3.5,0,6.316,0.75,8.45,2.25
			c2,1.4,3.733,3.7,5.2,6.9l-3.35,1.75c-1.2-5.3-4.584-7.95-10.15-7.95c-4.1,0-7.167,1.6-9.2,4.8c-1.7,2.667-2.55,6.184-2.55,10.55
			c0,10.534,4.1,15.801,12.3,15.801C257.308,465.2,260.508,462.7,261.875,457.7z"/>
	</g>
	<g>
		<path fill="#4D4D4D" d="M312.45,438.85l-3.1,1.7c-1.468-4.467-4.518-6.7-9.15-6.7c-2.267,0-4.149,0.468-5.649,1.4
			c-1.768,1.134-2.65,2.767-2.65,4.899c0,2.734,1.833,4.734,5.5,6c3.4,1.067,6.816,2.134,10.25,3.2c3.666,1.733,5.5,4.5,5.5,8.3
			c0,3.334-1.417,5.984-4.25,7.95c-2.5,1.733-5.483,2.601-8.95,2.601s-6.317-0.784-8.55-2.351c-2.434-1.666-3.95-4.149-4.55-7.45
			l3.35-1.75c0.101,2.9,1.033,5.084,2.8,6.551c1.667,1.399,3.983,2.1,6.95,2.1c2.633,0,4.851-0.583,6.65-1.75
			c2.1-1.366,3.149-3.283,3.149-5.75c0-2.967-1.816-5.116-5.449-6.45c-3.4-1.032-6.801-2.05-10.2-3.05c-3.634-1.633-5.45-4.3-5.45-8
			c0-3.133,1.217-5.5,3.65-7.1c2.066-1.4,4.732-2.101,8-2.101C306.301,431.1,310.351,433.684,312.45,438.85z"/>
	</g>
	<g>
		<path fill="#4D4D4D" d="M362.45,438.85l-3.1,1.7c-1.468-4.467-4.518-6.7-9.15-6.7c-2.267,0-4.149,0.468-5.649,1.4
			c-1.768,1.134-2.65,2.767-2.65,4.899c0,2.734,1.833,4.734,5.5,6c3.4,1.067,6.816,2.134,10.25,3.2c3.666,1.733,5.5,4.5,5.5,8.3
			c0,3.334-1.417,5.984-4.25,7.95c-2.5,1.733-5.483,2.601-8.95,2.601s-6.317-0.784-8.55-2.351c-2.434-1.666-3.95-4.149-4.55-7.45
			l3.35-1.75c0.101,2.9,1.033,5.084,2.8,6.551c1.667,1.399,3.983,2.1,6.95,2.1c2.633,0,4.851-0.583,6.65-1.75
			c2.1-1.366,3.149-3.283,3.149-5.75c0-2.967-1.816-5.116-5.449-6.45c-3.4-1.032-6.801-2.05-10.2-3.05c-3.634-1.633-5.45-4.3-5.45-8
			c0-3.133,1.217-5.5,3.65-7.1c2.066-1.4,4.732-2.101,8-2.101C356.301,431.1,360.351,433.684,362.45,438.85z"/>
	</g>
	<g>
		<path fill="#4D4D4D" d="M414.301,432v35.3h-3.4v-16.55h-21.7v16.55h-3.3V432h3.3v15.8h21.7V432H414.301z"/>
	</g>
</g>
</svg>
