<?xml version="1.0" encoding="utf-8"?>
<!-- Generator: Adobe Illustrator 16.0.0, SVG Export Plug-In . SVG Version: 6.00 Build 0)  -->
<svg version="1.2" baseProfile="tiny" id="Layer_1" xmlns="http://www.w3.org/2000/svg" xmlns:xlink="http://www.w3.org/1999/xlink"
	 x="0px" y="0px" width="450px" height="600px" viewBox="0 0 450 600" xml:space="preserve">
<g style="opacity: 0.2">
	<path fill="#4D4D4D" d="M32,0H20H8C3.582,0,0,3.582,0,8v584c0,4.418,3.582,8,8,8h12h12h418V0H32z M400,283H100
	c-18.226,0-33-14.774-33-33s14.774-33,33-33h300c18.226,0,33,14.774,33,33S418.226,283,400,283z"/>
	<path fill="#27B5F4" d="M400,217H100c-18.226,0-33,14.774-33,33s14.774,33,33,33h300c18.226,0,33-14.774,33-33S418.226,217,400,217z
	"/>
</g>
</svg>
